<?xml version="1.0" encoding="utf-8"?>
<!-- Generator: Adobe Illustrator 22.1.0, SVG Export Plug-In . SVG Version: 6.00 Build 0)  -->
<svg version="1.1" id="Layer_1" xmlns="http://www.w3.org/2000/svg" xmlns:xlink="http://www.w3.org/1999/xlink" x="0px" y="0px"
	 viewBox="0 0 223.5 84.9" style="enable-background:new 0 0 223.5 84.9;" xml:space="preserve">
<style type="text/css">
	.st0{fill-rule:evenodd;clip-rule:evenodd;fill:#FFFFFF;}
	.st1{fill:#FFFFFF;}
</style>
<g>
	<path class="st0" d="M46.7,32.4l7.1-0.4c12.4-0.7,12.7-10.1,12.7-10.2V0.1l-1-0.1c0,0.1-1.9,9.7-10.9,10.1l-8.2,0.4
		c-6.9,0.3-10.4,4.6-12.1,8.6c-1.7,4-1.7,8-1.7,8v15.2c-0.2-0.7-0.4-1.3-0.7-1.9c-1.7-4.1-5.2-8.3-12.1-8.6l-8.2-0.4
		c-5.4-0.3-8.8-3.9-10.4-8.6C1,22,0.9,21.4,0.9,21.4l-1,0.1v21.6c0,0,0,0.6,0.2,1.5c1.4,5.8,6.7,8.4,12.5,8.7l7.1,0.4
		c10.5,0.6,12.8,12.2,13,14.1v17.1h1.1c0-1.2,2.1-13.7,13-14.3l7.1-0.4C66.2,69.6,66.5,60.1,66.5,60V38.4l-1-0.1
		c0,0-1.9,9.7-10.9,10.1l-8.2,0.4c-6.9,0.3-10.4,4.6-12.1,8.6c-0.3,0.6-0.5,1.2-0.7,1.8l0-12.7C33.5,45.7,36.5,32.4,46.7,32.4z
		 M31.6,59.1c-2.4-3.9-4.9-6.9-12.3-7.3l-6.7-0.3c-5-0.3-9.7-2.3-10.9-7.1c-0.2-0.7-0.2-1.2-0.2-1.2V27.4c1.9,4,5,5.5,10.2,6.2
		l7.7,0.3c12,0.6,12.1,14,12.1,14.1V59.1z M34.4,65c0-0.1,0.1-13.5,12.1-14.1l7.7-0.3c5.3-0.7,8.3-2.2,10.2-6.2v15.8
		c0,0,0,0.5-0.2,1.2c-1.2,4.9-5.9,6.9-10.9,7.1l-6.7,0.3c-7.4,0.4-9.9,3.4-12.3,7.3V65z M34.4,37.7v-11c0-0.1,0.1-13.5,12.1-14.1
		l7.7-0.3c5.3-0.7,8.3-2.2,10.2-6.2v15.8c0,0,0,0.5-0.2,1.2c-1.2,4.9-5.9,6.8-10.9,7.1l-6.7,0.3C39.3,30.8,36.8,33.8,34.4,37.7z"/>
	<g>
		<path class="st1" d="M97.4,39.8v-0.3c0-1.5-0.5-2.3-1.6-2.3c-0.5,0-1,0.2-1.2,0.7c-0.3,0.4-0.3,0.8-0.3,1.9v4.4c0,1,0.1,1.5,0.2,2
			c0.2,0.5,0.7,0.9,1.3,0.9c1.1,0,1.6-0.9,1.6-2.6c0-0.1,0-0.2,0-0.3h2.1v0.5c0,2.9-1.3,4.4-3.6,4.4c-1.3,0-2.4-0.5-3-1.5
			c-0.5-0.8-0.6-1.6-0.6-3.6v-3.7c0-2.1,0.2-2.8,0.8-3.7c0.6-0.8,1.6-1.2,2.8-1.2c2.3,0,3.6,1.5,3.6,4.1v0.4H97.4z"/>
		<path class="st1" d="M107.6,45.4c0,1.6-0.2,2.2-0.8,2.8c-0.5,0.5-1.3,0.8-2.3,0.8c-1,0-1.7-0.3-2.3-0.8c-0.6-0.6-0.8-1.3-0.8-2.8
			v-3c0-1.6,0.2-2.2,0.8-2.8c0.5-0.5,1.3-0.8,2.3-0.8c0.9,0,1.7,0.3,2.3,0.8c0.6,0.6,0.8,1.3,0.8,2.8V45.4z M103.4,45.5
			c0,1.3,0.4,1.8,1.2,1.8c0.8,0,1.2-0.6,1.2-1.8v-3.3c0-1.3-0.4-1.8-1.2-1.8c-0.8,0-1.2,0.6-1.2,1.8V45.5z"/>
		<path class="st1" d="M111.9,40.2c0.9-1,1.6-1.4,2.5-1.4c1.1,0,1.6,0.7,1.6,2.3v7.7h-1.9v-7.2c0-0.9-0.2-1.2-0.7-1.2
			c-0.5,0-1.1,0.4-1.5,1v7.4H110v-9.9h1.9V40.2z"/>
		<path class="st1" d="M120.5,48.8l-2.4-9.9h2l1.4,6.3l1.3-6.3h2l-2.2,9.9H120.5z"/>
		<path class="st1" d="M128.3,44.1V45c0,1,0.1,1.4,0.2,1.7c0.2,0.3,0.6,0.5,1,0.5c0.8,0,1.2-0.5,1.2-1.7v-0.3h1.9
			c0,1.4-0.1,1.8-0.4,2.3c-0.5,0.9-1.4,1.3-2.7,1.3c-1.1,0-2-0.4-2.5-1c-0.4-0.6-0.6-1.4-0.6-2.7v-2.9c0-1.6,0.2-2.2,0.8-2.8
			c0.5-0.5,1.3-0.8,2.3-0.8c1,0,1.8,0.3,2.3,0.9c0.6,0.6,0.8,1.4,0.8,2.9v1.6H128.3z M130.7,42c0-1.2-0.4-1.7-1.2-1.7
			c-0.9,0-1.2,0.5-1.2,1.7v0.5h2.4V42z"/>
		<path class="st1" d="M136.6,40.2c0.9-1,1.6-1.4,2.5-1.4c1.1,0,1.6,0.7,1.6,2.3v7.7h-1.9v-7.2c0-0.9-0.2-1.2-0.7-1.2
			c-0.5,0-1.1,0.4-1.5,1v7.4h-1.9v-9.9h1.9V40.2z"/>
		<path class="st1" d="M147.5,40.5h-1.7v5.3c0,1,0.3,1.4,1.2,1.4c0.2,0,0.4,0,0.7-0.1v1.7c-0.5,0.1-0.8,0.1-1.3,0.1
			c-0.9,0-1.6-0.2-2-0.7c-0.4-0.4-0.5-0.9-0.5-2.2v-5.5h-1.4v-1.7h1.4v-2.7h1.9v2.7h1.7V40.5z"/>
		<path class="st1" d="M151.4,37.4h-1.9v-1.9h1.9V37.4z M151.4,48.8h-1.9v-9.9h1.9V48.8z"/>
		<path class="st1" d="M159.7,45.4c0,1.6-0.2,2.2-0.8,2.8c-0.5,0.5-1.3,0.8-2.3,0.8c-1,0-1.7-0.3-2.3-0.8c-0.6-0.6-0.8-1.3-0.8-2.8
			v-3c0-1.6,0.2-2.2,0.8-2.8c0.5-0.5,1.3-0.8,2.3-0.8c0.9,0,1.7,0.3,2.3,0.8c0.6,0.6,0.8,1.3,0.8,2.8V45.4z M155.5,45.5
			c0,1.3,0.4,1.8,1.2,1.8c0.8,0,1.2-0.6,1.2-1.8v-3.3c0-1.3-0.4-1.8-1.2-1.8c-0.8,0-1.2,0.6-1.2,1.8V45.5z"/>
		<path class="st1" d="M163.9,40.2c0.9-1,1.6-1.4,2.5-1.4c1.1,0,1.6,0.7,1.6,2.3v7.7h-1.9v-7.2c0-0.9-0.2-1.2-0.7-1.2
			c-0.5,0-1.1,0.4-1.5,1v7.4H162v-9.9h1.9V40.2z"/>
		<path class="st1" d="M180.7,45.4c0,1.6-0.2,2.2-0.8,2.8c-0.5,0.5-1.3,0.8-2.2,0.8c-1,0-1.7-0.3-2.3-0.8c-0.6-0.6-0.8-1.3-0.8-2.8
			v-3c0-1.6,0.2-2.2,0.8-2.8c0.5-0.5,1.3-0.8,2.3-0.8c0.9,0,1.7,0.3,2.2,0.8c0.6,0.6,0.8,1.3,0.8,2.8V45.4z M176.5,45.5
			c0,1.3,0.4,1.8,1.2,1.8c0.8,0,1.2-0.6,1.2-1.8v-3.3c0-1.3-0.4-1.8-1.2-1.8c-0.8,0-1.2,0.6-1.2,1.8V45.5z"/>
		<path class="st1" d="M184.6,40.2c0.9-1,1.6-1.4,2.5-1.4c1.1,0,1.6,0.7,1.6,2.3v7.7h-1.9v-7.2c0-0.9-0.2-1.2-0.7-1.2
			c-0.5,0-1.1,0.4-1.5,1v7.4h-1.9v-9.9h1.9V40.2z"/>
		<path class="st1" d="M92.4,55.9h3.1c2.5,0,3.9,1.2,3.9,3.4c0,1.6-0.7,2.5-2.2,3c1.8,0.5,2.5,1.4,2.5,3.2c0,2.3-1.5,3.8-3.9,3.8
			h-3.3V55.9z M95.2,61.4c1.3,0,2.1-0.7,2.1-1.9c0-0.5-0.2-0.9-0.5-1.2c-0.3-0.3-0.8-0.4-1.5-0.4h-0.8v3.5H95.2z M95.5,67.3
			c1.3,0,2.1-0.7,2.1-1.9c0-1.3-0.9-2.2-2.3-2.2h-0.7v4.1H95.5z"/>
		<path class="st1" d="M103.8,57.9h-1.9v-1.9h1.9V57.9z M103.8,69.2h-1.9v-9.9h1.9V69.2z"/>
		<path class="st1" d="M112.1,65.8c0,1.6-0.2,2.2-0.8,2.8c-0.5,0.5-1.3,0.8-2.3,0.8c-1,0-1.7-0.3-2.3-0.8c-0.6-0.6-0.8-1.3-0.8-2.8
			v-3c0-1.6,0.2-2.2,0.8-2.8c0.5-0.5,1.3-0.8,2.3-0.8c0.9,0,1.7,0.3,2.3,0.8c0.6,0.6,0.8,1.3,0.8,2.8V65.8z M107.9,65.9
			c0,1.3,0.4,1.8,1.2,1.8c0.8,0,1.2-0.6,1.2-1.8v-3.3c0-1.3-0.4-1.8-1.2-1.8c-0.8,0-1.2,0.6-1.2,1.8V65.9z"/>
		<path class="st1" d="M116.2,69.2h-1.9V55.9h1.9V69.2z"/>
		<path class="st1" d="M124.6,65.8c0,1.6-0.2,2.2-0.8,2.8c-0.5,0.5-1.3,0.8-2.2,0.8c-1,0-1.7-0.3-2.3-0.8c-0.6-0.6-0.8-1.3-0.8-2.8
			v-3c0-1.6,0.2-2.2,0.8-2.8c0.5-0.5,1.3-0.8,2.3-0.8c0.9,0,1.7,0.3,2.2,0.8c0.6,0.6,0.8,1.3,0.8,2.8V65.8z M120.3,65.9
			c0,1.3,0.4,1.8,1.2,1.8c0.8,0,1.2-0.6,1.2-1.8v-3.3c0-1.3-0.4-1.8-1.2-1.8c-0.8,0-1.2,0.6-1.2,1.8V65.9z"/>
		<path class="st1" d="M133.8,61.2c-0.2-0.2-0.4-0.3-0.6-0.3c-0.3,0-0.5,0.1-0.7,0.4c0.1,0.5,0.2,1,0.2,1.7c0,2.5-1.1,3.8-3,3.8
			c-0.2,0-0.4,0-0.7-0.1c-0.3,0.1-0.4,0.3-0.4,0.6c0,0.2,0.1,0.4,0.4,0.4c0.2,0,0.4,0.1,1.5,0.1c1.3,0.1,1.8,0.2,2.3,0.5
			c0.6,0.4,0.9,1.1,0.9,1.9c0,1.7-1.2,2.5-3.9,2.5c-2.3,0-3.4-0.6-3.4-1.8c0-0.8,0.5-1.3,1.6-1.6c-0.8-0.3-1.2-0.7-1.2-1.3
			c0-0.8,0.4-1.2,1.5-1.5c-1.2-0.6-1.7-1.7-1.7-3.5c0-2.5,1.1-3.8,3-3.8c1.1,0,1.8,0.4,2.4,1.3c0.3-0.9,0.8-1.3,1.7-1.2V61.2z
			 M128.7,69.5c-0.2,0.2-0.4,0.6-0.4,0.8c0,0.6,0.5,0.8,1.8,0.8c1.3,0,1.9-0.3,1.9-0.9c0-0.4-0.2-0.6-0.8-0.7
			c-0.3-0.1-0.5-0.1-1.5-0.1C129.5,69.6,129.2,69.5,128.7,69.5C128.7,69.5,128.7,69.5,128.7,69.5z M128.5,63.5
			c0,1.1,0.4,1.6,1.1,1.6c0.8,0,1.1-0.5,1.1-1.6v-1.1c0-1.1-0.4-1.6-1.1-1.6c-0.8,0-1.1,0.5-1.1,1.6V63.5z"/>
		<path class="st1" d="M137.3,57.9h-1.9v-1.9h1.9V57.9z M137.3,69.2h-1.9v-9.9h1.9V69.2z"/>
		<path class="st1" d="M143.8,62.8v-0.3c0-1.1-0.4-1.7-1.2-1.7c-0.5,0-0.8,0.2-1,0.5c-0.2,0.3-0.2,0.8-0.2,1.7v2.4
			c0,0.9,0.1,1.4,0.2,1.7c0.2,0.3,0.6,0.5,1,0.5c0.8,0,1.2-0.5,1.2-1.7v-0.3h1.9v0.4c0,1.2-0.2,1.9-0.7,2.4
			c-0.5,0.6-1.4,0.9-2.3,0.9c-1.1,0-2-0.4-2.5-1c-0.5-0.6-0.6-1.3-0.6-2.7v-2.9c0-1.4,0.2-2.1,0.6-2.7c0.5-0.7,1.4-1,2.5-1
			c1,0,1.8,0.3,2.3,0.9c0.5,0.5,0.7,1.2,0.7,2.4v0.4H143.8z"/>
		<path class="st1" d="M151.7,69.2c-0.1-0.3-0.2-0.7-0.2-1.2c-0.9,1-1.4,1.3-2.2,1.3c-1.3,0-2-1-2-2.6c0-1.2,0.5-2,1.6-2.7
			c0.5-0.3,1-0.5,2.6-1.3v-0.5c0-1-0.3-1.4-1-1.4c-0.7,0-1,0.4-1.1,1.4h-2c0.2-2,1.3-3,3.3-3c0.9,0,1.6,0.3,2,0.8
			c0.4,0.5,0.5,1,0.5,2.2v4.4c0,1.5,0,2,0.2,2.7H151.7z M151.6,64.1c-1.6,0.9-2.3,1.6-2.3,2.5c0,0.7,0.4,1.1,0.9,1.1
			c0.5,0,1-0.3,1.4-0.9V64.1z"/>
		<path class="st1" d="M157.7,69.2h-1.9V55.9h1.9V69.2z"/>
		<path class="st1" d="M164.3,55.9h3.2c2.6,0,3.8,1.3,3.8,4.2v5c0,2.8-1.2,4.2-3.8,4.2h-3.2V55.9z M167.3,67.3c1.5,0,2-0.8,2-2.8
			v-3.8c0-2.1-0.5-2.8-2-2.8h-1v9.5H167.3z"/>
		<path class="st1" d="M175.5,57.9h-1.9v-1.9h1.9V57.9z M175.5,69.2h-1.9v-9.9h1.9V69.2z"/>
		<path class="st1" d="M179.7,69.2l-2.4-9.9h2l1.4,6.3l1.3-6.3h2l-2.2,9.9H179.7z"/>
		<path class="st1" d="M187.3,64.6v0.9c0,1,0.1,1.4,0.2,1.7c0.2,0.3,0.6,0.5,1,0.5c0.8,0,1.2-0.5,1.2-1.7v-0.3h1.9
			c0,1.4-0.1,1.8-0.4,2.3c-0.5,0.9-1.4,1.3-2.7,1.3c-1.1,0-2-0.4-2.5-1c-0.4-0.6-0.6-1.4-0.6-2.7v-2.9c0-1.6,0.2-2.2,0.8-2.8
			c0.5-0.5,1.3-0.8,2.2-0.8c1,0,1.8,0.3,2.3,0.9c0.6,0.6,0.8,1.4,0.8,2.9v1.6H187.3z M189.7,62.4c0-1.2-0.4-1.7-1.2-1.7
			s-1.2,0.5-1.2,1.7V63h2.4V62.4z"/>
		<path class="st1" d="M195.7,59.3V61c0.5-1.3,1.2-1.9,2.4-1.9v2.2c-0.4-0.1-0.6-0.2-0.9-0.2c-0.5,0-0.9,0.2-1.2,0.5
			c-0.3,0.3-0.3,0.7-0.3,1.6v6h-1.9v-9.9H195.7z"/>
		<path class="st1" d="M203.4,62.3c-0.4-1-0.8-1.4-1.5-1.4c-0.6,0-1,0.4-1,0.9c0,0.5,0.3,0.8,1.7,1.6c1.1,0.6,1.6,1,2,1.4
			c0.4,0.5,0.7,1.1,0.7,1.9c0,1.8-1.2,2.9-3,2.9c-1.7,0-2.7-0.9-3.4-2.8l1.7-0.6c0.4,1.2,0.9,1.7,1.7,1.7c0.6,0,1.1-0.4,1.1-1
			c0-0.6-0.3-0.9-1.4-1.5c-1.4-0.8-1.7-1-2.2-1.5c-0.5-0.5-0.7-1.2-0.7-1.9c0-1.6,1.2-2.8,2.9-2.8c1.6,0,2.6,0.8,3.2,2.4L203.4,62.3
			z"/>
		<path class="st1" d="M208.9,57.9H207v-1.9h1.9V57.9z M208.9,69.2H207v-9.9h1.9V69.2z"/>
		<path class="st1" d="M215.5,61h-1.7v5.3c0,1,0.3,1.4,1.2,1.4c0.2,0,0.4,0,0.7-0.1v1.7c-0.5,0.1-0.8,0.1-1.3,0.1
			c-0.9,0-1.6-0.2-2-0.7c-0.4-0.4-0.5-0.9-0.5-2.2V61h-1.4v-1.7h1.4v-2.7h1.9v2.7h1.7V61z"/>
		<path class="st1" d="M223.3,59.3l-2.2,9.5c-0.7,3.2-1.4,3.9-4.2,3.9v-1.9c0.1,0,0.3,0,0.3,0c1,0,1.7-0.7,1.7-1.6
			c0-0.2,0-0.5-0.1-0.9l-2.2-9h2l1.5,6.8l1.3-6.8H223.3z"/>
	</g>
</g>
</svg>
