<svg id="Layer_1" data-name="Layer 1" xmlns="http://www.w3.org/2000/svg" viewBox="0 0 540.7 122.37"><defs><style>.cls-1{fill:#00638e;}.cls-2{fill:#747373;}</style></defs><title>CIESIN_logo_color-hi-res-vector (1)</title><path class="cls-1" d="M6,5.84a20.41,20.41,0,0,1,12.78-4A36.21,36.21,0,0,1,27.18,3a3.54,3.54,0,0,0,1.33.18c0,1.09.28,4.05.66,6.93a1,1,0,0,1-1.28.09C27.18,7,25.05,3.3,18.19,3.3,11,3.3,4.8,7.86,4.8,17.61S11.09,33,18.85,33a10.09,10.09,0,0,0,9.9-6.73,1,1,0,0,1,1.23.19,17.62,17.62,0,0,1-2.28,6.45,9.18,9.18,0,0,0-1.65.47,27.92,27.92,0,0,1-7.48,1.08A20.89,20.89,0,0,1,6.78,31.27,15.18,15.18,0,0,1,.06,18.32,15.61,15.61,0,0,1,6,5.84Z"/><path class="cls-1" d="M37.08,21.61c-1.23,0-1.28.1-1.28,1.28,0,4.75,2.79,8.8,7.86,8.8A5.09,5.09,0,0,0,48,29.38a.62.62,0,0,1,.85.57,8.27,8.27,0,0,1-7.43,4.38,8.5,8.5,0,0,1-6.86-3.11,10,10,0,0,1-2-6.12c0-5.79,3.84-10.64,9.52-10.64,4.07,0,6.72,2.77,6.72,5.6a2.91,2.91,0,0,1-.19,1.22c-.14.29-.81.33-2.79.33ZM40,20.2c3.51,0,4.55-.19,4.93-.47.14-.09.28-.28.28-.89,0-1.32-.9-3-3.64-3s-5.21,2.54-5.26,4.1c0,.09,0,.23.33.23Z"/><path class="cls-1" d="M54.31,20.15c0-1.83,0-2.07-1.28-2.92L52.61,17a.65.65,0,0,1,0-.85,25.91,25.91,0,0,0,4.74-2.3.55.55,0,0,1,.52.33,22.12,22.12,0,0,0-.1,2.21.5.5,0,0,0,.52.52c2-1.23,4.22-2.4,6.63-2.4,3.93,0,5.54,2.68,5.54,5.84v8.09c0,3.39.09,3.87,1.8,4.1l1,.14a.83.83,0,0,1-.1,1.18c-1.42-.09-2.79-.14-4.45-.14s-3.12,0-4.4.14a.83.83,0,0,1-.09-1.18l.9-.14C67,32.21,67,31.78,67,28.39v-7c0-2.69-1.23-4.66-4.44-4.66a5.2,5.2,0,0,0-4,1.64,4,4,0,0,0-.71,2.83v7.2c0,3.39.1,3.82,1.8,4.1l.85.14a.83.83,0,0,1-.09,1.18c-1.28-.09-2.65-.14-4.31-.14s-3.12,0-4.45.14a.83.83,0,0,1-.09-1.18l1-.14c1.75-.23,1.8-.71,1.8-4.1Z"/><path class="cls-1" d="M82.1,17.09c-.81,0-.86.14-.86,1.13V27c0,2.73.34,5.23,3.46,5.23A3.69,3.69,0,0,0,86,32c.42-.14,1-.66,1.18-.66.38,0,.57.52.47.8a6.55,6.55,0,0,1-5,2.17c-4.07,0-4.92-2.26-4.92-5.09V18.46c0-1.27,0-1.37-1-1.37H75.42a.78.78,0,0,1-.14-1,9.21,9.21,0,0,0,3-1.46,11.88,11.88,0,0,0,2-2.77c.23-.1.8-.1,1,.23v2.12c0,.85,0,.9.85.9H87.4a1.48,1.48,0,0,1,0,2Z"/><path class="cls-1" d="M94.26,21.61c-1.23,0-1.28.1-1.28,1.28,0,4.75,2.8,8.8,7.86,8.8a5.09,5.09,0,0,0,4.35-2.31.63.63,0,0,1,.86.57,8.29,8.29,0,0,1-7.43,4.38,8.5,8.5,0,0,1-6.87-3.11,10,10,0,0,1-2-6.12c0-5.79,3.84-10.64,9.52-10.64,4.07,0,6.72,2.77,6.72,5.6a2.75,2.75,0,0,1-.19,1.22c-.14.29-.8.33-2.79.33ZM97.2,20.2c3.5,0,4.54-.19,4.92-.47.14-.09.28-.28.28-.89,0-1.32-.9-3-3.64-3S93.55,18.41,93.5,20c0,.09,0,.23.34.23Z"/><path class="cls-1" d="M111.49,20.15c0-1.83,0-2.07-1.28-2.92l-.42-.28a.64.64,0,0,1,0-.85,37.57,37.57,0,0,0,4.78-2.3c.23,0,.37.14.37.33v2.73q0,.34.15.42c1.65-1.36,3.45-2.82,5.2-2.82a2,2,0,0,1,2.13,1.88,2.1,2.1,0,0,1-2,2.17,1.86,1.86,0,0,1-1-.33,3.92,3.92,0,0,0-2.09-.76,2.13,2.13,0,0,0-1.7.94A7.18,7.18,0,0,0,115,22v6.4c0,3.39.1,4,1.9,4.1l1.7.14a.83.83,0,0,1-.09,1.18c-2.23-.09-3.6-.14-5.26-.14s-3.12,0-4.35.14a.83.83,0,0,1-.1-1.18l.9-.14c1.75-.28,1.8-.71,1.8-4.1Z"/><path class="cls-1" d="M146.05,17.09c-.81,0-.81.1-.81,1.37v9.93c0,3.39.1,4,1.8,4.1l1.7.14a.82.82,0,0,1-.09,1.18c-2.13-.09-3.5-.14-5.16-.14s-3.12,0-4.54.14a.83.83,0,0,1-.1-1.18l1.09-.14c1.75-.23,1.8-.71,1.8-4.1V18.46c0-1.27,0-1.37-1-1.37h-1.65a.65.65,0,0,1-.15-.89l2-1a1.07,1.07,0,0,0,.71-.94A21,21,0,0,1,143.21,6c1.18-2.68,3.83-6,8.52-6,2.51,0,4.64,1.13,4.64,2.83a1.81,1.81,0,0,1-1.8,1.69A1.37,1.37,0,0,1,153.43,4a5.28,5.28,0,0,0-3.79-2.08,3.66,3.66,0,0,0-3.36,2.59,25,25,0,0,0-1,8V13.8c0,1.27,0,1.32.81,1.32h5.39a1.44,1.44,0,0,1-.33,2Z"/><path class="cls-1" d="M172.32,24.2c0,5.89-4.07,10.13-10,10.13a9.34,9.34,0,0,1-9.7-9.7,9.91,9.91,0,0,1,10.08-10.17A9.43,9.43,0,0,1,172.32,24.2Zm-10.18-8.33c-3.12,0-5.44,3-5.44,8.15,0,4.28,1.94,8.9,6.1,8.9s5.45-4.34,5.45-8C168.25,21,166.64,15.87,162.14,15.87Z"/><path class="cls-1" d="M176.72,20.15c0-1.83,0-2.07-1.28-2.92L175,17a.65.65,0,0,1,0-.85,36.32,36.32,0,0,0,4.78-2.3c.24,0,.38.14.38.33v2.73q0,.34.15.42c1.65-1.36,3.45-2.82,5.2-2.82a2,2,0,0,1,2.13,1.88,2.1,2.1,0,0,1-2,2.17,1.92,1.92,0,0,1-1-.33,3.89,3.89,0,0,0-2.08-.76,2.13,2.13,0,0,0-1.7.94,7.18,7.18,0,0,0-.62,3.63v6.4c0,3.39.1,4,1.9,4.1l1.7.14a.83.83,0,0,1-.09,1.18c-2.23-.09-3.6-.14-5.26-.14s-3.12,0-4.35.14a.83.83,0,0,1-.1-1.18l.9-.14c1.75-.28,1.8-.71,1.8-4.1Z"/><path class="cls-1" d="M205.69,9.75c0-5-.09-5.79-2.89-6l-1.18-.09c-.28-.19-.19-1,.09-1.18,2.37.09,4,.14,6,.14s3.5,0,5.87-.14c.28.14.38,1,.09,1.18l-1.18.09c-2.79.24-2.89,1-2.89,6V26.51c0,5,.1,5.65,2.89,6l1.18.14c.29.19.19,1-.09,1.18-2.37-.09-4-.14-5.87-.14s-3.6,0-6,.14a.92.92,0,0,1-.09-1.18l1.18-.14c2.8-.33,2.89-1,2.89-6Z"/><path class="cls-1" d="M218.75,20.15c0-1.83,0-2.07-1.27-2.92l-.43-.28a.64.64,0,0,1,0-.85,25.82,25.82,0,0,0,4.73-2.3.54.54,0,0,1,.52.33c-.09,1.08-.09,1.79-.09,2.21a.5.5,0,0,0,.52.52c2-1.23,4.21-2.4,6.62-2.4,3.93,0,5.54,2.68,5.54,5.84v8.09c0,3.39.1,3.87,1.8,4.1l1,.14a.83.83,0,0,1-.09,1.18c-1.42-.09-2.79-.14-4.45-.14s-3.13,0-4.4.14a.83.83,0,0,1-.1-1.18l.9-.14c1.75-.28,1.8-.71,1.8-4.1v-7c0-2.69-1.23-4.66-4.45-4.66a5.17,5.17,0,0,0-4,1.64,4,4,0,0,0-.71,2.83v7.2c0,3.39.09,3.82,1.8,4.1l.85.14a.83.83,0,0,1-.1,1.18c-1.27-.09-2.65-.14-4.3-.14s-3.13,0-4.45.14a.83.83,0,0,1-.1-1.18l1-.14c1.75-.23,1.79-.71,1.79-4.1Z"/><path class="cls-1" d="M246.54,17.09c-.8,0-.85.14-.85,1.13V27c0,2.73.33,5.23,3.45,5.23a3.65,3.65,0,0,0,1.28-.24c.43-.14,1-.66,1.19-.66.37,0,.56.52.47.8a6.57,6.57,0,0,1-5,2.17c-4.07,0-4.92-2.26-4.92-5.09V18.46c0-1.27-.05-1.37-1-1.37h-1.32a.77.77,0,0,1-.14-1,9.14,9.14,0,0,0,3-1.46,11.33,11.33,0,0,0,2-2.77c.24-.1.81-.1,1,.23v2.12c0,.85,0,.9.85.9h5.25a1.48,1.48,0,0,1,0,2Z"/><path class="cls-1" d="M258.71,21.61c-1.23,0-1.28.1-1.28,1.28,0,4.75,2.79,8.8,7.86,8.8a5.1,5.1,0,0,0,4.35-2.31.63.63,0,0,1,.85.57,8.28,8.28,0,0,1-7.43,4.38,8.48,8.48,0,0,1-6.86-3.11,10,10,0,0,1-2-6.12c0-5.79,3.83-10.64,9.51-10.64,4.07,0,6.72,2.77,6.72,5.6a3,3,0,0,1-.18,1.22c-.15.29-.81.33-2.8.33Zm2.93-1.41c3.5,0,4.55-.19,4.92-.47.15-.09.29-.28.29-.89,0-1.32-.9-3-3.65-3S258,18.41,258,20c0,.09,0,.23.33.23Z"/><path class="cls-1" d="M275,20.15c0-1.83,0-2.07-1.28-2.92l-.42-.28a.65.65,0,0,1,0-.85,36.32,36.32,0,0,0,4.78-2.3c.24,0,.38.14.38.33v2.73c0,.23.05.37.14.42,1.66-1.36,3.46-2.82,5.21-2.82A2,2,0,0,1,286,16.34a2.1,2.1,0,0,1-2,2.17,1.92,1.92,0,0,1-1.05-.33,3.91,3.91,0,0,0-2.08-.76,2.11,2.11,0,0,0-1.7.94,7.07,7.07,0,0,0-.62,3.63v6.4c0,3.39.1,4,1.9,4.1l1.7.14a.83.83,0,0,1-.09,1.18c-2.23-.09-3.6-.14-5.26-.14s-3.12,0-4.35.14a.83.83,0,0,1-.1-1.18l.9-.14c1.75-.28,1.8-.71,1.8-4.1Z"/><path class="cls-1" d="M289.76,20.15c0-1.83,0-2.07-1.28-2.92l-.43-.28a.66.66,0,0,1,.05-.85,25.51,25.51,0,0,0,4.73-2.3.56.56,0,0,1,.53.33,22.12,22.12,0,0,0-.1,2.21.5.5,0,0,0,.52.52c2-1.23,4.21-2.4,6.63-2.4,3.93,0,5.54,2.68,5.54,5.84v8.09c0,3.39.09,3.87,1.8,4.1l1,.14a.83.83,0,0,1-.1,1.18c-1.42-.09-2.79-.14-4.45-.14s-3.12,0-4.4.14a.83.83,0,0,1-.09-1.18l.9-.14c1.75-.28,1.79-.71,1.79-4.1v-7c0-2.69-1.23-4.66-4.45-4.66a5.19,5.19,0,0,0-4,1.64,4,4,0,0,0-.71,2.83v7.2c0,3.39.1,3.82,1.8,4.1l.85.14a.83.83,0,0,1-.09,1.18c-1.28-.09-2.65-.14-4.31-.14s-3.12,0-4.45.14a.82.82,0,0,1-.09-1.18l1-.14c1.75-.23,1.8-.71,1.8-4.1Z"/><path class="cls-1" d="M321.19,23.92c.71-.23.8-.66.8-1.36l.05-2.17c0-1.74-.52-4.1-3.45-4.1-1.33,0-2.94.66-3,2.12-.05.76-.1,1.32-.48,1.6a5.05,5.05,0,0,1-2.69.9.6.6,0,0,1-.67-.66c0-2.45,5.35-5.79,8.81-5.79s5.06,2,4.92,5.51l-.28,8.19c-.1,2.17.33,4.1,2.17,4.1a2.77,2.77,0,0,0,1.19-.29c.23-.14.47-.33.61-.33s.33.29.33.62a5,5,0,0,1-4,2.07,3.8,3.8,0,0,1-3.08-1.46c-.19-.28-.47-.66-.76-.66a7.1,7.1,0,0,0-1.84.94,7,7,0,0,1-3.41,1.18,4.89,4.89,0,0,1-3.31-1.09A4.38,4.38,0,0,1,311.63,30c0-1.84.9-2.92,3.93-4Zm-2.94,8.29A5.36,5.36,0,0,0,321.14,31c.57-.56.57-1.22.62-2.21l.09-2.78c0-.52-.19-.61-.47-.61a9,9,0,0,0-1.94.47c-2.79.94-4.17,1.65-4.17,3.48A2.85,2.85,0,0,0,318.25,32.21Z"/><path class="cls-1" d="M336.67,17.09c-.81,0-.85.14-.85,1.13V27c0,2.73.33,5.23,3.45,5.23a3.65,3.65,0,0,0,1.28-.24c.43-.14,1-.66,1.18-.66.38,0,.57.52.48.8a6.59,6.59,0,0,1-5,2.17c-4.07,0-4.93-2.26-4.93-5.09V18.46c0-1.27,0-1.37-1-1.37H330a.78.78,0,0,1-.14-1,9.21,9.21,0,0,0,3-1.46,11.33,11.33,0,0,0,2-2.77c.24-.1.8-.1,1,.23v2.12c0,.85.05.9.86.9H342a1.49,1.49,0,0,1,0,2Z"/><path class="cls-1" d="M347.32,20.15c0-1.83,0-2.07-1.28-2.92l-.42-.28a.65.65,0,0,1,0-.85,32.54,32.54,0,0,0,4.88-2.3.44.44,0,0,1,.47.28c-.09,1.65-.19,3.91-.19,5.84v8.47c0,3.39.1,3.87,1.8,4.1l1,.14a.82.82,0,0,1-.09,1.18c-1.42-.09-2.79-.14-4.45-.14s-3.12,0-4.45.14a.83.83,0,0,1-.09-1.18l1-.14c1.75-.23,1.8-.71,1.8-4.1Zm3.93-13.42a2.46,2.46,0,0,1-4.92.1,2.44,2.44,0,0,1,2.55-2.54A2.36,2.36,0,0,1,351.25,6.73Z"/><path class="cls-1" d="M375.25,24.2c0,5.89-4.08,10.13-10,10.13a9.34,9.34,0,0,1-9.71-9.7,9.92,9.92,0,0,1,10.09-10.17A9.43,9.43,0,0,1,375.25,24.2Zm-10.18-8.33c-3.12,0-5.44,3-5.44,8.15,0,4.28,1.94,8.9,6.1,8.9s5.44-4.34,5.44-8C371.17,21,369.57,15.87,365.07,15.87Z"/><path class="cls-1" d="M379.65,20.15c0-1.83,0-2.07-1.28-2.92L378,17a.65.65,0,0,1,0-.85,25.91,25.91,0,0,0,4.74-2.3.55.55,0,0,1,.52.33,22.12,22.12,0,0,0-.1,2.21.5.5,0,0,0,.52.52c2-1.23,4.21-2.4,6.63-2.4,3.93,0,5.54,2.68,5.54,5.84v8.09c0,3.39.09,3.87,1.8,4.1l1,.14a.83.83,0,0,1-.1,1.18c-1.42-.09-2.79-.14-4.45-.14s-3.12,0-4.4.14a.83.83,0,0,1-.09-1.18l.9-.14c1.75-.28,1.79-.71,1.79-4.1v-7c0-2.69-1.23-4.66-4.45-4.66a5.19,5.19,0,0,0-4,1.64,4,4,0,0,0-.71,2.83v7.2c0,3.39.1,3.82,1.8,4.1l.85.14a.83.83,0,0,1-.09,1.18c-1.28-.09-2.65-.14-4.31-.14s-3.12,0-4.45.14a.83.83,0,0,1-.09-1.18l1-.14c1.75-.23,1.8-.71,1.8-4.1Z"/><path class="cls-1" d="M410.13,23.92c.71-.23.81-.66.81-1.36l.05-2.17c0-1.74-.53-4.1-3.46-4.1-1.32,0-2.93.66-3,2.12-.05.76-.09,1.32-.47,1.6a5.08,5.08,0,0,1-2.7.9.6.6,0,0,1-.66-.66c0-2.45,5.35-5.79,8.8-5.79s5.07,2,4.92,5.51l-.28,8.19c-.09,2.17.33,4.1,2.18,4.1a2.73,2.73,0,0,0,1.18-.29c.24-.14.47-.33.62-.33s.33.29.33.62a5,5,0,0,1-4,2.07,3.81,3.81,0,0,1-3.08-1.46c-.19-.28-.47-.66-.75-.66a7.26,7.26,0,0,0-1.85.94,7,7,0,0,1-3.41,1.18A4.89,4.89,0,0,1,402,33.24,4.38,4.38,0,0,1,400.57,30c0-1.84.9-2.92,3.93-4Zm-2.93,8.29A5.4,5.4,0,0,0,410.09,31c.56-.56.56-1.22.61-2.21l.1-2.78c0-.52-.19-.61-.48-.61a9.14,9.14,0,0,0-1.94.47c-2.79.94-4.16,1.65-4.16,3.48A2.85,2.85,0,0,0,407.2,32.21Z"/><path class="cls-1" d="M425.71,28.39c0,3.39.09,3.87,1.8,4.1l1.13.14a.83.83,0,0,1-.09,1.18c-1.56-.09-2.94-.14-4.59-.14s-3.13,0-4.55.14a.83.83,0,0,1-.09-1.18l1.09-.14c1.75-.23,1.79-.71,1.79-4.1V7.11c0-2.78,0-3.06-1.46-3.91l-.48-.28a.73.73,0,0,1,0-.94,33.54,33.54,0,0,0,5.12-2,.52.52,0,0,1,.47.28c-.05,1.42-.14,3.77-.14,5.84Z"/><path class="cls-1" d="M447.62,9.65c0-4.89-.09-5.6-2.88-5.93L444,3.63c-.28-.19-.19-1,.09-1.18,2,.09,3.65.14,5.59.14h8.9c3,0,5.82,0,6.39-.14a53.52,53.52,0,0,1,.76,6.26,1,1,0,0,1-1.19.1c-.71-2.22-1.13-3.87-3.6-4.48a23.09,23.09,0,0,0-4.59-.28h-3.4c-1.43,0-1.43.09-1.43,1.88v9.42c0,1.32.15,1.32,1.57,1.32h2.74a17.67,17.67,0,0,0,4-.28c.56-.19.9-.47,1.13-1.65l.38-1.93a.94.94,0,0,1,1.23,0c0,1.13-.19,3-.19,4.75s.19,3.49.19,4.52a.94.94,0,0,1-1.23.05l-.43-1.84a2,2,0,0,0-1.46-1.79,16,16,0,0,0-3.65-.23h-2.74c-1.42,0-1.57,0-1.57,1.27v6.64c0,2.49.15,4.1.9,4.9.57.56,1.57,1.08,5.73,1.08,3.65,0,5-.19,6.06-.71.85-.47,2.13-2.12,3.36-4.57a.88.88,0,0,1,1.18.33,40.25,40.25,0,0,1-2.13,6.55c-4.26-.09-8.47-.14-12.68-.14h-4.26c-2,0-3.65,0-6.44.14a.91.91,0,0,1-.09-1.18l1.56-.14c2.7-.23,2.93-.94,2.93-5.88Z"/><path class="cls-1" d="M480.43,23.92c.71-.23.8-.66.8-1.36l0-2.17c.05-1.74-.52-4.1-3.46-4.1-1.32,0-2.93.66-3,2.12,0,.76-.09,1.32-.47,1.6a5.08,5.08,0,0,1-2.7.9.6.6,0,0,1-.66-.66c0-2.45,5.35-5.79,8.81-5.79s5.06,2,4.92,5.51l-.29,8.19c-.09,2.17.34,4.1,2.18,4.1a2.73,2.73,0,0,0,1.18-.29c.24-.14.48-.33.62-.33s.33.29.33.62a5,5,0,0,1-4,2.07,3.8,3.8,0,0,1-3.08-1.46c-.19-.28-.47-.66-.76-.66a7.26,7.26,0,0,0-1.85.94,7,7,0,0,1-3.4,1.18,4.91,4.91,0,0,1-3.32-1.09A4.37,4.37,0,0,1,470.87,30c0-1.84.9-2.92,3.92-4Zm-2.94,8.29A5.36,5.36,0,0,0,480.38,31c.57-.56.57-1.22.62-2.21l.09-2.78c0-.52-.19-.61-.47-.61a9,9,0,0,0-1.94.47c-2.8.94-4.17,1.65-4.17,3.48A2.85,2.85,0,0,0,477.49,32.21Z"/><path class="cls-1" d="M492,20.15c0-1.83,0-2.07-1.28-2.92l-.43-.28a.64.64,0,0,1,.05-.85,36.32,36.32,0,0,0,4.78-2.3c.24,0,.38.14.38.33v2.73c0,.23.05.37.14.42,1.66-1.36,3.45-2.82,5.21-2.82A2,2,0,0,1,503,16.34a2.1,2.1,0,0,1-2,2.17,1.89,1.89,0,0,1-1-.33,3.91,3.91,0,0,0-2.08-.76,2.13,2.13,0,0,0-1.71.94,7.2,7.2,0,0,0-.61,3.63v6.4c0,3.39.09,4,1.89,4.1l1.7.14a.82.82,0,0,1-.09,1.18c-2.22-.09-3.6-.14-5.25-.14s-3.13,0-4.36.14a.83.83,0,0,1-.09-1.18l.9-.14c1.75-.28,1.8-.71,1.8-4.1Z"/><path class="cls-1" d="M511.05,17.09c-.8,0-.85.14-.85,1.13V27c0,2.73.33,5.23,3.46,5.23a3.69,3.69,0,0,0,1.28-.24c.42-.14,1-.66,1.18-.66.38,0,.57.52.47.8a6.55,6.55,0,0,1-5,2.17c-4.07,0-4.92-2.26-4.92-5.09V18.46c0-1.27-.05-1.37-1-1.37h-1.33a.78.78,0,0,1-.14-1,9.32,9.32,0,0,0,3-1.46,11.88,11.88,0,0,0,2-2.77c.23-.1.8-.1,1,.23v2.12c0,.85.05.9.85.9h5.26a1.49,1.49,0,0,1,0,2Z"/><path class="cls-1" d="M521.23,7.11c0-2.78-.05-3.06-1.47-3.91l-.47-.28a.7.7,0,0,1,0-.94,33.48,33.48,0,0,0,5.11-2,.53.53,0,0,1,.48.28c0,1.42-.15,3.77-.15,5.84V16c0,.42,0,.8.19.89a10.86,10.86,0,0,1,6.39-2.44c4.5,0,6.11,2.77,6.11,6.07v7.86c0,3.39.09,3.91,1.8,4.1l1.28.14a.83.83,0,0,1-.1,1.18c-1.7-.09-3.07-.14-4.73-.14s-3.13,0-4.4.14a.82.82,0,0,1-.1-1.18l1-.14c1.75-.28,1.8-.71,1.8-4.1V21.66c0-3-1.47-5-4.5-5a5.71,5.71,0,0,0-3.69,1.27c-.85.71-1,.95-1,2.59v7.91c0,3.39.1,3.87,1.8,4.1l1,.14c.33.19.23,1-.1,1.18-1.42-.09-2.79-.14-4.45-.14s-3.12,0-4.64.14a.83.83,0,0,1-.09-1.18l1.18-.14c1.75-.19,1.8-.71,1.8-4.1Z"/><path class="cls-1" d="M9.52,82.3a14.82,14.82,0,0,1-7.38-1.74A21.71,21.71,0,0,1,.86,74c.24-.33,1-.42,1.14-.14.71,2.4,2.65,7,8.14,7,4,0,5.92-2.59,5.92-5.41,0-2.07-.43-4.38-3.89-6.59L7.68,65.92c-2.37-1.56-5.11-4.24-5.11-8.1,0-4.48,3.5-8.1,9.65-8.1a18.33,18.33,0,0,1,4.4.61,6.34,6.34,0,0,0,1.66.28,20.39,20.39,0,0,1,.85,5.75c-.19.28-.94.42-1.18.14-.62-2.26-1.89-5.32-6.44-5.32S5.88,54.24,5.88,56.4c0,2.74,2.27,4.71,4,5.8l3.79,2.35c3,1.84,5.92,4.57,5.92,9C19.61,78.77,15.68,82.3,9.52,82.3Z"/><path class="cls-1" d="M37.55,63.14A2.65,2.65,0,0,1,38.26,65c0,.85-.48,1.74-1,1.74a.84.84,0,0,1-.66-.32,6.43,6.43,0,0,0-4.73-2.5c-3.31,0-6.53,2.59-6.53,7.58,0,3.67,2.55,8,7.62,8a5.78,5.78,0,0,0,5.25-2.82.73.73,0,0,1,.85.66,8.64,8.64,0,0,1-7.9,4.8,9.22,9.22,0,0,1-6.49-2.4,9.37,9.37,0,0,1-2.74-7c0-5.09,3.6-10.5,11.45-10.5A11.79,11.79,0,0,1,37.55,63.14Z"/><path class="cls-1" d="M43.75,68c0-1.84,0-2.08-1.28-2.92L42,64.83a.63.63,0,0,1,.05-.84A32.62,32.62,0,0,0,47,61.68a.44.44,0,0,1,.47.28c-.09,1.65-.19,3.91-.19,5.84v8.48c0,3.39.1,3.86,1.8,4.09l1,.14A.83.83,0,0,1,50,81.69c-1.42-.09-2.79-.14-4.45-.14s-3.12,0-4.45.14A.82.82,0,0,1,41,80.51l1-.14c1.75-.23,1.8-.7,1.8-4.09Zm3.93-13.42a2.47,2.47,0,0,1-4.93.09,2.46,2.46,0,0,1,2.56-2.54A2.36,2.36,0,0,1,47.68,54.62Z"/><path class="cls-1" d="M56.48,69.5c-1.23,0-1.28.09-1.28,1.27,0,4.75,2.8,8.8,7.86,8.8a5.1,5.1,0,0,0,4.35-2.3.63.63,0,0,1,.86.56,8.29,8.29,0,0,1-7.43,4.38A8.5,8.5,0,0,1,54,79.1,10,10,0,0,1,52,73c0-5.79,3.84-10.64,9.52-10.64,4.07,0,6.72,2.78,6.72,5.6A3,3,0,0,1,68,69.17c-.14.28-.8.33-2.79.33Zm2.94-1.42c3.5,0,4.54-.18,4.92-.47.14-.09.28-.28.28-.89,0-1.32-.9-3-3.64-3s-5.21,2.54-5.26,4.1c0,.09,0,.23.33.23Z"/><path class="cls-1" d="M72.77,68c0-1.84,0-2.08-1.28-2.92l-.43-.29a.63.63,0,0,1,0-.84,25.56,25.56,0,0,0,4.73-2.31.54.54,0,0,1,.52.33c-.09,1.08-.09,1.79-.09,2.21a.5.5,0,0,0,.52.52c2-1.22,4.21-2.4,6.62-2.4C87.34,62.34,89,65,89,68.18v8.1c0,3.39.1,3.86,1.8,4.09l1,.14a.83.83,0,0,1-.09,1.18c-1.42-.09-2.79-.14-4.45-.14s-3.13,0-4.4.14a.83.83,0,0,1-.1-1.18l.9-.14c1.75-.28,1.8-.7,1.8-4.09v-7c0-2.68-1.23-4.66-4.45-4.66a5.14,5.14,0,0,0-4,1.65,3.92,3.92,0,0,0-.71,2.82v7.21c0,3.39.09,3.81,1.8,4.09l.85.14a.83.83,0,0,1-.1,1.18c-1.27-.09-2.65-.14-4.3-.14s-3.13,0-4.45.14a.83.83,0,0,1-.1-1.18l1-.14c1.75-.23,1.8-.7,1.8-4.09Z"/><path class="cls-1" d="M108.46,63.14a2.69,2.69,0,0,1,.71,1.88c0,.85-.48,1.74-1,1.74a.84.84,0,0,1-.66-.32,6.43,6.43,0,0,0-4.73-2.5c-3.32,0-6.53,2.59-6.53,7.58,0,3.67,2.55,8,7.62,8a5.78,5.78,0,0,0,5.25-2.82.73.73,0,0,1,.85.66,8.64,8.64,0,0,1-7.9,4.8,9.22,9.22,0,0,1-6.49-2.4,9.37,9.37,0,0,1-2.74-7c0-5.09,3.6-10.5,11.45-10.5A11.79,11.79,0,0,1,108.46,63.14Z"/><path class="cls-1" d="M116.17,69.5c-1.23,0-1.28.09-1.28,1.27,0,4.75,2.8,8.8,7.86,8.8a5.13,5.13,0,0,0,4.36-2.3.62.62,0,0,1,.85.56,8.28,8.28,0,0,1-7.43,4.38,8.52,8.52,0,0,1-6.87-3.11,9.94,9.94,0,0,1-2-6.12c0-5.79,3.83-10.64,9.51-10.64,4.07,0,6.72,2.78,6.72,5.6a2.84,2.84,0,0,1-.19,1.23c-.14.28-.8.33-2.79.33Zm2.94-1.42c3.5,0,4.54-.18,4.92-.47.14-.09.28-.28.28-.89,0-1.32-.9-3-3.64-3s-5.21,2.54-5.26,4.1c0,.09,0,.23.34.23Z"/><path class="cls-1" d="M147.6,57.63c0-5-.09-5.79-2.88-6l-1.19-.09c-.28-.19-.19-1,.1-1.18,2.36.09,4,.14,6,.14s3.5,0,5.87-.14c.28.14.38,1,.1,1.18l-1.19.09c-2.79.24-2.89,1-2.89,6V74.39c0,5,.1,5.65,2.89,6l1.19.14c.28.19.18,1-.1,1.18-2.37-.09-4-.14-5.87-.14s-3.6,0-6,.14a.91.91,0,0,1-.1-1.18l1.19-.14c2.79-.33,2.88-1,2.88-6Z"/><path class="cls-1" d="M160.67,68c0-1.84,0-2.08-1.28-2.92l-.43-.29a.63.63,0,0,1,0-.84,26,26,0,0,0,4.74-2.31.56.56,0,0,1,.52.33,22.12,22.12,0,0,0-.1,2.21.5.5,0,0,0,.52.52c2-1.22,4.21-2.4,6.63-2.4,3.93,0,5.54,2.68,5.54,5.84v8.1c0,3.39.09,3.86,1.79,4.09l1,.14a.83.83,0,0,1-.1,1.18c-1.42-.09-2.79-.14-4.45-.14s-3.12,0-4.4.14a.82.82,0,0,1-.09-1.18l.89-.14c1.76-.28,1.8-.7,1.8-4.09v-7c0-2.68-1.23-4.66-4.45-4.66a5.16,5.16,0,0,0-4,1.65,4,4,0,0,0-.71,2.82v7.21c0,3.39.1,3.81,1.8,4.09l.85.14a.83.83,0,0,1-.09,1.18c-1.28-.09-2.65-.14-4.31-.14s-3.12,0-4.45.14a.82.82,0,0,1-.09-1.18l1-.14c1.75-.23,1.8-.7,1.8-4.09Z"/><path class="cls-1" d="M189.69,65c-.81,0-.81.09-.81,1.36v9.94c0,3.39.1,4,1.8,4.09l1.7.14a.83.83,0,0,1-.09,1.18c-2.13-.09-3.5-.14-5.16-.14s-3.12,0-4.54.14a.82.82,0,0,1-.1-1.18l1.09-.14c1.75-.23,1.8-.7,1.8-4.09V66.34c0-1.27,0-1.36-.95-1.36h-1.66a.67.67,0,0,1-.14-.9l2-1a1.07,1.07,0,0,0,.71-.94,21,21,0,0,1,1.47-8.29c1.18-2.68,3.83-6,8.52-6,2.5,0,4.63,1.13,4.63,2.83a1.8,1.8,0,0,1-1.79,1.69,1.36,1.36,0,0,1-1.14-.56,5.29,5.29,0,0,0-3.79-2.07,3.65,3.65,0,0,0-3.36,2.59,24.86,24.86,0,0,0-1,8v1.37c0,1.27,0,1.32.81,1.32h5.39a1.45,1.45,0,0,1-.33,2Z"/><path class="cls-1" d="M216,72.09c0,5.88-4.07,10.12-10,10.12a9.33,9.33,0,0,1-9.7-9.7,9.92,9.92,0,0,1,10.08-10.17A9.43,9.43,0,0,1,216,72.09Zm-10.18-8.34c-3.12,0-5.44,3-5.44,8.15,0,4.28,1.94,8.9,6.1,8.9s5.45-4.34,5.45-8C211.89,68.84,210.28,63.75,205.78,63.75Z"/><path class="cls-1" d="M220.36,68c0-1.84,0-2.08-1.28-2.92l-.42-.29a.64.64,0,0,1,0-.84,36.43,36.43,0,0,0,4.78-2.31c.24,0,.38.14.38.33v2.73c0,.24,0,.38.14.42,1.66-1.36,3.46-2.82,5.21-2.82a2,2,0,0,1,2.13,1.88,2.09,2.09,0,0,1-2,2.17,1.85,1.85,0,0,1-1.05-.33,3.89,3.89,0,0,0-2.08-.75,2.09,2.09,0,0,0-1.7.94,7,7,0,0,0-.62,3.62v6.41c0,3.39.1,4,1.9,4.09l1.7.14a.82.82,0,0,1-.1,1.18c-2.22-.09-3.59-.14-5.25-.14s-3.12,0-4.35.14a.82.82,0,0,1-.1-1.18l.9-.14c1.75-.28,1.8-.7,1.8-4.09Z"/><path class="cls-1" d="M260.21,69.45c0-3.2-1.42-4.85-4.4-4.85a5.12,5.12,0,0,0-3.93,1.65c-.56.7-.71,1.17-.71,2.82v7.21c0,3.39.1,3.86,1.8,4.09l1,.14a.83.83,0,0,1-.1,1.18c-1.42-.09-2.79-.14-4.45-.14s-3,0-4.3.14a.82.82,0,0,1-.1-1.18l.85-.14c1.75-.28,1.8-.7,1.8-4.09V69.45c0-3.16-1.42-4.85-4.35-4.85a5.12,5.12,0,0,0-4,1.69,3.69,3.69,0,0,0-.71,2.69v7.3c0,3.39.1,3.81,1.8,4.09l.85.14a.83.83,0,0,1-.09,1.18c-1.28-.09-2.65-.14-4.31-.14s-3.12,0-4.59.14a.83.83,0,0,1-.1-1.18l1.14-.14c1.75-.23,1.8-.7,1.8-4.09V68c0-1.84,0-2.08-1.28-2.92l-.43-.29a.63.63,0,0,1,.05-.84,25.56,25.56,0,0,0,4.73-2.31.56.56,0,0,1,.53.33,22.12,22.12,0,0,0-.1,2.21.5.5,0,0,0,.52.52,11.41,11.41,0,0,1,6.3-2.4,5.4,5.4,0,0,1,5,2.78,1.54,1.54,0,0,0,1.19-.38,11.86,11.86,0,0,1,6.43-2.4c3.79,0,5.64,2.59,5.64,5.84v8.1c0,3.39.09,3.86,1.8,4.09l1.13.14a.83.83,0,0,1-.09,1.18c-1.57-.09-2.94-.14-4.59-.14s-3,0-4.31.14a.83.83,0,0,1-.1-1.18l.86-.14c1.75-.28,1.79-.7,1.79-4.09Z"/><path class="cls-1" d="M279,71.8c.71-.23.8-.66.8-1.36l.05-2.17c.05-1.74-.52-4.1-3.45-4.1-1.33,0-2.94.66-3,2.12-.05.76-.1,1.32-.48,1.61a5.12,5.12,0,0,1-2.69.89.6.6,0,0,1-.67-.66c0-2.45,5.35-5.79,8.81-5.79s5.06,2,4.92,5.51L282.94,76c-.1,2.17.33,4.1,2.17,4.1a2.78,2.78,0,0,0,1.19-.28,1.77,1.77,0,0,1,.61-.33c.19,0,.33.28.33.61a5,5,0,0,1-4,2.07,3.78,3.78,0,0,1-3.08-1.46c-.19-.28-.47-.66-.76-.66a7.26,7.26,0,0,0-1.84.94,7,7,0,0,1-3.41,1.18,4.93,4.93,0,0,1-3.31-1.08,4.4,4.4,0,0,1-1.47-3.3c0-1.84.9-2.92,3.93-4ZM276,80.09a5.36,5.36,0,0,0,2.88-1.18c.57-.56.57-1.22.62-2.21l.09-2.78c0-.52-.19-.61-.47-.61a9.14,9.14,0,0,0-1.94.47c-2.79.94-4.17,1.65-4.17,3.49A2.85,2.85,0,0,0,276,80.09Z"/><path class="cls-1" d="M294.44,65c-.81,0-.85.14-.85,1.13v8.8c0,2.73.33,5.23,3.45,5.23a3.65,3.65,0,0,0,1.28-.24c.43-.14,1-.66,1.18-.66.38,0,.57.52.48.8a6.57,6.57,0,0,1-5,2.17c-4.07,0-4.93-2.26-4.93-5.09V66.34c0-1.27,0-1.36-1-1.36h-1.32a.78.78,0,0,1-.15-1,9.52,9.52,0,0,0,3-1.46,11.59,11.59,0,0,0,2-2.78c.24-.1.81-.1,1,.23V62.1c0,.85.05.9.86.9h5.25a1.51,1.51,0,0,1,.05,2Z"/><path class="cls-1" d="M305.09,68c0-1.84,0-2.08-1.28-2.92l-.42-.29a.64.64,0,0,1,0-.84,32.62,32.62,0,0,0,4.88-2.31.44.44,0,0,1,.47.28c-.09,1.65-.19,3.91-.19,5.84v8.48c0,3.39.1,3.86,1.8,4.09l1,.14a.82.82,0,0,1-.09,1.18c-1.42-.09-2.79-.14-4.45-.14s-3.12,0-4.45.14a.83.83,0,0,1-.09-1.18l1-.14c1.75-.23,1.8-.7,1.8-4.09ZM309,54.62a2.46,2.46,0,0,1-4.92.09,2.45,2.45,0,0,1,2.55-2.54A2.36,2.36,0,0,1,309,54.62Z"/><path class="cls-1" d="M333,72.09C333,78,329,82.21,323,82.21a9.33,9.33,0,0,1-9.7-9.7,9.92,9.92,0,0,1,10.08-10.17A9.43,9.43,0,0,1,333,72.09Zm-10.18-8.34c-3.12,0-5.44,3-5.44,8.15,0,4.28,1.94,8.9,6.1,8.9s5.45-4.34,5.45-8C329,68.84,327.34,63.75,322.84,63.75Z"/><path class="cls-1" d="M337.42,68c0-1.84,0-2.08-1.28-2.92l-.42-.29a.64.64,0,0,1,0-.84,26,26,0,0,0,4.74-2.31A.55.55,0,0,1,341,62a22.12,22.12,0,0,0-.1,2.21.5.5,0,0,0,.52.52c2-1.22,4.22-2.4,6.63-2.4,3.93,0,5.54,2.68,5.54,5.84v8.1c0,3.39.09,3.86,1.8,4.09l1,.14a.82.82,0,0,1-.1,1.18c-1.42-.09-2.79-.14-4.45-.14s-3.12,0-4.4.14a.83.83,0,0,1-.09-1.18l.9-.14c1.75-.28,1.8-.7,1.8-4.09v-7c0-2.68-1.23-4.66-4.45-4.66a5.18,5.18,0,0,0-4,1.65,4,4,0,0,0-.71,2.82v7.21c0,3.39.1,3.81,1.8,4.09l.85.14a.82.82,0,0,1-.09,1.18c-1.28-.09-2.65-.14-4.31-.14s-3.12,0-4.45.14a.83.83,0,0,1-.09-1.18l1-.14c1.75-.23,1.8-.7,1.8-4.09Z"/><path class="cls-1" d="M401.94,73.55c0,1.41,0,7,.14,8.24a.85.85,0,0,1-.9.51c-.57-.8-1.94-2.44-6.06-7.11l-11-12.43c-1.28-1.46-4.5-5.32-5.49-6.36h-.09a11.91,11.91,0,0,0-.24,3.07V69.73c0,2.21.05,8.34.85,9.75.29.52,1.23.8,2.41.89l1.47.14a.86.86,0,0,1-.09,1.18c-2.13-.09-3.79-.14-5.54-.14-2,0-3.27,0-4.92.14a.88.88,0,0,1-.1-1.18l1.28-.14c1.09-.14,1.85-.42,2.08-.94.67-1.69.62-7.44.62-9.7V56.12a4.32,4.32,0,0,0-1-3.39,5.16,5.16,0,0,0-2.94-1.13l-.8-.09a.82.82,0,0,1,.09-1.18c2,.14,4.5.14,5.35.14a16.09,16.09,0,0,0,2.18-.14c.95,2.4,6.53,8.62,8.09,10.36l4.59,5.13c3.27,3.63,5.59,6.27,7.81,8.53h.1a4.73,4.73,0,0,0,.19-2V62.29c0-2.21-.05-8.33-.95-9.75-.28-.42-1-.7-2.93-.94l-.81-.09c-.33-.28-.28-1,.1-1.18,2.17.09,3.78.14,5.58.14,2,0,3.27,0,4.88-.14a.82.82,0,0,1,.09,1.18l-.66.09c-1.52.24-2.46.61-2.65,1-.81,1.7-.71,7.53-.71,9.7Z"/><path class="cls-1" d="M411.26,69.5c-1.23,0-1.27.09-1.27,1.27,0,4.75,2.79,8.8,7.85,8.8a5.12,5.12,0,0,0,4.36-2.3.62.62,0,0,1,.85.56,8.28,8.28,0,0,1-7.43,4.38,8.48,8.48,0,0,1-6.86-3.11,10,10,0,0,1-2-6.12c0-5.79,3.83-10.64,9.51-10.64,4.07,0,6.72,2.78,6.72,5.6a2.84,2.84,0,0,1-.19,1.23c-.14.28-.8.33-2.79.33Zm2.94-1.42c3.5,0,4.54-.18,4.92-.47.14-.09.29-.28.29-.89,0-1.32-.9-3-3.65-3s-5.21,2.54-5.25,4.1c0,.09,0,.23.33.23Z"/><path class="cls-1" d="M433.32,65c-.8,0-.85.14-.85,1.13v8.8c0,2.73.33,5.23,3.46,5.23a3.69,3.69,0,0,0,1.28-.24c.42-.14,1-.66,1.18-.66.38,0,.57.52.47.8a6.55,6.55,0,0,1-5,2.17c-4.07,0-4.92-2.26-4.92-5.09V66.34c0-1.27-.05-1.36-1-1.36h-1.32a.79.79,0,0,1-.14-1,9.75,9.75,0,0,0,3-1.46,12.17,12.17,0,0,0,2-2.78c.23-.1.8-.1,1,.23V62.1c0,.85.05.9.85.9h5.25a1.5,1.5,0,0,1,.05,2Z"/><path class="cls-1" d="M443.83,67.56c-1.09-2.63-1.65-3.1-2.84-3.39l-.75-.18c-.24-.24-.29-1,.14-1.13,1.46.09,2.79.14,4.21.14s2.84,0,4.12-.14A.73.73,0,0,1,448.8,64l-1.09.18c-.66.1-1,.38-1,.66a9.6,9.6,0,0,0,.76,2.45l2.93,7.21c.43,1.08.86,1.93.86,2a10.2,10.2,0,0,0,1.08-2.26l2.32-5.7c.62-1.5.67-2.11.43-2.73a2.68,2.68,0,0,0-2.18-1.65l-.75-.18a.73.73,0,0,1,.14-1.13c1.18.09,2.7.14,3.93.14,1.46,0,2.88,0,4.49-.14.43.14.43.89.14,1.13l-1,.18c-1.89.38-1.8.52-1.23,2.17s3.08,7.53,3.6,8.81a4.82,4.82,0,0,0,.61,1.31,7.28,7.28,0,0,0,.67-1.31c.61-1.37,2.5-6.36,3.21-8.34a6.72,6.72,0,0,0,.48-2c0-.29-.29-.52-.85-.62L465.13,64a.73.73,0,0,1,.05-1.13c1.37.09,2.56.14,3.74.14.9,0,2,0,3.08-.14a.78.78,0,0,1,.14,1.13l-.95.18c-1.14.24-1.56.9-2.56,3-1.27,2.64-3.55,8.29-4.44,10.69-.67,1.7-1.23,3.06-1.61,4.29a1,1,0,0,1-.62.18.71.71,0,0,1-.52-.18c-.28-.85-1.14-3.3-1.94-5.18l-2.27-5.42a22.47,22.47,0,0,0-1.09-2.4,21.28,21.28,0,0,0-1,2.31l-2.46,5.88c-.86,2-1.52,3.72-1.9,4.81a.76.76,0,0,1-.57.18.82.82,0,0,1-.56-.18c-.29-1-1-2.92-1.42-3.91Z"/><path class="cls-1" d="M491.92,72.09c0,5.88-4.07,10.12-10,10.12a9.33,9.33,0,0,1-9.71-9.7,9.93,9.93,0,0,1,10.09-10.17A9.42,9.42,0,0,1,491.92,72.09Zm-10.17-8.34c-3.13,0-5.45,3-5.45,8.15,0,4.28,1.95,8.9,6.11,8.9s5.44-4.34,5.44-8C487.85,68.84,486.24,63.75,481.75,63.75Z"/><path class="cls-1" d="M496.33,68c0-1.84,0-2.08-1.28-2.92l-.43-.29a.63.63,0,0,1,.05-.84,36.43,36.43,0,0,0,4.78-2.31c.24,0,.38.14.38.33v2.73c0,.24.05.38.14.42,1.66-1.36,3.46-2.82,5.21-2.82a2,2,0,0,1,2.13,1.88,2.1,2.1,0,0,1-2,2.17,1.81,1.81,0,0,1-1-.33,3.89,3.89,0,0,0-2.08-.75,2.07,2.07,0,0,0-1.7.94,7,7,0,0,0-.62,3.62v6.41c0,3.39.1,4,1.89,4.09l1.71.14a.82.82,0,0,1-.1,1.18c-2.22-.09-3.59-.14-5.25-.14s-3.12,0-4.36.14a.83.83,0,0,1-.09-1.18l.9-.14c1.75-.28,1.8-.7,1.8-4.09Z"/><path class="cls-1" d="M511.29,55c0-2.78-.05-3.06-1.47-3.91l-.47-.28a.7.7,0,0,1,0-.94,33.88,33.88,0,0,0,5.11-2,.52.52,0,0,1,.47.28c0,1.42-.14,3.77-.14,5.84V70.15c0,.62.05.71.85.71,1,0,1.94-.52,3.22-1.84L520.8,67c1.33-1.41,1.66-1.93,1.66-2.16s-.24-.38-1-.47l-1.14-.15a.69.69,0,0,1,0-1.17h1.09a75.12,75.12,0,0,0,7.52-.38c.34.14.38.94.1,1.18l-1.52.28a6.89,6.89,0,0,0-3,1.65c-1.84,1.46-3.45,3.15-4.31,4-.56.52-.61.76-.33,1.13.81,1.09,1.57,2,3.18,3.77,1.84,2.07,3.5,3.91,4.44,4.8a4.74,4.74,0,0,0,2.47,1l.66.09c.33.24.28,1-.1,1.18-1.37-.09-3-.14-4.49-.14-1.9,0-3.55,0-4.93.14a.8.8,0,0,1-.09-1.18l.85-.14c.71-.09,1.19-.18,1.19-.47s-.19-.61-.81-1.32l-5.06-5.84a1.93,1.93,0,0,0-1.47-.65c-.85,0-.9.14-.9,1.6v2.59c0,3.39.09,3.86,1.8,4.09l1.13.14a.83.83,0,0,1-.09,1.18c-1.56-.09-2.94-.14-4.59-.14s-3.13,0-4.55.14a.78.78,0,0,1,0-1.18l1-.14c1.75-.23,1.8-.7,1.8-4.09Z"/><path class="cls-2" d="M233.21,122.37V96.74h1.35v25.63Z"/><path class="cls-2" d="M4.44,107.18c0-4.12,0-4.85-.06-5.7s-.26-1.32-1.13-1.5a4.37,4.37,0,0,0-.9-.08c-.1,0-.21-.06-.21-.16s.13-.21.42-.21c.61,0,1.32,0,1.9,0l1.08.06c.19,0,5.44,0,6.05,0a7.86,7.86,0,0,0,1.13-.13c.14,0,.24-.13.37-.13s.11.1.11.23-.13.51-.21,1.24c0,.27-.08,1.43-.13,1.75,0,.13-.08.29-.19.29s-.21-.14-.21-.35a2.92,2.92,0,0,0-.16-1c-.18-.42-.45-.74-1.87-.89-.45-.06-3.33-.08-3.62-.08-.1,0-.16.08-.16.26v7.29c0,.18,0,.26.16.26.34,0,3.59,0,4.2-.05s1-.11,1.24-.37.29-.35.39-.35.14.06.14.21-.14.61-.22,1.48c-.05.53-.1,1.51-.1,1.69s0,.5-.19.5-.18-.1-.18-.23a2.56,2.56,0,0,0-.11-.87c-.1-.37-.34-.82-1.37-.93-.71-.08-3.32-.13-3.77-.13a.17.17,0,0,0-.19.18v2.33c0,.9,0,4,0,4.51.08,1.82.48,2.17,3.06,2.17a7.37,7.37,0,0,0,2.54-.3c.68-.28,1-.81,1.19-1.9.05-.29.1-.39.23-.39s.16.21.16.39-.21,2-.34,2.56-.4.69-1.43.69c-2,0-3.43,0-4.46-.08s-1.66-.08-2.06-.08c0,0-.5,0-1,0s-1.14,0-1.53,0-.42,0-.42-.21,0-.16.21-.16a4.38,4.38,0,0,0,.79-.1c.53-.11.66-.69.76-1.45.14-1.11.14-3.2.14-5.73Z"/><path class="cls-2" d="M22.94,103c.29-.74.39-.87.55-.87s.32.31.55.82c.43,1,4.15,10.21,5.57,13.61.85,2,1.48,2.3,2,2.46a3.12,3.12,0,0,0,.93.13c.13,0,.29,0,.29.19s-.27.18-.53.18-2.06,0-3.67,0c-.45,0-.82,0-.82-.16s.06-.11.16-.16a.42.42,0,0,0,.21-.6l-2.08-5.15c-.06-.11-.08-.13-.21-.13H20.51a.24.24,0,0,0-.24.18L19,117a4.69,4.69,0,0,0-.34,1.51c0,.44.39.6.79.6h.21c.19,0,.24.08.24.19s-.14.18-.35.18c-.55,0-1.82-.08-2.08-.08s-1.4.08-2.35.08c-.29,0-.45,0-.45-.18a.21.21,0,0,1,.21-.19,5.75,5.75,0,0,0,.69,0c1.05-.13,1.5-.92,1.95-2.06Zm2.58,9.34c.11,0,.11,0,.08-.16L23.3,106q-.19-.51-.39,0l-2.16,6.15c0,.11,0,.16.07.16Z"/><path class="cls-2" d="M35.34,109c0-3.48,0-4.11-.05-4.83s-.19-1.13-.95-1.24c-.19,0-.58-.05-.8-.05a.22.22,0,0,1-.18-.19c0-.13.1-.18.37-.18,1.05,0,2.61,0,2.74,0s2.19,0,2.91,0a7.58,7.58,0,0,1,4.33,1,3.92,3.92,0,0,1,1.61,3.06c0,1.66-.69,3.27-2.85,5.12,1.89,2.38,3.51,4.41,4.85,5.81A4.27,4.27,0,0,0,49.91,119a4.2,4.2,0,0,0,.82.08.21.21,0,0,1,.21.19c0,.13-.13.18-.56.18H48.93a4.64,4.64,0,0,1-2.48-.45c-1-.52-1.85-1.61-3.17-3.3-1-1.21-2-2.66-2.5-3.27a.38.38,0,0,0-.32-.13l-3,0c-.1,0-.16,0-.16.18V113c0,2.16,0,3.91.11,4.83.08.66.21,1.08.92,1.19a9.07,9.07,0,0,0,1,.1.17.17,0,0,1,.19.19c0,.1-.11.18-.37.18-1.27,0-2.75-.08-2.85-.08s-1.59.08-2.3.08c-.24,0-.37,0-.37-.18a.19.19,0,0,1,.19-.19,3.47,3.47,0,0,0,.71-.1c.45-.11.5-.53.61-1.19a46.48,46.48,0,0,0,.13-4.86Zm2,1.9a.34.34,0,0,0,.16.29,7.71,7.71,0,0,0,2.56.35,3,3,0,0,0,1.75-.4,4,4,0,0,0,1.39-3.43c0-2.8-1.53-4.41-4-4.41a10.57,10.57,0,0,0-1.66.13.3.3,0,0,0-.19.27Z"/><path class="cls-2" d="M56.4,113c0,2.17,0,3.94.11,4.86.07.66.18,1.08.89,1.19a9.52,9.52,0,0,0,1.06.1c.16,0,.18.11.18.19s-.1.18-.37.18c-1.26,0-2.74-.08-2.87-.08s-1.72.08-2.4.08c-.27,0-.37,0-.37-.18a.16.16,0,0,1,.18-.16,2.76,2.76,0,0,0,.69-.11c.47-.1.6-.55.68-1.21.11-.92.11-2.69.11-4.86v-9.42l-3.35,0c-1.46,0-2,.19-2.35.72a3.19,3.19,0,0,0-.37.71c-.06.18-.13.21-.24.21a.18.18,0,0,1-.16-.19c0-.23.48-2.24.5-2.42s.16-.43.24-.43a8,8,0,0,0,1,.27c.66.08,1.56.1,1.82.1h8.76a12.25,12.25,0,0,0,1.67-.1,6.5,6.5,0,0,1,.66-.11c.1,0,.1.13.1.27,0,.68-.08,2.29-.08,2.56s-.1.29-.21.29-.16-.08-.18-.4l0-.24c-.08-.68-.58-1.18-2.8-1.24l-2.9,0Z"/><path class="cls-2" d="M80,113c0,2.17,0,3.94.13,4.86.08.66.13,1.08.85,1.19a9.28,9.28,0,0,0,1,.1.19.19,0,0,1,.21.19c0,.1-.14.18-.4.18-1.26,0-2.74-.08-2.88-.08s-1.61.08-2.29.08c-.27,0-.37,0-.37-.18a.18.18,0,0,1,.18-.19,3.28,3.28,0,0,0,.69-.1c.48-.11.55-.56.63-1.22.11-.92.11-2.61.11-4.77v-2.25c0-.1,0-.13-.13-.13H68.09c-.08,0-.13,0-.13.13V113c0,2.16,0,3.88.1,4.8.08.66.16,1.08.85,1.19a9.82,9.82,0,0,0,1,.1.18.18,0,0,1,.19.19c0,.1-.11.18-.37.18-1.29,0-2.77-.08-2.88-.08s-1.61.08-2.32.08c-.24,0-.37,0-.37-.18a.18.18,0,0,1,.19-.19,3.47,3.47,0,0,0,.71-.1c.45-.11.5-.53.6-1.19a43.17,43.17,0,0,0,.14-4.86v-4c0-3.48,0-4.11-.06-4.83s-.18-1.13-1-1.24c-.18,0-.58-.05-.79-.05a.22.22,0,0,1-.18-.19c0-.13.1-.18.37-.18,1.05,0,2.53,0,2.66,0s1.59,0,2.3,0c.26,0,.37,0,.37.18a.23.23,0,0,1-.19.19,2.79,2.79,0,0,0-.58.05c-.63.13-.76.45-.82,1.24s0,1.4,0,4.89v.47c0,.13.05.13.13.13h9.69c.08,0,.13,0,.13-.13v-.47c0-3.49,0-4.17,0-4.89s-.16-1.13-.93-1.24c-.18,0-.58-.05-.79-.05a.2.2,0,0,1-.18-.19c0-.13.1-.18.36-.18,1,0,2.54,0,2.64,0s1.62,0,2.3,0c.26,0,.4,0,.4.18a.23.23,0,0,1-.21.19,3,3,0,0,0-.59.05c-.6.13-.73.45-.79,1.24s0,1.35,0,4.83Z"/><path class="cls-2" d="M98.54,111.83c0,2.53,0,4.62.14,5.73.08.76.23,1.34,1,1.45.37,0,1,.1,1.18.1s.21.08.21.16-.13.21-.42.21c-1.45,0-3.11-.08-3.24-.08s-1.8.08-2.59.08c-.29,0-.42,0-.42-.21s0-.16.21-.16a4.27,4.27,0,0,0,.79-.1c.53-.11.66-.69.77-1.45.13-1.11.13-3.2.13-5.73v-4.65c0-4.12,0-4.85-.06-5.7s-.31-1.35-.89-1.48a3.41,3.41,0,0,0-.82-.1c-.11,0-.21-.06-.21-.16s.13-.21.42-.21c.87,0,2.53.08,2.67.08s1.79-.08,2.58-.08c.29,0,.42,0,.42.21s-.1.16-.21.16a3.36,3.36,0,0,0-.66.08c-.71.13-.92.58-1,1.5s-.06,1.58-.06,5.7Z"/><path class="cls-2" d="M106.2,116.42c0,1.85.26,2.4.9,2.56a5.2,5.2,0,0,0,1.16.13.18.18,0,0,1,.18.19c0,.13-.16.18-.42.18-1.32,0-2.24-.08-2.46-.08s-1.18.08-2.24.08c-.24,0-.37,0-.37-.18a.18.18,0,0,1,.19-.19,3.51,3.51,0,0,0,1-.13c.58-.16.66-.77.66-2.8V103.33c0-.9.13-1.14.31-1.14s.66.45.9.69,3.75,4,7.34,7.65c2.29,2.38,4.77,5,5.49,5.78l-.24-11.24c0-1.45-.16-1.95-.87-2.08a7.43,7.43,0,0,0-1.14-.11c-.15,0-.18-.13-.18-.21s.18-.16.45-.16c1,0,2.16,0,2.43,0s1,0,2,0c.23,0,.42,0,.42.16a.26.26,0,0,1-.26.21,2.78,2.78,0,0,0-.56.05c-.77.16-.82.61-.82,2L120,118c0,1.48,0,1.61-.19,1.61s-.47-.18-1.76-1.37c-.24-.21-3.59-3.51-6-6.07-2.69-2.83-5.3-5.57-6-6.36Z"/><path class="cls-2" d="M123.67,119.16c-.32-.15-.34-.23-.34-.84,0-1.11.1-2,.13-2.37s.05-.37.18-.37.21.07.21.26a3.38,3.38,0,0,0,.08.82c.37,1.63,2.11,2.21,3.67,2.21,2.3,0,3.49-1.29,3.49-3s-.88-2.37-2.93-3.9l-1.06-.8c-2.51-1.87-3.33-3.24-3.33-4.8,0-2.64,2.09-4.22,5.15-4.22a11.38,11.38,0,0,1,2.4.26,2.93,2.93,0,0,0,.82.11c.19,0,.24,0,.24.15a23.13,23.13,0,0,0-.11,2.38c0,.34,0,.5-.18.5s-.19-.1-.21-.29a4.09,4.09,0,0,0-.35-1.11c-.15-.26-.92-1.11-3-1.11-1.68,0-3.08.85-3.08,2.43s.71,2.25,3,3.8l.66.45c2.82,1.93,3.8,3.49,3.8,5.41a4.37,4.37,0,0,1-2.17,3.83,7.13,7.13,0,0,1-3.69.79A8.49,8.49,0,0,1,123.67,119.16Z"/><path class="cls-2" d="M142.94,113c0,2.17,0,3.94.1,4.86.08.66.19,1.08.9,1.19a9.16,9.16,0,0,0,1.05.1.17.17,0,0,1,.19.19c0,.1-.11.18-.37.18-1.27,0-2.75-.08-2.88-.08s-1.71.08-2.4.08c-.26,0-.37,0-.37-.18a.16.16,0,0,1,.18-.16A2.69,2.69,0,0,0,140,119c.48-.1.61-.55.69-1.21.1-.92.1-2.69.1-4.86v-9.42l-3.35,0c-1.45,0-2,.19-2.35.72a3.73,3.73,0,0,0-.37.71c-.05.18-.13.21-.23.21a.17.17,0,0,1-.16-.19c0-.23.47-2.24.5-2.42s.16-.43.24-.43a7.2,7.2,0,0,0,1,.27c.67.08,1.56.1,1.83.1h8.76a12.2,12.2,0,0,0,1.66-.1c.34-.06.56-.11.66-.11s.11.13.11.27c0,.68-.08,2.29-.08,2.56s-.11.29-.21.29-.16-.08-.19-.4l0-.24c-.08-.68-.59-1.18-2.8-1.24l-2.9,0Z"/><path class="cls-2" d="M155,113c0,2.17,0,3.94.11,4.86.08.66.15,1.08.84,1.19a10,10,0,0,0,1.06.1.18.18,0,0,1,.18.19c0,.1-.1.18-.37.18-1.29,0-2.8-.08-2.9-.08s-1.59.08-2.3.08c-.24,0-.37,0-.37-.18a.19.19,0,0,1,.19-.19,3.47,3.47,0,0,0,.71-.1c.45-.11.53-.53.61-1.19.1-.92.13-2.69.13-4.86v-4c0-3.48,0-4.11,0-4.83s-.24-1.11-.74-1.21a4.6,4.6,0,0,0-.72-.08.2.2,0,0,1-.18-.19c0-.13.11-.18.37-.18.76,0,2.22,0,2.35,0s1.61,0,2.32,0c.26,0,.37,0,.37.18a.24.24,0,0,1-.18.19,2.7,2.7,0,0,0-.58.05c-.64.13-.77.45-.82,1.24s0,1.35,0,4.83Z"/><path class="cls-2" d="M167.19,113c0,2.17,0,3.94.1,4.86.08.66.19,1.08.9,1.19a9.31,9.31,0,0,0,1.06.1.17.17,0,0,1,.18.19c0,.1-.11.18-.37.18-1.27,0-2.74-.08-2.88-.08s-1.71.08-2.4.08c-.26,0-.37,0-.37-.18a.17.17,0,0,1,.19-.16,2.68,2.68,0,0,0,.68-.11c.48-.1.61-.55.69-1.21.11-.92.11-2.69.11-4.86v-9.42l-3.36,0c-1.45,0-2,.19-2.34.72a3.41,3.41,0,0,0-.38.71c-.05.18-.13.21-.23.21a.18.18,0,0,1-.16-.19c0-.23.47-2.24.5-2.42s.16-.43.24-.43a7.54,7.54,0,0,0,1,.27c.66.08,1.55.1,1.82.1H171a12.08,12.08,0,0,0,1.66-.1c.35-.06.56-.11.66-.11s.11.13.11.27c0,.68-.08,2.29-.08,2.56s-.1.29-.21.29-.16-.08-.19-.4l0-.24c-.08-.68-.58-1.18-2.8-1.24l-2.9,0Z"/><path class="cls-2" d="M176.5,109c0-3.48,0-4.11-.05-4.83s-.19-1.13-.95-1.24c-.19,0-.58-.05-.79-.05a.23.23,0,0,1-.19-.19c0-.13.11-.18.37-.18,1.06,0,2.46,0,2.67,0s1.66,0,2.35,0c.26,0,.39,0,.39.18a.22.22,0,0,1-.21.19,2.84,2.84,0,0,0-.58.05c-.61.11-.74.5-.79,1.24s-.05,1.35-.05,4.83v3.14c0,3.25.71,4.6,1.71,5.49a4.54,4.54,0,0,0,3.46,1.22,4.76,4.76,0,0,0,3.59-1.59c1.08-1.29,1.32-3.14,1.32-5.43V109c0-3.48,0-4.11-.05-4.83s-.16-1.13-.93-1.24c-.18,0-.58-.05-.79-.05a.2.2,0,0,1-.18-.19c0-.13.1-.18.37-.18,1,0,2.37,0,2.5,0s1.27,0,2,0c.26,0,.37,0,.37.18a.2.2,0,0,1-.19.19,2.84,2.84,0,0,0-.58.05c-.63.13-.77.5-.82,1.24s0,1.35,0,4.83v2.4c0,2.43-.32,5.15-2.17,6.74a7,7,0,0,1-4.86,1.63,7.22,7.22,0,0,1-4.82-1.58c-1.14-1.06-2-2.61-2-5.89Z"/><path class="cls-2" d="M201.55,113c0,2.17,0,3.94.1,4.86.08.66.19,1.08.9,1.19a9.52,9.52,0,0,0,1.06.1.17.17,0,0,1,.18.19c0,.1-.1.18-.37.18-1.26,0-2.74-.08-2.88-.08s-1.71.08-2.4.08c-.26,0-.37,0-.37-.18a.17.17,0,0,1,.19-.16,2.68,2.68,0,0,0,.68-.11c.48-.1.61-.55.69-1.21.11-.92.11-2.69.11-4.86v-9.42l-3.36,0c-1.45,0-2,.19-2.35.72a3.48,3.48,0,0,0-.36.71c-.06.18-.14.21-.24.21A.18.18,0,0,1,193,105c0-.23.48-2.24.5-2.42s.16-.43.24-.43a7.54,7.54,0,0,0,1,.27c.66.08,1.55.1,1.82.1h8.76a12,12,0,0,0,1.66-.1c.35-.06.56-.11.66-.11s.11.13.11.27c0,.68-.08,2.29-.08,2.56s-.1.29-.21.29-.16-.08-.18-.4l0-.24c-.08-.68-.58-1.18-2.8-1.24l-2.9,0Z"/><path class="cls-2" d="M211.52,109c0-3.48,0-4.11-.05-4.83s-.18-1.13-.95-1.24c-.18,0-.58-.05-.79-.05a.23.23,0,0,1-.19-.19c0-.13.11-.18.37-.18,1.06,0,2.56,0,2.69,0s5,0,5.55,0a8.36,8.36,0,0,0,1-.13,1.31,1.31,0,0,1,.32-.1c.08,0,.11.1.11.21a9.28,9.28,0,0,0-.19,1c0,.21-.08,1.22-.13,1.48s-.11.24-.21.24-.19-.11-.19-.29a2.3,2.3,0,0,0-.13-.79c-.16-.37-.39-.53-1.66-.69-.4-.05-3.09-.08-3.35-.08s-.14.08-.14.24v6.1c0,.15,0,.23.14.23s3.35,0,3.88,0,.89-.08,1.13-.32.26-.29.34-.29.14.06.14.19a10.59,10.59,0,0,0-.19,1.24c0,.45-.1,1.29-.1,1.45s-.06.42-.22.42-.15-.08-.15-.21a1.92,1.92,0,0,0-.11-.74c-.08-.32-.29-.58-1.19-.68-.63-.08-3.11-.11-3.51-.11a.14.14,0,0,0-.16.16V113c0,.77,0,3.38,0,3.83.06,1.5.48,1.79,2.78,1.79a8,8,0,0,0,2.32-.23,1.7,1.7,0,0,0,1.05-1.56c.06-.27.11-.34.24-.34s.16.18.16.34a16.88,16.88,0,0,1-.32,2.16c-.15.58-.39.58-1.29.58-1.74,0-3.09,0-4-.07s-1.58-.06-1.93-.06c0,0-.5,0-1,0s-1,0-1.34,0-.37,0-.37-.18a.18.18,0,0,1,.18-.19c.21,0,.5-.08.71-.1.45-.08.51-.53.61-1.19a46.48,46.48,0,0,0,.13-4.86Z"/><path class="cls-2" d="M250.21,117a10.1,10.1,0,0,1-3.19-7.81A10.58,10.58,0,0,1,250,102c1.59-1.58,4-2.82,8-2.82a22.37,22.37,0,0,1,3.83.32,23.26,23.26,0,0,0,2.69.39c.29,0,.35.13.35.29s-.08.53-.14,1.48-.05,2.32-.07,2.72-.08.55-.24.55-.21-.18-.21-.55a3.63,3.63,0,0,0-1.11-2.69,8.75,8.75,0,0,0-5.28-1.51c-3.51,0-5.15,1-6.07,1.93-1.93,1.85-2.38,4.19-2.38,6.89a9.53,9.53,0,0,0,9.53,9.66c2,0,3.54-.24,4.6-1.32a5,5,0,0,0,1-2.22c.05-.29.11-.4.26-.4s.19.19.19.4a28.39,28.39,0,0,1-.58,3.38c-.16.5-.21.55-.69.76a15,15,0,0,1-4.75.61C255,119.85,252.3,118.87,250.21,117Z"/><path class="cls-2" d="M276.42,102.19c5.22,0,9.18,3.2,9.18,8.42a9,9,0,0,1-9.31,9.16,8.61,8.61,0,0,1-9.08-8.81A8.89,8.89,0,0,1,276.42,102.19Zm.53,16.66c2.08,0,6.28-1.11,6.28-7.6,0-5.39-3.27-8.21-6.94-8.21-3.88,0-6.68,2.43-6.68,7.31C269.61,115.58,272.75,118.85,277,118.85Z"/><path class="cls-2" d="M291.51,113c0,3.29.06,4.64.48,5s1.27.52,3.09.52c1.21,0,2.24,0,2.8-.68a2.74,2.74,0,0,0,.55-1.27c0-.16.11-.29.24-.29s.16.11.16.34a13.75,13.75,0,0,1-.35,2.25c-.16.53-.24.6-1.48.6-1.66,0-2.95,0-4-.07s-1.84-.06-2.53-.06c-.1,0-.5,0-.95,0s-1,0-1.35,0-.36,0-.36-.18a.18.18,0,0,1,.18-.19,3.47,3.47,0,0,0,.71-.1c.45-.11.51-.53.61-1.19a46.48,46.48,0,0,0,.13-4.86v-4c0-3.48,0-4.11,0-4.83s-.18-1.13-1-1.24c-.19,0-.58-.05-.79-.05a.23.23,0,0,1-.19-.19c0-.13.11-.18.37-.18,1.06,0,2.51,0,2.64,0s1.85,0,2.56,0c.24,0,.37,0,.37.18a.19.19,0,0,1-.18.16c-.16,0-.5,0-.77.06-.68.13-.82.47-.87,1.26s0,1.35,0,4.83Z"/><path class="cls-2" d="M301.15,109c0-3.48,0-4.11-.06-4.83s-.18-1.13-.95-1.24c-.18,0-.58-.05-.79-.05a.22.22,0,0,1-.18-.19c0-.13.1-.18.37-.18,1,0,2.45,0,2.66,0s1.66,0,2.35,0c.27,0,.4,0,.4.18a.23.23,0,0,1-.21.19,2.79,2.79,0,0,0-.58.05c-.61.11-.74.5-.8,1.24s-.05,1.35-.05,4.83v3.14c0,3.25.71,4.6,1.72,5.49a4.53,4.53,0,0,0,3.46,1.22,4.76,4.76,0,0,0,3.58-1.59c1.09-1.29,1.32-3.14,1.32-5.43V109c0-3.48,0-4.11-.05-4.83s-.16-1.13-.92-1.24c-.19,0-.58-.05-.79-.05a.2.2,0,0,1-.19-.19c0-.13.11-.18.37-.18,1,0,2.38,0,2.51,0s1.26,0,1.95,0c.27,0,.37,0,.37.18a.2.2,0,0,1-.18.19,2.84,2.84,0,0,0-.58.05c-.64.13-.77.5-.82,1.24s0,1.35,0,4.83v2.4c0,2.43-.32,5.15-2.16,6.74a7,7,0,0,1-4.86,1.63,7.24,7.24,0,0,1-4.83-1.58c-1.14-1.06-2-2.61-2-5.89Z"/><path class="cls-2" d="M337.59,116.58c.08.79.24,2,1.19,2.32a4.94,4.94,0,0,0,1.51.21c.1,0,.18,0,.18.16s-.21.21-.47.21c-.53,0-3.12,0-4-.13-.56,0-.66-.13-.66-.24a.18.18,0,0,1,.16-.18c.13,0,.15-.37.1-.79l-1.11-11.35h0l-5.59,11.45c-.48,1-.61,1.19-.82,1.19s-.34-.21-.79-1c-.61-1.11-2.14-4-2.72-5.2-.69-1.43-2.56-5.2-3-6.12h-.11l-.89,10.13c0,.35,0,.77,0,1.14a.63.63,0,0,0,.56.63,3.44,3.44,0,0,0,.89.13c.08,0,.19.08.19.16s-.16.21-.42.21c-.88,0-2-.08-2.17-.08s-1.32.08-1.95.08c-.24,0-.4,0-.4-.21s.11-.16.24-.16a3.7,3.7,0,0,0,.68-.08c.77-.13.8-1,.9-1.79l1.69-14.65c0-.24.13-.4.26-.4a.53.53,0,0,1,.48.35l7,13.93,6.76-13.91c.1-.21.21-.37.37-.37s.29.19.34.61Z"/><path class="cls-2" d="M343.53,109c0-3.48,0-4.11,0-4.83s-.19-1.18-1-1.29a6.7,6.7,0,0,0-.79,0c-.08,0-.19-.06-.19-.14s.11-.18.37-.18c1.06,0,2.56,0,2.69,0,.56,0,1.64,0,2.72,0,3.88,0,4.88,2.24,4.88,3.43,0,1.77-1.16,2.88-2.34,3.93,1.76.53,4.09,2.14,4.09,4.68s-1.88,5-5.84,5c-.42,0-1.26,0-2-.07l-1.51-.06c-.05,0-.47,0-.95,0s-1,0-1.4,0-.36,0-.36-.18.05-.14.18-.14a5.77,5.77,0,0,0,.71-.1c.45-.08.5-.58.61-1.24a46.48,46.48,0,0,0,.13-4.86Zm2,.48c0,.16,0,.21.15.24a8.28,8.28,0,0,0,1.43.1c1.3,0,1.8,0,2.27-.58a3.44,3.44,0,0,0,.9-2.4c0-1.72-1-3.62-3.28-3.62a6.72,6.72,0,0,0-1.18.11c-.21,0-.29.1-.29.24Zm0,2.48c0,1.74,0,4.43,0,4.78.08,1.08.08,1.34.8,1.69a5.49,5.49,0,0,0,2,.31c1.53,0,3.4-.58,3.4-3.46a4.91,4.91,0,0,0-2.21-4.09,5.06,5.06,0,0,0-2.09-.58c-.29,0-1.45,0-1.82,0-.08,0-.13,0-.13.16Z"/><path class="cls-2" d="M360,113c0,2.17,0,3.94.11,4.86.07.66.15,1.08.84,1.19a9.82,9.82,0,0,0,1.05.1.18.18,0,0,1,.19.19c0,.1-.11.18-.37.18-1.29,0-2.8-.08-2.9-.08s-1.59.08-2.3.08c-.24,0-.37,0-.37-.18a.18.18,0,0,1,.19-.19,3.47,3.47,0,0,0,.71-.1c.45-.11.53-.53.61-1.19.1-.92.13-2.69.13-4.86v-4c0-3.48,0-4.11-.06-4.83s-.23-1.11-.74-1.21a4.37,4.37,0,0,0-.71-.08.2.2,0,0,1-.18-.19c0-.13.1-.18.37-.18.76,0,2.22,0,2.35,0s1.61,0,2.32,0c.26,0,.37,0,.37.18a.23.23,0,0,1-.19.19,2.79,2.79,0,0,0-.58.05c-.63.13-.76.45-.82,1.24s0,1.35,0,4.83Z"/><path class="cls-2" d="M371.16,103c.29-.74.4-.87.56-.87s.31.31.55.82c.42,1,4.15,10.21,5.57,13.61.85,2,1.48,2.3,2,2.46a3.06,3.06,0,0,0,.92.13c.14,0,.29,0,.29.19s-.26.18-.52.18-2.06,0-3.67,0c-.45,0-.82,0-.82-.16s.05-.11.16-.16a.42.42,0,0,0,.21-.6l-2.09-5.15c-.05-.11-.07-.13-.21-.13h-5.36a.24.24,0,0,0-.23.18L367.18,117a4.48,4.48,0,0,0-.35,1.51c0,.44.4.6.79.6h.22c.18,0,.23.08.23.19s-.13.18-.34.18c-.55,0-1.82-.08-2.08-.08s-1.4.08-2.35.08c-.29,0-.45,0-.45-.18a.2.2,0,0,1,.21-.19,5.45,5.45,0,0,0,.68,0c1.06-.13,1.51-.92,2-2.06Zm2.59,9.34c.1,0,.1,0,.08-.16l-2.3-6.15q-.19-.51-.39,0L369,112.14c0,.11,0,.16.08.16Z"/><path class="cls-2" d="M390.69,107.18c0-4.12,0-4.85-.05-5.7s-.27-1.32-1.14-1.5a4.34,4.34,0,0,0-.89-.08c-.11,0-.22-.06-.22-.16s.14-.21.43-.21c1.18,0,2.79.08,3,.08s1.82-.08,2.61-.08c.3,0,.43,0,.43.21s-.11.16-.21.16a3.21,3.21,0,0,0-.66.08c-.72.1-.93.58-1,1.5s-.05,1.58-.05,5.7v3.7c0,3.8.84,5.43,2,6.52a5.17,5.17,0,0,0,4,1.45,5.54,5.54,0,0,0,4.14-1.9c1.22-1.51,1.54-3.75,1.54-6.47v-3.3c0-4.12,0-4.85-.06-5.7s-.26-1.32-1.13-1.5a4.37,4.37,0,0,0-.9-.08c-.1,0-.21-.06-.21-.16s.13-.21.42-.21c1.19,0,2.64.08,2.8.08s1.43-.08,2.22-.08c.29,0,.42,0,.42.21s-.11.16-.21.16a3.28,3.28,0,0,0-.66.08c-.71.15-.93.58-1,1.5s0,1.58,0,5.7V110c0,2.85-.32,6-2.43,7.89a7.72,7.72,0,0,1-5.44,1.95A8.08,8.08,0,0,1,393,118c-1.3-1.24-2.3-3.09-2.3-6.94Z"/><path class="cls-2" d="M412.12,116.42c.05,1.85.27,2.4.9,2.56a5.2,5.2,0,0,0,1.16.13.18.18,0,0,1,.18.19c0,.13-.15.18-.42.18-1.32,0-2.24-.08-2.45-.08s-1.19.08-2.25.08c-.23,0-.37,0-.37-.18a.18.18,0,0,1,.19-.19A3.46,3.46,0,0,0,410,119c.58-.16.66-.77.66-2.8V103.33c0-.9.13-1.14.32-1.14s.65.45.89.69,3.75,4,7.34,7.65c2.3,2.38,4.78,5,5.49,5.78l-.24-11.24c0-1.45-.16-1.95-.87-2.08a7.43,7.43,0,0,0-1.13-.11.19.19,0,0,1-.19-.21c0-.13.19-.16.45-.16,1.06,0,2.17,0,2.43,0s1,0,2,0c.24,0,.42,0,.42.16a.25.25,0,0,1-.26.21,2.83,2.83,0,0,0-.56.05c-.76.16-.82.61-.82,2L425.87,118c0,1.48,0,1.61-.18,1.61s-.48-.18-1.77-1.37c-.24-.21-3.59-3.51-6.05-6.07-2.69-2.83-5.3-5.57-6-6.36Z"/><path class="cls-2" d="M434.18,113c0,2.17,0,3.94.11,4.86.08.66.16,1.08.84,1.19a10.22,10.22,0,0,0,1.06.1.18.18,0,0,1,.18.19c0,.1-.1.18-.37.18-1.29,0-2.79-.08-2.9-.08s-1.58.08-2.3.08c-.23,0-.36,0-.36-.18a.18.18,0,0,1,.18-.19,3.47,3.47,0,0,0,.71-.1c.45-.11.53-.53.61-1.19.1-.92.13-2.69.13-4.86v-4c0-3.48,0-4.11-.05-4.83s-.24-1.11-.74-1.21a4.49,4.49,0,0,0-.71-.08.2.2,0,0,1-.19-.19c0-.13.11-.18.37-.18.77,0,2.22,0,2.35,0s1.61,0,2.32,0c.27,0,.37,0,.37.18a.22.22,0,0,1-.18.19,2.7,2.7,0,0,0-.58.05c-.63.13-.77.45-.82,1.24s0,1.35,0,4.83Z"/><path class="cls-2" d="M446.91,116.55c1.34-3,4.38-10.66,4.88-12.27a4.11,4.11,0,0,0,.21-.85.47.47,0,0,0-.32-.47,2.66,2.66,0,0,0-.79-.08c-.13,0-.26-.08-.26-.19s.15-.18.52-.18c.93,0,2,0,2.27,0,.14,0,1.14,0,1.82,0,.24,0,.37,0,.37.16s-.07.21-.26.21a2.18,2.18,0,0,0-1.11.26c-.32.22-.68.53-1.29,2.06-.27.64-1.4,3.33-2.59,6.07-1.42,3.28-2.45,5.7-3,6.81-.63,1.35-.77,1.69-1,1.69s-.43-.29-.87-1.37l-5.71-13.75c-.53-1.27-.84-1.51-1.61-1.69a4.39,4.39,0,0,0-.89-.08.21.21,0,0,1-.19-.21c0-.13.24-.16.61-.16,1.11,0,2.43,0,2.72,0s1.26,0,2.16,0c.42,0,.64,0,.64.16a.22.22,0,0,1-.24.21,2.82,2.82,0,0,0-.85.11.36.36,0,0,0-.26.39,9.53,9.53,0,0,0,.63,1.88Z"/><path class="cls-2" d="M458.51,109c0-3.48,0-4.11-.05-4.83s-.18-1.13-.95-1.24c-.18,0-.58-.05-.79-.05a.22.22,0,0,1-.18-.19c0-.13.1-.18.37-.18,1,0,2.55,0,2.69,0s5,0,5.54,0a8.85,8.85,0,0,0,1.06-.13,1.24,1.24,0,0,1,.31-.1c.08,0,.11.1.11.21s-.13.42-.19,1c0,.21-.07,1.22-.13,1.48s-.1.24-.21.24-.18-.11-.18-.29a2.35,2.35,0,0,0-.14-.79c-.16-.37-.39-.53-1.66-.69-.4-.05-3.09-.08-3.35-.08s-.13.08-.13.24v6.1c0,.15,0,.23.13.23.29,0,3.35,0,3.88,0s.9-.08,1.13-.32.27-.29.35-.29.13.06.13.19-.13.5-.19,1.24c-.05.45-.1,1.29-.1,1.45s0,.42-.21.42-.16-.08-.16-.21a1.92,1.92,0,0,0-.11-.74c-.08-.32-.29-.58-1.19-.68-.63-.08-3.11-.11-3.5-.11-.14,0-.16.08-.16.16V113c0,.77,0,3.38,0,3.83.05,1.5.47,1.79,2.77,1.79a8,8,0,0,0,2.32-.23,1.72,1.72,0,0,0,1.06-1.56c.05-.27.1-.34.23-.34s.16.18.16.34a18.53,18.53,0,0,1-.31,2.16c-.16.58-.4.58-1.3.58-1.74,0-3.08,0-4-.07s-1.58-.06-1.92-.06c-.06,0-.5,0-1,0s-1,0-1.35,0-.37,0-.37-.18a.18.18,0,0,1,.18-.19c.22,0,.51-.08.72-.1.45-.08.5-.53.6-1.19a46.48,46.48,0,0,0,.13-4.86Z"/><path class="cls-2" d="M471.47,109c0-3.48,0-4.11-.05-4.83s-.18-1.13-.95-1.24c-.18,0-.58-.05-.79-.05a.23.23,0,0,1-.19-.19c0-.13.11-.18.37-.18,1.06,0,2.62,0,2.75,0s2.19,0,2.9,0a7.56,7.56,0,0,1,4.33,1,3.92,3.92,0,0,1,1.61,3.06c0,1.66-.69,3.27-2.85,5.12,1.9,2.38,3.51,4.41,4.86,5.81a4.39,4.39,0,0,0,3.4,1.63.21.21,0,0,1,.21.19c0,.13-.13.18-.55.18h-1.45a4.7,4.7,0,0,1-2.49-.45c-1-.52-1.84-1.61-3.16-3.3-1-1.21-2-2.66-2.51-3.27a.38.38,0,0,0-.32-.13l-2.95,0c-.11,0-.16,0-.16.18V113c0,2.16,0,3.91.1,4.83.09.66.22,1.08.93,1.19a9.07,9.07,0,0,0,1,.1c.16,0,.18.11.18.19s-.1.18-.37.18c-1.26,0-2.74-.08-2.85-.08s-1.58.08-2.29.08c-.24,0-.37,0-.37-.18a.18.18,0,0,1,.18-.19,3.67,3.67,0,0,0,.72-.1c.44-.11.5-.53.6-1.19a46.48,46.48,0,0,0,.13-4.86Zm2,1.9a.32.32,0,0,0,.16.29,7.67,7.67,0,0,0,2.56.35,3,3,0,0,0,1.74-.4,4,4,0,0,0,1.4-3.43c0-2.8-1.53-4.41-4-4.41a10.34,10.34,0,0,0-1.66.13.3.3,0,0,0-.19.27Z"/><path class="cls-2" d="M487,119.16c-.32-.15-.35-.23-.35-.84,0-1.11.11-2,.14-2.37s.05-.37.18-.37.21.07.21.26a3.38,3.38,0,0,0,.08.82c.37,1.63,2.11,2.21,3.67,2.21,2.3,0,3.48-1.29,3.48-3s-.87-2.37-2.93-3.9l-1.05-.8c-2.51-1.87-3.33-3.24-3.33-4.8,0-2.64,2.09-4.22,5.15-4.22a11.38,11.38,0,0,1,2.4.26,2.89,2.89,0,0,0,.82.11c.18,0,.24,0,.24.15a23.13,23.13,0,0,0-.11,2.38c0,.34,0,.5-.18.5s-.19-.1-.21-.29a4.47,4.47,0,0,0-.35-1.11c-.16-.26-.92-1.11-3-1.11-1.69,0-3.08.85-3.08,2.43s.71,2.25,3,3.8l.66.45c2.83,1.93,3.8,3.49,3.8,5.41a4.38,4.38,0,0,1-2.16,3.83,7.16,7.16,0,0,1-3.69.79A8.49,8.49,0,0,1,487,119.16Z"/><path class="cls-2" d="M502.8,113c0,2.17,0,3.94.11,4.86.08.66.15,1.08.84,1.19a9.74,9.74,0,0,0,1.06.1.18.18,0,0,1,.18.19c0,.1-.11.18-.37.18-1.29,0-2.8-.08-2.9-.08s-1.59.08-2.3.08c-.24,0-.37,0-.37-.18a.19.19,0,0,1,.19-.19,3.47,3.47,0,0,0,.71-.1c.45-.11.53-.53.61-1.19.1-.92.13-2.69.13-4.86v-4c0-3.48,0-4.11-.05-4.83s-.24-1.11-.74-1.21a4.6,4.6,0,0,0-.72-.08.2.2,0,0,1-.18-.19c0-.13.11-.18.37-.18.76,0,2.22,0,2.35,0s1.61,0,2.32,0c.26,0,.37,0,.37.18a.24.24,0,0,1-.18.19,2.83,2.83,0,0,0-.59.05c-.63.13-.76.45-.81,1.24s0,1.35,0,4.83Z"/><path class="cls-2" d="M514.44,113c0,2.17,0,3.94.1,4.86.08.66.19,1.08.9,1.19a9.52,9.52,0,0,0,1.06.1c.16,0,.18.11.18.19s-.1.18-.37.18c-1.26,0-2.74-.08-2.88-.08s-1.71.08-2.4.08c-.26,0-.37,0-.37-.18a.17.17,0,0,1,.19-.16,2.61,2.61,0,0,0,.68-.11c.48-.1.61-.55.69-1.21.11-.92.11-2.69.11-4.86v-9.42l-3.35,0c-1.46,0-2,.19-2.35.72a3.41,3.41,0,0,0-.38.71c-.05.18-.13.21-.23.21a.18.18,0,0,1-.16-.19c0-.23.47-2.24.5-2.42s.16-.43.24-.43a8,8,0,0,0,1,.27c.66.08,1.56.1,1.82.1h8.76a12.37,12.37,0,0,0,1.67-.1,6.5,6.5,0,0,1,.66-.11c.1,0,.1.13.1.27,0,.68-.08,2.29-.08,2.56s-.1.29-.21.29-.16-.08-.18-.4l0-.24c-.08-.68-.58-1.18-2.8-1.24l-2.9,0Z"/><path class="cls-2" d="M528.64,113.65a4,4,0,0,0-.51-2.3c-.18-.34-3.32-5.33-4.11-6.52a6,6,0,0,0-1.53-1.63,2.38,2.38,0,0,0-1-.32.24.24,0,0,1-.24-.21c0-.11.08-.16.29-.16l2.3,0c.16,0,1.11,0,2,0,.27,0,.32,0,.32.16s-.16.16-.37.24-.29.18-.29.37a1.85,1.85,0,0,0,.32.87l4.22,7c.48-1,3.38-5.75,3.8-6.49a2.4,2.4,0,0,0,.4-1.16.52.52,0,0,0-.37-.58c-.21-.06-.34-.16-.34-.27s.13-.13.37-.13c.6,0,1.42,0,1.6,0s1.82,0,2.28,0c.15,0,.28,0,.28.13a.26.26,0,0,1-.28.24,2.4,2.4,0,0,0-1.09.29,3.91,3.91,0,0,0-1.16,1.11c-.76.9-4,6.18-4.51,7.12a4.48,4.48,0,0,0-.29,2.25v1.93c0,.37,0,1.32.08,2.24,0,.66.21,1.08.89,1.19a9.52,9.52,0,0,0,1.06.1.18.18,0,0,1,.18.19c0,.1-.13.18-.37.18-1.29,0-2.79-.08-2.92-.08s-1.59.08-2.27.08c-.27,0-.37,0-.37-.18a.18.18,0,0,1,.18-.19,3.28,3.28,0,0,0,.69-.1c.47-.11.63-.53.68-1.19.06-.92.06-1.87.06-2.24Z"/></svg>