<?xml version="1.0" encoding="utf-8"?>
<!-- Generator: Adobe Illustrator 22.1.0, SVG Export Plug-In . SVG Version: 6.00 Build 0)  -->
<svg version="1.1" xmlns="http://www.w3.org/2000/svg" xmlns:xlink="http://www.w3.org/1999/xlink" x="0px" y="0px"
	 viewBox="0 0 466.7 183" style="enable-background:new 0 0 466.7 183;" xml:space="preserve">
<style type="text/css">
	.st0{fill-rule:evenodd;clip-rule:evenodd;fill:#FFFFFF;}
	.st1{fill:#FFFFFF;}
	.st2{opacity:0.2;}
	.st3{clip-path:url(#SVGID_2_);fill-rule:evenodd;clip-rule:evenodd;}
</style>
<g id="Tagline">
	<rect x="162.3" y="6.8" class="st0" width="3.4" height="169.5"/>
</g>
<g id="Logoname">
	<g>
		<g>
			<path class="st1" d="M198.1,96.8V39.4h8.7v8.1c1.8-2.8,4.2-5.1,7.2-6.8c3-1.7,6.4-2.6,10.2-2.6c4.3,0,7.7,0.9,10.5,2.6
				c2.7,1.8,4.6,4.2,5.8,7.4c4.5-6.7,10.4-10.1,17.7-10.1c5.7,0,10.1,1.6,13.1,4.7c3.1,3.2,4.6,8,4.6,14.6v39.4h-9.7V60.6
				c0-3.9-0.3-6.7-0.9-8.4c-0.6-1.7-1.8-3.1-3.4-4.1c-1.7-1-3.6-1.6-5.8-1.6c-4,0-7.4,1.3-10.1,4c-2.7,2.7-4,7-4,12.9v33.3h-9.7
				V59.5c0-4.3-0.8-7.6-2.4-9.7c-1.6-2.2-4.2-3.2-7.8-3.2c-2.7,0-5.3,0.7-7.6,2.2c-2.3,1.4-4,3.5-5.1,6.3c-1,2.8-1.6,6.8-1.6,12
				v29.8H198.1z"/>
			<path class="st1" d="M327.8,89.7c-3.6,3.1-7.1,5.2-10.4,6.5c-3.3,1.3-6.9,1.9-10.7,1.9c-6.3,0-11.2-1.5-14.5-4.6
				c-3.4-3.1-5.1-7-5.1-11.8c0-2.8,0.6-5.4,1.9-7.7c1.3-2.3,3-4.2,5-5.6c2.1-1.4,4.4-2.5,7-3.2c1.9-0.5,4.8-1,8.6-1.5
				c7.9-0.9,13.6-2.1,17.3-3.4c0-1.3,0.1-2.2,0.1-2.5c0-4-0.9-6.8-2.8-8.4c-2.5-2.2-6.2-3.3-11.1-3.3c-4.6,0-8,0.8-10.1,2.4
				c-2.2,1.6-3.8,4.4-4.8,8.5l-9.5-1.3c0.9-4.1,2.3-7.4,4.3-9.9c2-2.5,4.8-4.4,8.6-5.8c3.7-1.4,8.1-2,13-2c4.9,0,8.9,0.6,11.9,1.7
				c3.1,1.2,5.3,2.6,6.8,4.4c1.4,1.7,2.4,4,3,6.6c0.3,1.7,0.5,4.6,0.5,9v13c0,9,0.2,14.8,0.6,17.2c0.4,2.4,1.2,4.7,2.5,6.9h-10.2
				C328.7,94.8,328.1,92.4,327.8,89.7z M327,68c-3.5,1.4-8.8,2.7-15.9,3.7c-4,0.6-6.8,1.2-8.5,1.9c-1.7,0.7-2.9,1.8-3.8,3.2
				c-0.9,1.4-1.4,2.9-1.4,4.6c0,2.6,1,4.8,2.9,6.5c2,1.7,4.8,2.6,8.6,2.6c3.7,0,7.1-0.8,10-2.5c2.9-1.6,5.1-3.9,6.4-6.7
				c1-2.2,1.6-5.4,1.6-9.7V68z"/>
			<path class="st1" d="M351.9,118.8V39.4h8.9v7.5c2.1-2.9,4.4-5.1,7.1-6.6c2.6-1.5,5.8-2.2,9.6-2.2c4.9,0,9.2,1.3,13,3.8
				c3.7,2.5,6.6,6.1,8.5,10.7c1.9,4.6,2.9,9.6,2.9,15.1c0,5.9-1.1,11.2-3.2,15.9c-2.1,4.7-5.2,8.3-9.2,10.8c-4,2.5-8.2,3.8-12.7,3.8
				c-3.2,0-6.2-0.7-8.7-2.1c-2.6-1.4-4.7-3.1-6.3-5.2v27.9H351.9z M360.7,68.4c0,7.4,1.5,12.8,4.5,16.4c3,3.5,6.6,5.3,10.9,5.3
				c4.3,0,8-1.8,11.1-5.5c3.1-3.7,4.6-9.3,4.6-17c0-7.3-1.5-12.8-4.5-16.4c-3-3.6-6.6-5.5-10.8-5.5c-4.1,0-7.8,1.9-11,5.8
				C362.3,55.4,360.7,61,360.7,68.4z"/>
		</g>
		<g>
			<path class="st1" d="M406.8,96.8l20.7-29.6l-19.8-27.8h18.5l10.2,15.8L447,39.4h17.8l-19.5,27.2l21.2,30.2H448L436.3,79
				l-11.8,17.8H406.8z"/>
		</g>
	</g>
</g>
<g id="Icon">
	<g class="st2">
		<g>
			<defs>
				<rect id="SVGID_1_" x="14.6" y="174.4" width="92.9" height="8.7"/>
			</defs>
			<clipPath id="SVGID_2_">
				<use xlink:href="#SVGID_1_"  style="overflow:visible;"/>
			</clipPath>
			<path class="st3" d="M61.1,174.4c25.7,0,46.5,1.9,46.5,4.3c0,2.4-20.8,4.3-46.5,4.3c-25.7,0-46.5-1.9-46.5-4.3
				C14.6,176.3,35.4,174.4,61.1,174.4"/>
		</g>
	</g>
	<path class="st1" d="M81.4,31.4c-5.8-4-12.8-6.3-20.4-6.3c-7.5,0-14.5,2.3-20.3,6.3l20.3,20.4L81.4,31.4z"/>
	<path class="st1" d="M31.4,40.8c-4,5.8-6.3,12.8-6.3,20.4c0,7.5,2.3,14.5,6.3,20.4l20.4-20.4L31.4,40.8z"/>
	<path class="st1" d="M90.8,40.8L70.4,61.1l20.4,20.4c4-5.8,6.3-12.8,6.3-20.4C97.1,53.5,94.8,46.5,90.8,40.8z"/>
	<path class="st1" d="M40.7,90.8c5.8,4,12.8,6.3,20.3,6.3c7.6,0,14.6-2.3,20.4-6.3L61.1,70.5L40.7,90.8z"/>
	<path class="st0" d="M10,94.7C3.5,84.7,0,73.1,0,61.1C0,27.4,27.4,0,61.1,0c33.7,0,61.1,27.4,61.1,61.1c0,12-3.5,23.6-10,33.6
		c-3.4,5.5-7.2,10.8-10.7,16.2l0,0l-40.3,58.4l-40.3-58.4l0,0C17.2,105.4,13.4,100.2,10,94.7L10,94.7z M61.1,11.8
		c27.2,0,49.3,22.1,49.3,49.3c0,27.2-22.1,49.3-49.3,49.3c-27.2,0-49.3-22.1-49.3-49.3C11.8,33.9,33.9,11.8,61.1,11.8L61.1,11.8z"/>
</g>
</svg>
