<svg id="Layer_1" data-name="Layer 1" xmlns="http://www.w3.org/2000/svg" viewBox="0 0 275.2 192.45"><defs><style>.cls-1{fill:none;}.cls-2{fill:#004a93;}.cls-3{fill:#fcbf00;}.cls-4{fill:#ffda88;}</style></defs><title>MSU-vert-cmyk (1)</title><path class="cls-1" d="M154.38,89.13c4.92,0,6.34-1.46,6.34-6.5,0,0,0-20.74,0-28.38,0-1.12-1.94-1.12-2.65,0-5,8.42-17.12,29.13-19.37,33-1.05,1.79-1.9.15-2.07-.14-2.4-4.11-14.33-24.48-19.26-32.82-.62-1.13-2.59-1.11-2.59,0V82.63c0,4.92,1.54,6.5,6.33,6.5h.49v6.36h-.06c5.56-.54,11.24-.84,17-.85,5.21,0,10.33.2,15.33.6V89.13Z"/><path class="cls-2" d="M121.62,95.49V89.13h-.49c-4.79,0-6.33-1.58-6.33-6.5V54.25c0-1.1,2-1.12,2.59,0,4.93,8.34,16.86,28.71,19.26,32.82.17.29,1,1.93,2.07.14,2.25-3.84,14.35-24.55,19.37-33,.71-1.12,2.65-1.12,2.65,0,0,7.64,0,28.38,0,28.38,0,5-1.42,6.5-6.34,6.5h-.5v6.12A156.26,156.26,0,0,1,184,100.57V89.13h-.5c-4.8,0-6.19-1.46-6.19-6.5V43.57c0-5.1,1.33-6.5,6.19-6.5h.5V27.3H156.15s-13.94,26.6-17.67,33.63A.81.81,0,0,1,137,61c-3.66-7-17.54-33.65-17.54-33.65h-28v9.77H92c4.85,0,6.17,1.4,6.17,6.5V82.63c0,5-1.38,6.5-6.17,6.5h-.5v12.15a156,156,0,0,1,30.1-5.78Z"/><path class="cls-3" d="M208.41,110.92A97.89,97.89,0,0,0,184,100.57a156.26,156.26,0,0,0-30.15-5.32c-5-.4-10.12-.61-15.33-.6-5.75,0-11.43.31-17,.85a156,156,0,0,0-30.1,5.78,94.44,94.44,0,0,0-23.61,10.45.73.73,0,0,0-.28.9.74.74,0,0,0,.83.44c21.27-4.93,44.92-7.42,70.29-7.42,24.72,0,49.29,2.35,69.18,6.62a.74.74,0,0,0,.85-.47A.72.72,0,0,0,208.41,110.92Z"/><path class="cls-3" d="M144.92,14.48a.38.38,0,0,0-.23.32.06.06,0,0,0,0,0c0,3.5-5.24,12.22-5.3,12.31S135,35.36,135,35.36c-3.89,7-1.6,12.18,2.34,19.34a.26.26,0,0,0,.23.13.25.25,0,0,0,.23-.13l11.37-20.94c3.41-6.54.26-12.06-2.79-17.4l-1-1.71a.24.24,0,0,0-.06-.08A.47.47,0,0,0,144.92,14.48Zm.29.37v0h0Z"/><path class="cls-4" d="M137.48-.14a.26.26,0,0,0-.23.14L125.87,20.94c-3.4,6.54-.25,12.06,2.8,17.39l1,1.72s0,.05.06.07a.43.43,0,0,0,.41.09.34.34,0,0,0,.24-.31.06.06,0,0,0,0,0c0-3.5,5.24-12.22,5.29-12.31l4.4-8.21c3.88-7,1.6-12.18-2.34-19.34A.29.29,0,0,0,137.48-.14Zm-7.65,40v0h0v0Z"/><path class="cls-2" d="M85.32,143c0,12.23-6.84,19.24-18.46,19.24S48.4,155.27,48.4,143s6.83-19.18,18.46-19.18S85.32,130.81,85.32,143ZM57,143c0,9.53,3.59,14.56,9.83,14.56s9.83-5,9.83-14.56-3.48-14.62-9.83-14.62S57,133.39,57,143Z"/><path class="cls-2" d="M99.86,124.7l12.7,27.13a.76.76,0,0,0,.85.45.78.78,0,0,0,.51-.73l-.15-19c0-3.3-.72-4.67-3.84-4.67h-.72V124.7c2.58.06,5.1.12,7.67.12s5.22-.06,7.85-.12v3.18H124c-3.05,0-3.83,1.37-3.83,4.67v28.89H110L97.13,135.58a.69.69,0,0,0-.77-.38.76.76,0,0,0-.56.68L96,153.53c0,3.29.72,4.73,3.83,4.73h.72v3.18c-2.58-.12-5.15-.12-7.73-.12s-5.15,0-7.79.12v-3.18h.72c3.06,0,3.89-1.44,3.89-4.73v-21c0-3.3-.83-4.67-3.89-4.67h-.72V124.7Z"/><path class="cls-2" d="M137.72,124.82h10.13c1.26,0,5.09-.12,11.51-.12v11.09h-4v-1c0-4.73-1.32-5.69-5.75-5.69H147v24.39c0,3.29.78,4.73,3.83,4.73h1.26v3.18c-3-.12-6.11-.12-9.11-.12s-6.11,0-9.17.12v-3.18h1.26c3.06,0,3.84-1.44,3.84-4.73V129.14h-3.24c-4,0-5.39,1.07-5.39,5.09a14.64,14.64,0,0,0,.06,1.56h-3.78V124.7C132.8,124.7,136.52,124.82,137.72,124.82Z"/><path class="cls-2" d="M227.83,124.82c-2.58,0-5.1-.06-7.67-.12v3.18h.71c3.12,0,3.84,1.37,3.84,4.67l.15,19a.76.76,0,0,1-.5.73.75.75,0,0,1-.85-.45L210.8,124.7H196v3.18h.72c3.06,0,3.9,1.37,3.9,4.67v21c0,3.29-.84,4.73-3.9,4.73h0c-2.87-.3-3.71-2.4-5-5.81L181.07,124.7h-9.83l-11.09,27.93c-1.44,3.65-2.63,5.51-5,5.63v3.18c2.52-.12,5.09-.12,7.79-.12s5.45,0,8.27.12v-3.18c-3.18-.18-4.37-.48-4.37-2.63a6.52,6.52,0,0,1,.42-2l1.2-3.8h14l1.14,3a10.36,10.36,0,0,1,.6,2.76c0,2-1.32,2.57-4.56,2.69v3.18c1.32-.06,10-.17,15.45-.17,5.73,0,15.69.13,16.44.17v-3.18h-.72c-3.11,0-3.83-1.44-3.83-4.73l-.1-17.65a.76.76,0,0,1,.56-.68.69.69,0,0,1,.77.38l12.74,25.86h10.18V132.55c0-3.3.78-4.67,3.84-4.67h.72V124.7C233,124.76,230.46,124.82,227.83,124.82Zm-57.74,20.36L175,131.13a.71.71,0,0,1,1.32,0L181,145.24Z"/><path class="cls-2" d="M259.37,124.7,270,152.45c1.32,3.41,2.16,5.51,5,5.81v3.18c-2.82-.12-5.69-.12-8.51-.12s-5.7,0-8.57.12v-3.18c3.23-.12,4.55-.72,4.55-2.69a10.36,10.36,0,0,0-.6-2.76l-1-3.05H246.78l-1.26,3.83a6.52,6.52,0,0,0-.42,2c0,2.15,1.2,2.45,4.38,2.63v3.18c-2.82-.12-5.58-.12-8.27-.12s-5.28,0-7.79.12v-3.18c2.39-.12,3.59-2,5-5.63l11.09-27.93Zm-6,6.43-5,14.11h10.92l-4.56-14.11a.7.7,0,0,0-.67-.45A.68.68,0,0,0,253.34,131.13Z"/><path class="cls-2" d="M24.38,155.75c-.52,0-.87-.7-.87-.7l-10-18.29s-.49-.9-1-.9-.61.88-.61.88v16.81c0,3.3.78,4.74,3.83,4.74h.72v3.17c-2.46-.12-5-.12-7.67-.12s-5.27,0-8,.12v-3.17h.72c3.11,0,3.77-1.44,3.83-4.74l.36-21v-.3c0-3.05-.9-4.37-3.89-4.37H1.1v-3.18c2.7.06,5.39.12,8.15.12s4.23-.06,6.92-.12l7.58,17a.69.69,0,0,0,.65.43.64.64,0,0,0,.63-.42l8.15-17c2.34.06,3.69.12,6.33.12s5.39-.06,8.33-.12v3.17h-.78c-3,0-3.84,1.26-3.84,4.32v.36l.36,21c.06,3.29.66,4.73,3.84,4.73h.72v3.18c-2.76-.12-5.45-.12-8.09-.12s-5.22,0-7.79.12v-3.18H33c3.05,0,3.83-1.44,3.83-4.73V136.58s.07-.89-.6-.89c-.49,0-1,.89-1,.89L25.27,155S24.92,155.75,24.38,155.75Z"/><path class="cls-2" d="M44.68,172.5l5.74,15c.71,1.85,1.16,3,2.72,3.15v1.72c-1.52-.07-3.08-.07-4.61-.07s-3.08,0-4.63.07v-1.72c1.75-.07,2.46-.39,2.46-1.46a5.82,5.82,0,0,0-.32-1.49l-.72-2.11H38l-.85,2.53a3.47,3.47,0,0,0-.22,1.1c0,1.17.64,1.33,2.36,1.43v1.72c-1.52-.07-3-.07-4.47-.07s-2.86,0-4,.07v-1.72c1.09-.07,1.73-1.07,2.51-3l6-15.12ZM41.41,176l-2.57,7.22h5.61L42.12,176a.36.36,0,0,0-.35-.25A.38.38,0,0,0,41.41,176Z"/><path class="cls-2" d="M14.61,178.32H12.37a4.79,4.79,0,0,0,0-.64c0-2.46-1.48-3.56-4.16-3.56-2.33,0-3.78,1.2-3.78,2.91,0,1.39.78,2.17,2.49,2.85l4.1,1.64c2.81,1.13,4.2,2.85,4.2,5.24,0,3.75-2.81,5.91-8,5.91a32.78,32.78,0,0,1-7.11-.83v-5.6H2.46c0,.16,0,.33,0,.45,0,2.56,1.56,3.85,4.56,3.85,2.42,0,3.75-1.06,3.75-3,0-1.38-.68-2.09-2.26-2.77l-3.79-1.62C1.55,181.78,0,180.33,0,177.74,0,174.19,2.78,172,7.85,172a29.43,29.43,0,0,1,6.76.9Z"/><path class="cls-2" d="M225.72,178.67h-2.19a4.86,4.86,0,0,0,0-.64c0-2.42-1.45-3.51-4.07-3.51-2.28,0-3.7,1.18-3.7,2.87,0,1.37.76,2.14,2.43,2.8l4,1.63c2.75,1.11,4.11,2.8,4.11,5.16,0,3.69-2.75,5.83-7.87,5.83a31.62,31.62,0,0,1-7-.83v-5.51h2.32c0,.16,0,.32,0,.44,0,2.52,1.52,3.8,4.46,3.8,2.38,0,3.67-1.05,3.67-3,0-1.36-.66-2.07-2.21-2.73l-3.7-1.6c-3.07-1.34-4.59-2.77-4.59-5.32,0-3.5,2.72-5.7,7.69-5.7a28.65,28.65,0,0,1,6.61.89Z"/><path class="cls-2" d="M21.75,172.75h5.43c.67,0,2.73-.07,6.17-.07v5.63H31.23v-.2c0-2.54-.71-3.05-3.09-3.05H26.73v13.09c0,1.76.42,2.54,2.06,2.54h.46v1.7c-1.43-.07-3.07-.07-4.68-.07s-3.27,0-4.91.07v-1.7h.67c1.64,0,2.06-.78,2.06-2.54V175.06H20.65c-2.15,0-2.89.58-2.89,2.74a1.7,1.7,0,0,0,0,.51h-2v-5.63C19.11,172.68,21.1,172.75,21.75,172.75Z"/><path class="cls-2" d="M56.58,172.75H62c.67,0,2.72-.07,6.17-.07v5.66H66.06v-.23c0-2.54-.7-3.05-3.08-3.05H61.56v13.09c0,1.76.42,2.54,2.06,2.54h.67v1.7c-1.63-.07-3.27-.07-4.88-.07s-2.91,0-4.55.07v-1.7h.31c1.64,0,2.06-.78,2.06-2.54V175.06H55.49c-2.16,0-2.9.58-2.9,2.74a2.11,2.11,0,0,0,0,.54h-2v-5.66C53.94,172.68,55.94,172.75,56.58,172.75Z"/><path class="cls-2" d="M85.15,172.75v5.43H83.31v-.87c0-1.86-1.06-2.25-3.44-2.25h-4v6.14H77c2.13,0,2.67-.38,2.71-2.57h1.73v7.14H79.75c-.1-2.12-.58-2.51-2.58-2.51H75.92v6.82h3.6c3.22,0,3.92-.42,4-3.86h1.81v6.17H69.17v-1.7h.38c1.74,0,2.06-.84,2.06-2.54V176.89c0-1.76-.42-2.5-2.06-2.5h-.38v-1.64Z"/><path class="cls-2" d="M100.77,172.75c1.45,0,2.89,0,4.27-.07v1.71h-.38c-1.77,0-2.09.64-2.09,2.5v8.65c0,3.09,1,4.54,4,4.54s4.14-1.48,4.14-4.6v-8.59c0-1.76-.41-2.5-2-2.5h-.39v-1.71c1.38,0,2.7.07,4,.07s2.64,0,3.92-.07v1.71h-.48c-1.16,0-1.61.8-1.61,2.5v8.3c0,5.27-2.22,7.65-7.87,7.65-5.31,0-7.91-2.28-7.91-6.85v-9.1c0-1.67-.29-2.5-1.58-2.5H96.4v-1.71C97.87,172.72,99.35,172.75,100.77,172.75Z"/><path class="cls-2" d="M145.45,172.75c1.51,0,3.05,0,4.59-.07v1.71h-.42c-1.63,0-2.05.74-2.05,2.5v11.26c0,1.76.42,2.54,2.05,2.54H150v1.7c-1.54-.07-3.08-.07-4.59-.07s-3.09,0-4.63.07v-1.7h.38c1.64,0,2.06-.78,2.06-2.54V176.89c0-1.76-.42-2.5-2.06-2.5h-.38v-1.71C142.36,172.72,143.9,172.75,145.45,172.75Z"/><path class="cls-2" d="M171.58,172.7v-.07c-1.16,0-2.41.07-3.73.07s-2.77,0-4.31-.07v1.71c1.58,0,2.32.32,2.32,1.16a3.19,3.19,0,0,1-.13.83l-3.8,11.46a.42.42,0,0,1-.35.24.47.47,0,0,1-.37-.25l-4-11.51a2.75,2.75,0,0,1-.2-.87c0-.9.68-1,2.32-1.06v-1.71c-1.77,0-3.37.07-4.76.07s-2.57,0-3.57-.07v1.71c1.1.09,1.55.77,2.06,2.18l6,16.14h4.66l5.79-16.27c.41-1.22.9-1.83,2.06-2Z"/><path class="cls-2" d="M199.56,172.68c5.62,0,8.26,1.42,8.26,5.31a4.27,4.27,0,0,1-3.47,4.53c1.83.26,2.28,1.19,2.83,3.21s.74,3.44,1.32,4.12a2.22,2.22,0,0,0,1.3.76v1.78h-5c-1.19-2.73-1.29-5.21-1.9-6.91-.45-1.29-1.44-1.8-3.21-1.8h-1.55v4.47c0,1.76.42,2.54,2.06,2.54h.42v1.7c-1.54-.07-3.09-.07-4.6-.07s-3.09,0-4.63.07v-1.7h.39c1.64,0,2.06-.78,2.06-2.54V176.89c0-1.76-.42-2.5-2.06-2.5h-.39v-1.71Zm-1.42,8.91h1.48c2.8,0,4.09-.84,4.09-3.19s-1.22-3.34-3.93-3.34h-1.64Z"/><path class="cls-2" d="M232.62,172.75c1.51,0,3.06,0,4.6-.07v1.71h-.42c-1.64,0-2.06.74-2.06,2.5v11.26c0,1.76.42,2.54,2.06,2.54h.42v1.7c-1.54-.07-3.09-.07-4.6-.07s-3.09,0-4.63.07v-1.7h.39c1.64,0,2.06-.78,2.06-2.54V176.89c0-1.76-.42-2.5-2.06-2.5H228v-1.71C229.53,172.72,231.08,172.75,232.62,172.75Z"/><path class="cls-2" d="M244.39,172.75h5.43c.68,0,2.74-.07,6.18-.07v5.61h-2.12c0,.15,0,0,0-.18,0-2.54-.71-3.05-3.08-3.05h-1.42v13.09c0,1.76.42,2.54,2.06,2.54h.67v1.7c-1.64-.07-3.28-.07-4.88-.07s-3.28,0-4.92.07v-1.7H243c1.65,0,2.06-.78,2.06-2.54V175.06H243.3c-2.16,0-2.9.58-2.9,2.74,0,.25,0,.51,0,.49h-2v-5.61C241.75,172.68,243.75,172.75,244.39,172.75Z"/><path class="cls-2" d="M260.55,172.75c1.38,0,2.83,0,4.27-.07v1.71h-.16c-1,0-1.48.29-1.48.93a2.82,2.82,0,0,0,.39,1.16l2.15,4.37s.15.24.36.24a.49.49,0,0,0,.36-.23l2.14-4.22a2.94,2.94,0,0,0,.35-1.22c0-.74-.48-1-1.57-1v-1.71c1.38,0,2.7.07,4,.07s2.57,0,3.82-.07v1.71h-.12c-1,0-1.64.74-2.51,2.15l-4.79,7.84v4c0,1.71.32,2.32,2.19,2.32h.44v1.7c-1.51-.07-3.05-.07-4.62-.07s-3.13,0-4.7.07v-1.7h.45c1.84,0,2.19-.61,2.19-2.32v-4.05l-4.51-7.81c-.76-1.32-1.41-2.06-2.72-2.12v-1.71C257.81,172.72,259.16,172.75,260.55,172.75Z"/><path class="cls-2" d="M125.51,172.72l6.88,14.68a.4.4,0,0,0,.46.24.42.42,0,0,0,.27-.39L133,177c0-1.78-.39-2.52-2.08-2.52h-.39v-1.72c1.4,0,2.76.06,4.16.06s2.82,0,4.24-.06v1.72h-.39c-1.65,0-2.07.74-2.07,2.52V192.6H131l-6.89-14.66a.38.38,0,0,0-.42-.21.41.41,0,0,0-.3.36l.06,10.23c0,1.78.38,2.56,2.07,2.56h.39v1.72c-1.39-.06-2.79-.06-4.18-.06s-2.79,0-4.22.06v-1.72h.39c1.65,0,2.11-.78,2.11-2.56V177c0-1.78-.46-2.52-2.11-2.52h-.39v-1.72Z"/><path class="cls-2" d="M188.48,172.75v5.43h-1.83v-.87c0-1.86-1.06-2.25-3.44-2.25h-4v6.14h1.12c2.12,0,2.67-.38,2.7-2.57h1.74v7.14h-1.74c-.1-2.12-.58-2.51-2.57-2.51h-1.25v6.82h3.6c3.21,0,3.92-.42,4-3.86h1.8v6.17H172.5v-1.7h.39c1.74,0,2.06-.84,2.06-2.54V176.89c0-1.76-.42-2.5-2.06-2.5h-.39v-1.64Z"/></svg>