<svg xmlns="http://www.w3.org/2000/svg" viewBox="0 0 258.36 95"><defs><style>.cls-1{fill:#231f20;}.cls-2{fill:#fff;}</style></defs><title>NAU_primary_k</title><g id="NAU"><path class="cls-1" d="M25.91,25.2,9.31,9.25v16H3.77V0H8.09L24.68,16V0h5.55V25.2Z"/><path class="cls-1" d="M59.17,25.2H43.51c-2.66,0-5.87-3.17-5.87-5.87V5.87c0-2.7,3.21-5.87,5.87-5.87H59.17C61.83,0,65,3.17,65,5.87V19.33C65,22,61.83,25.2,59.17,25.2ZM58.85,5.33h-15V19.87h15Z"/><path class="cls-1" d="M92.15,25.2,82.07,15.87H78V25.2H72.28V0H91.57A5.68,5.68,0,0,1,96.9,5.33v5.22a5.67,5.67,0,0,1-5.33,5.32h-2l10.4,9.33Zm-.9-18.47A1.64,1.64,0,0,0,89.66,4.9H78V11H89.66a1.5,1.5,0,0,0,1.59-1.66Z"/><path class="cls-1" d="M118,5.18v20h-6v-20H101.58V0h26.78V5.18Z"/><path class="cls-1" d="M154,25.2V14.72h-14.4V25.2h-6.05V0h6.05V9.54H154V0h6V25.2Z"/><path class="cls-1" d="M168.21,25.2V0h23.08V5.18h-17V9.86H184.7v5.19H174.26v5h17.28V25.2Z"/><path class="cls-1" d="M218.5,25.2l-10.07-9.33h-4.07V25.2h-5.73V0h19.3a5.68,5.68,0,0,1,5.33,5.33v5.22a5.67,5.67,0,0,1-5.33,5.32h-2.05l10.4,9.33Zm-.9-18.47A1.63,1.63,0,0,0,216,4.9H204.36V11H216a1.49,1.49,0,0,0,1.58-1.66Z"/><path class="cls-1" d="M254,25.2,237.44,9.25v16H231.9V0h4.32l16.59,16V0h5.55V25.2Z"/><path class="cls-1" d="M23.72,61.45,21.59,57H8.17L6,61.45H0l12.64-25.2h5l12.44,25.2Zm-8.84-18.4L10.58,52h8.59Z"/><path class="cls-1" d="M53.64,61.45l-9.78-9.33H39.92v9.33H34.36V36.25H53.08a5.59,5.59,0,0,1,5.17,5.33V46.8a5.58,5.58,0,0,1-5.17,5.32h-2l10.1,9.33ZM52.77,43a1.63,1.63,0,0,0-1.54-1.84H39.92v6.09H51.23a1.48,1.48,0,0,0,1.54-1.66Z"/><path class="cls-1" d="M66.1,61.45V36.25H72v25.2Z"/><path class="cls-1" d="M77.49,61.45V58.78L92.4,41.29H78.92v-5H101.8v2.52L86.71,56.41h15.23v5Z"/><path class="cls-1" d="M128.23,61.45H113c-2.59,0-5.7-3.17-5.7-5.87V42.12c0-2.7,3.11-5.87,5.7-5.87h15.19c2.58,0,5.69,3.17,5.69,5.87V55.58C133.92,58.28,130.81,61.45,128.23,61.45Zm-.31-19.87H113.35V56.12h14.57Z"/><path class="cls-1" d="M162.07,61.45,146,45.5v16h-5.38V36.25h4.19l16.1,16v-16h5.38v25.2Z"/><path class="cls-1" d="M193.74,61.45,191.61,57H178.2l-2.13,4.43h-6l12.65-25.2h5l12.43,25.2Zm-8.84-18.4L180.61,52h8.59Z"/><path class="cls-1" d="M19.06,92H5.87a2.36,2.36,0,0,1-2.36-2.36V72.52H6V89.65H19V72.52h2.47V89.59A2.36,2.36,0,0,1,19.06,92Z"/><path class="cls-1" d="M44.86,92,30.35,76.49V92H28V72.52h2L44.5,88V72.52h2.39V92Z"/><path class="cls-1" d="M53.82,92V72.52h2.45V92Z"/><path class="cls-1" d="M71.22,92H69.81L60.37,72.52H63l7.55,15.85,7.55-15.85h2.58Z"/><path class="cls-1" d="M84.79,92V72.52H101v2.25H87.24v5.94h8.84V83H87.24V89.7h13.9V92Z"/><path class="cls-1" d="M121.29,92l-7.91-8H109v8h-2.44V72.52h14.54a2.36,2.36,0,0,1,2.36,2.36v6.75A2.36,2.36,0,0,1,121.12,84H116.6l7.93,8ZM121,76.24c0-.77-.36-1.41-1.14-1.41H109v6.85H119.9c.78,0,1.14-.64,1.14-1.41Z"/><path class="cls-1" d="M144.85,92H132a2.36,2.36,0,0,1-2.36-2.36v-2L132,86.9v2.8h12.71V83.15H132.22a2.35,2.35,0,0,1-2.36-2.35V74.88a2.36,2.36,0,0,1,2.36-2.36h12.29a2.36,2.36,0,0,1,2.36,2.36v2.06l-2.33.64V74.77H132.36v6.08h12.49a2.36,2.36,0,0,1,2.36,2.36v6.38A2.36,2.36,0,0,1,144.85,92Z"/><path class="cls-1" d="M153.47,92V72.52h2.45V92Z"/><path class="cls-1" d="M170.51,74.77V92h-2.44V74.77h-8V72.52h18.43v2.25Z"/><path class="cls-1" d="M191.41,83V92H189V83.1l-8.69-10.58h3l6.89,8.61,7.16-8.61h2.72Z"/></g><g id="shield"><g id="Logo_Mark" data-name="Logo Mark"><path id="TOP_FIELD" data-name="TOP FIELD" class="cls-1" d="M211.61,38.35v17l10.82,10.82,4.07-4.07L215.33,50.89l3.78-3.77,11.63,11.62V51L223,43.24l3.77-3.78,4,4V35.49a96.74,96.74,0,0,0-10.09,1A83.37,83.37,0,0,0,211.61,38.35Zm42,37c1.41-3.16,1.58-6.09,1.58-9.53v-3l-7,7Zm-7.46-38.9a96.59,96.59,0,0,0-10.08-1v7.95l4-4,3.78,3.78L236.08,51v7.76L247.7,47.12l3.78,3.77L240.32,62.06l4.07,4.07L255.2,55.31v-17A82.83,82.83,0,0,0,246.16,36.46ZM211.61,65.83c0,3.44.17,6.38,1.58,9.53l5.46-5.46-7-7Z"/><path id="BOTTOM_FIELD" data-name="BOTTOM FIELD" class="cls-1" d="M236.08,65.37v9.06l4.53-4.53Zm-5.34,9.06V65.37l-4.53,4.53ZM216.1,80A40.67,40.67,0,0,0,219,83.16a35.65,35.65,0,0,0,11.78,7.63V82l-8.31-8.31Zm28.29-6.32L236.08,82v8.8a35.75,35.75,0,0,0,11.78-7.63A38.49,38.49,0,0,0,250.71,80Z"/><path id="WHITE_LINES" data-name="WHITE LINES" class="cls-2" d="M223,43.24,230.74,51v7.75L219.11,47.12l-1.53,1.53L232.91,64V50.09l-8.39-8.39Zm24.71,3.88L236.08,58.75V51l7.75-7.75-1.54-1.54-8.38,8.39V64l15.33-15.33Zm-1.21-12.84a101.74,101.74,0,0,0-12.58-1.07V48.67L241.58,41l-1.53-1.54-4,4V35.49a96.59,96.59,0,0,1,10.08,1,82.83,82.83,0,0,1,9,1.89v17L244.39,66.13l-4.07-4.07,11.16-11.17L250,49.36l-16,16V79.67L255.2,58.38v1.41l-21.29,21.3v12.8a38.62,38.62,0,0,0,15.5-9.17c7.42-7.42,8-12.51,8-18.89V36.7A76.39,76.39,0,0,0,246.49,34.28ZM236.08,74.44V65.37l4.53,4.53Zm11.78,8.72a35.75,35.75,0,0,1-11.78,7.63V82l8.31-8.31L250.71,80A36.92,36.92,0,0,1,247.86,83.16Zm7.34-17.33c0,3.44-.17,6.38-1.58,9.53l-5.46-5.46,7-7ZM209.41,36.7V65.83c0,6.38.57,11.47,8,18.89a38.63,38.63,0,0,0,15.51,9.17V81.09l-21.3-21.3V58.38l21.3,21.29V65.4l-16-16-1.54,1.53L226.5,62.06l-4.07,4.07L211.61,55.31v-17a83.37,83.37,0,0,1,9-1.89,96.74,96.74,0,0,1,10.09-1v7.95l-4-4L225.23,41l7.68,7.67V33.21a101.86,101.86,0,0,0-12.59,1.07A76.48,76.48,0,0,0,209.41,36.7ZM230.74,82v8.8A35.65,35.65,0,0,1,219,83.16,38.92,38.92,0,0,1,216.1,80l6.33-6.32ZM218.65,69.9l-5.46,5.46c-1.41-3.15-1.58-6.09-1.58-9.53v-3Zm12.09-4.53v9.07l-4.53-4.54Z"/><path id="DARK_LINES" data-name="DARK LINES" class="cls-1" d="M258,35.91a76.22,76.22,0,0,0-11.39-2.55,100.35,100.35,0,0,0-13.22-1.09,100.44,100.44,0,0,0-13.23,1.09,76.22,76.22,0,0,0-11.39,2.55l-.32.11V65.83c0,6.39.61,11.89,8.27,19.55A39.37,39.37,0,0,0,233.3,95l.11,0,.11,0a39.37,39.37,0,0,0,16.55-9.59c7.66-7.66,8.27-13.16,8.27-19.55V36ZM217.4,84.72c-7.42-7.42-8-12.51-8-18.89V36.7a76.48,76.48,0,0,1,10.91-2.42,101.86,101.86,0,0,1,12.59-1.07V48.67L225.23,41l-.71.7,8.39,8.39V64L217.58,48.65l-.71.71,16,16V79.67l-21.3-21.29v1.41l21.3,21.3v12.8A38.63,38.63,0,0,1,217.4,84.72Zm40-18.89c0,6.38-.58,11.47-8,18.89a38.62,38.62,0,0,1-15.5,9.17V81.09l21.29-21.3V58.38L233.91,79.67V65.4l16-16-.71-.71L233.91,64V50.09l8.38-8.39-.71-.7-7.67,7.67V33.21a101.74,101.74,0,0,1,12.58,1.07,76.39,76.39,0,0,1,10.92,2.42Z"/></g></g></svg>