<?xml version="1.0" encoding="utf-8"?>
<!-- Generator: Adobe Illustrator 22.1.0, SVG Export Plug-In . SVG Version: 6.00 Build 0)  -->
<svg version="1.1" id="Layer_1" xmlns="http://www.w3.org/2000/svg" xmlns:xlink="http://www.w3.org/1999/xlink" x="0px" y="0px"
	 viewBox="0 0 93 182.6" style="enable-background:new 0 0 93 182.6;" xml:space="preserve">
<style type="text/css">
	.st0{fill:#FFFFFF;}
</style>
<g>
	<path class="st0" d="M93,0H0.2v182.7H93V0z M91,135.6H47.7V92.4H91V135.6z M45.6,135.6H2.3V92.4h43.3V135.6z M2.3,137.5h43.3v43.2
		H2.3V137.5z M47.7,137.5H91v43.2H47.7V137.5z M91,2v88.4H2.3V2H91z"/>
	<path class="st0" d="M17,99.3v17.1c0,6.4,2.9,9.2,6.7,9.2c4.2,0,7-2.8,7-9.2V99.3h3.8v16.9c0,8.9-4.7,12.4-10.9,12.4
		c-5.9,0-10.4-3.3-10.4-12.3v-17H17z"/>
	<path class="st0" d="M58.5,128.1V99.2h4.1l9.2,14.6c2.1,3.4,3.8,6.4,5.1,9.4H77c-0.3-3.9-0.4-7.4-0.4-11.8V99.2h3.5V128h-3.8
		l-9.2-14.6c-2-3.2-3.9-6.5-5.4-9.6h-0.1c0.2,3.6,0.3,7.1,0.3,11.9V128h-3.4V128.1z"/>
	<path class="st0" d="M16.9,147.7c1-0.2,2.4-0.4,4.4-0.4c7.9,0,11.8,4.2,11.7,11.1c0,7.8-4.3,12.3-12.3,12.2c-1.5,0-2.8,0-3.8-0.2
		C16.9,170.4,16.9,147.7,16.9,147.7z M13.1,173.3c1.9,0.3,4.1,0.3,6.8,0.3c5.6,0,10.1-1.5,12.8-4.2c2.7-2.6,4.2-6.5,4.2-11.2
		s-1.5-8-4.1-10.4c-2.5-2.4-6.4-3.6-11.7-3.6c-3,0-5.7,0.3-8,0.6C13.1,144.8,13.1,173.3,13.1,173.3z"/>
	<path class="st0" d="M65.1,147.6c0.6-0.1,1.9-0.3,3.5-0.3c4.1,0,6.8,1.8,6.8,5.7s-2.7,6.1-7.3,6.1c-1.2,0-2.3-0.1-3.1-0.3
		L65.1,147.6L65.1,147.6z M61.4,173.4h3.7v-11.6c0.9,0.2,1.9,0.3,3,0.3c3.6,0,6.9-1.1,8.8-3.2c1.5-1.5,2.3-3.6,2.3-6.2
		c0-2.6-1-4.7-2.6-6c-1.7-1.5-4.4-2.4-8.1-2.4c-3,0-5.4,0.3-7.2,0.6L61.4,173.4L61.4,173.4z"/>
	<g>
		<path class="st0" d="M69.3,64.7c-2,0.5-4.2,0.7-6.2,1.4c3.3-2.9,3.1-7.3,5.4-10.6c0.7-1,1.3-2,2.1-2.9c-1.4,2.7-0.8,6.2-2.3,8.9
			c-0.6,1-1.5,2.1-2.4,2.9c0.3,0,0.6-0.3,0.8-0.5c2.5-2.5,5.8-3.2,8.6-5.3c1.1-0.9,2.1-2,2.6-3.2C77.4,59.5,73.2,63.5,69.3,64.7z"/>
		<g>
			<path class="st0" d="M78.4,47.8c-1.2,1.8-2.7,3.4-3.9,5.2c0.1-1.4,0.3-3.2-0.3-4.5c-1-2.9-1.8-5.8-2.1-9v-1.2
				c0.7,3.2,3.9,5.5,3.7,9.1c0.1,0.9-0.2,1.6-0.4,2.4l0.1,0.1l0.1-0.2c0.5-1.8,0.7-3.6,1.4-5.3c1-2.4,2.3-4.8,1.8-7.7
				C80.6,40.1,80.1,44.6,78.4,47.8z"/>
			<path class="st0" d="M76.4,29.5c2.1,2.8,2.5,7.3,1,10.5c-0.6,1.4-1,2.8-1.2,4.4c-0.1-0.3-0.1-0.6-0.2-0.9
				c-0.8-3.2-3.8-5.4-5.1-8.4c-0.4-1-0.7-2-0.9-3c1.3,2.4,4.6,3.7,5.5,6.4c0.4,0.7,0.3,1.5,0.6,2.3c0,0,0.1,0,0.1-0.1
				c-0.4-2.8-0.3-5.7,0.1-8.4c0-1.5-0.2-2.9-1-4.1C75.8,28.4,76.1,29,76.4,29.5z"/>
			<path class="st0" d="M75,28.9c0.6,2.5-0.2,4.9,0.3,7.4l0,0c-1.3-2.6-4.2-3.9-6.2-6c-1.1-1.3-1.6-2.8-1.9-4.4
				c1.1,2.7,4.2,3.3,5.9,5.6c0.6,0.5,0.8,1.3,1.2,1.9l0.1-0.1c-1-2.1-1.3-4.6-2-6.8c-0.4-1-1-2-2-2.6C72.5,24.4,74.5,26.8,75,28.9z"
				/>
			<path class="st0" d="M68.8,23.3c1.7,1.5,2.5,3.5,3,5.6l0.3,0.7c-2.5-1.8-4.8-4.2-6.4-6.8l-2-2C65.5,21.5,67.4,22,68.8,23.3z"/>
			<path class="st0" d="M29.2,21.1c-1.7,1.5-2.9,3.4-4.2,5.2c-1.2,1.4-2.6,2.4-3.9,3.6c0.7-1.5,0.7-3.2,1.7-4.5
				C24.2,22.9,26.9,22,29.2,21.1z"/>
			<path class="st0" d="M19.7,26.4c0.8-1,1.9-1.8,3.1-2.1c-2.3,1.6-2.2,4.5-2.9,6.9c-0.2,0.9-0.6,1.7-0.8,2.6h0.1
				c0.4-1,1.1-2,1.9-2.8c1.7-1.5,4.1-2.5,4.9-4.7c0,3.1-2.7,5.6-5.2,7.4c-1,0.9-2,1.9-2.6,3.1c-0.1-0.8,0.1-1.6,0.1-2.4
				C18,31.6,17.8,28.4,19.7,26.4z"/>
			<path class="st0" d="M15,35.8c-0.1-2.8,1.1-5,2.7-7.1l0.1-0.1c-1.8,2.7-0.3,6.1-0.4,9.2L17.2,41c0,0,0,0.1,0.1,0.1
				c0.1-0.4,0.1-0.7,0.2-1.1c0.4-2.6,2.6-4.4,4.6-6.1c0.4-0.5,0.8-0.9,1-1.5c-0.2,1.3-0.6,2.6-1.1,3.7c-1.5,2.9-4.3,5.4-4.8,8.7
				C17,41.6,14.8,39.2,15,35.8z"/>
			<path class="st0" d="M13.7,39.7c0.2-0.9,0.4-1.8,0.7-2.6c-0.7,3.7,1.8,6.3,2.6,9.5c0.3,1.2,0.4,2.5,0.9,3.6c0,0,0.1,0,0.1-0.1
				c-1.2-3.4,0.5-6.5,2.3-9.2c0.4-0.7,0.7-1.5,0.9-2.3c0.2,1.5-0.2,3.3-0.4,4.9c-0.4,2-1.1,3.9-1.6,5.9c-0.4,1.2-0.3,2.6-0.1,3.9
				l-0.2-0.1c-1.3-2.4-3.8-4.2-4.6-6.8C13.6,44.4,13.2,42,13.7,39.7z"/>
			<path class="st0" d="M13.5,46.9c0.3,3.9,4.5,5.9,6.4,9.2c0.5,0.7,0.9,1.4,1.5,1.9c-0.1-0.4-0.5-0.8-0.6-1.2
				c-0.7-1.4-0.9-3-0.8-4.6c0.2-2,1-3.8,0.7-5.9c1.7,3.7,1.2,8.3,2.1,12.3c0.2,0.9,0.8,1.6,1.1,2.5c-3.5-2.4-8.3-4.7-9.9-9
				C13.5,50.5,13.4,48.6,13.5,46.9z"/>
			<path class="st0" d="M15.6,55.8c2,4.4,6.9,4.8,10.2,7.5c0.6,0.5,1.2,1,1.9,1.3l0,0c-0.8-0.7-1.6-1.5-2.2-2.3
				c-1.9-2.7-1.2-6.4-2.7-9.3c1.3,1.6,2.5,3.2,3.3,5c1.2,2.9,1.6,6.2,4.3,8.4c-2.9-1-6.4-0.7-9-2.5C18.7,62,16.2,59.1,15.6,55.8z"/>
			<path class="st0" d="M20.7,64.1c3.1,3.6,8.3,2.4,12.4,3.3c0.6,0.1,1.1,0.3,1.8,0.2c-0.5-0.3-1.2-0.3-1.7-0.6
				c-3.3-1.2-3.8-4.7-5.5-7.1c2.3,1.5,4.2,3.5,6.3,5.5c1.5,1.3,3.3,1.9,5.2,2.3c-0.5,0.2-1.1,0.1-1.6,0.2c-3.4,0.8-7.3,2.2-10.9,1
				C24.3,68.3,21.9,66.4,20.7,64.1z"/>
			<path class="st0" d="M63.3,72.4c-3.5,1.3-7.2-0.1-10-2.2c-1.1-0.7-2.1-1.7-3.6-1.6c-0.5,0-1,0-1.5,0.1c2.7,1.2,5.2,3,7.5,5.2
				c-0.4,0.4-0.9,0.8-1.4,1.2c-2.2-2.4-4.6-4.6-7.4-6c-0.5,0.1-1,0.4-1.5,0.6c-2.2,1.4-4.4,3.2-6.1,5.4L38,74
				c2.3-2.3,4.8-4.1,7.5-5.3c-2.7-0.8-4.4,1.4-6.5,2.5c-2.4,1.7-5.8,2.4-8.7,1.3c-1.5-0.6-3-1.4-4.2-2.8c2.3,1.6,5.6,1.7,8.2,0.7
				c3.5-1.5,7-3.4,11.2-2.5c0.6,0,1.3,0.7,1.9,0.1c3.1-0.8,6.6-0.2,9.3,1.2l2.7,1.1c2.5,0.9,5.8,0.7,8-0.9
				C66.4,70.8,64.9,71.8,63.3,72.4z"/>
			<path class="st0" d="M67.1,68.7c-4,1.5-8-0.3-11.8-1l-0.7-0.1l0,0c1.8-0.4,3.6-1,5-2.3c2.1-2,4-4.2,6.4-5.8
				c-1.8,2.2-1.9,5.4-4.8,6.9c-0.7,0.5-1.6,0.6-2.4,0.9c1.1,0,2-0.4,3.1-0.5c3.9-0.6,8.3,0,11.1-3.3C71.9,66,69.4,67.9,67.1,68.7z"
				/>
			<path class="st0" d="M74.3,57.6c-1.6,1-3.2,2-4.7,3.1v-0.1c2.3-3.8,1.2-9.1,2.6-13.3l0.5-1.4c-0.3,2.6,0.8,4.8,0.8,7.5
				c-0.1,1.6-0.6,3-1.4,4.3h0.1c1.1-1.5,2-3.1,3.3-4.5c2.1-2,4.1-4,4.4-6.7C80.7,51,78.1,55,74.3,57.6z"/>
		</g>
		<path class="st0" d="M68,32.3C64.1,24,55.6,18.8,46.8,18.8c-3.9,0.1-7.5,0.9-10.7,2.5C30.3,24.1,25.5,30.1,24,36
			c-2.6,10,0.9,20.2,9.5,26.1c6.2,4.4,16.1,5.3,23,1.9c6.2-2.6,11.5-8.9,13.1-15.2C71.1,43.5,70.5,37,68,32.3z M69.1,40.6
			c0.1,0.4,0,0.9,0.2,1.2l-3.4,0.1C65.8,42,65.7,42,65.6,42l0.1-0.1c-0.1-2.7-0.8-5-1.8-7.3c0-1-1-1.7-1.4-2.6
			c-0.8-0.5-1-1.4-1.8-1.9c-0.2-0.2-0.2-0.5-0.5-0.5l0.4-0.1c0.8-0.8,1.7-1.6,2.3-2.5C66.4,30.8,68.7,35.3,69.1,40.6z M59.5,53.3
			c-0.3-0.3-0.3-0.8-0.8-0.8c-0.2,0-0.2,0.1-0.2,0.3c0,0.1,0,0.2,0,0.2l-1.2-1c0.5-0.3,0.9-0.9,1.3-1.4c1-1.4,1.6-2.9,2.1-4.5
			c0.2,0.1,0.4,0.1,0.5,0c0.2-0.1,0.2-0.4,0.1-0.5l-0.4-0.4c0-0.7,0.2-1.4,0.2-2.1l0.3,0.1c1.1,0,2.2,0.1,3.3,0l-0.2,0.2
			c-0.3,4.2-1.8,8.1-4.7,11.2C59.8,54.1,59.5,53.7,59.5,53.3z M56.7,56.7c-0.6-0.6,0.4-1,0.6-1.6c-0.1-0.6-0.7-0.9-1.2-1
			C55.9,54,56,53.7,56,53.5c0.2-0.2,0.4-0.4,0.5-0.7l0.1,0.2l1.4,1.5c0,0.3,0.1,0.6,0.4,0.8c0.2,0.1,0.3-0.1,0.5,0h-0.1
			c-0.6,0.7-1.4,1.2-2.1,1.8l-0.2,0.2C56.5,57.1,56.9,56.9,56.7,56.7z M50.2,38.4c-0.2,0.1-0.4,0.2-0.6,0.1
			c-0.2-0.2-0.5-0.5-0.8-0.5c-0.2,0.1-0.4,0.3-0.6,0.2c0.4-0.5,1.2-0.5,1.5-1.2c0.1-0.3,0.2-0.6,0.1-0.9c-0.1-0.1-0.3-0.3-0.4-0.1
			c-0.2,0.4-0.8,0.5-1,0.9l-0.8-0.3c-0.1-0.8,0.1-1.8-0.2-2.4c0.4,0.2,0.9,0.2,1.4,0.3c1.2,0.3,2.3,0.9,3.4,1.5
			c-0.2,0.1-0.5,0.4-0.7,0.6c0,0.2,0.2,0.2,0.3,0.3l0.2-0.1C51.5,37.6,50.3,37.5,50.2,38.4z M51.1,48.2c0,0.4-0.6,0.4-0.9,0.7
			c-0.2-0.1,0-0.2,0-0.3C50.5,48.3,50.7,48.1,51.1,48.2z M57.8,36.9c0.4,0.1,0.6,0.5,1,0.6c0.4,0.5,0.5,1.2,0.7,1.8
			c-0.3,0.4-0.3,1.1-1,1c-0.2-0.4,0.3-0.6,0.2-1c0.1-0.1,0.3-0.1,0.3-0.3c0-0.4-0.5-0.3-0.5-0.6c-0.1-0.2-0.4-0.2-0.6-0.2
			c-0.5-0.2-0.9,0.9-1,0c0.1-0.1,0.2-0.3,0.1-0.4c-0.4-0.2-0.4-0.8-0.8-1c-0.6,0-1.1-0.2-1.7-0.1c-0.4-0.1-0.8-0.3-1.1,0.1
			c0,0.3-0.2,0.5-0.2,0.8c-0.1-0.1-0.2-0.2-0.3-0.3c1-1.2,2.2-2.3,3.3-3.4l0.1-0.1c0.5,0.7,1.2,1.3,1.6,2.1
			C57.9,36.1,57.1,36.6,57.8,36.9z M59.9,43.1c-0.2,0.6-0.2,1.4-0.3,2c0,0.1,0,0.2-0.1,0.3c-0.2-0.4-0.4-0.9-0.8-1.2
			c-0.4-0.2-0.1-0.7-0.5-1L57.7,43C58.4,43.2,59.2,43.2,59.9,43.1z M55,33.2c-0.6,0.7-1.4,1.3-2,2.1L52.9,35
			c-1.5-1.3-3.3-1.9-5.3-2.2l-0.3,0.1v-3.2l-0.1-0.3c1.3,0.2,2.6,0.4,3.8,0.8c1.5,0.5,2.9,1.4,4.2,2.4l0.3,0.1L55,33.2z M51.7,50.6
			c1,0.1,2,0.3,2.9,0.7c0.2,0,0.5,0,0.6-0.2c-0.1-0.4,0.4-0.6,0.4-1c0.2-0.3,0.1-0.8,0.3-1.1c0-0.4,0-0.9-0.3-1.2
			c-0.3-0.2-0.5,0-0.7,0.1c-0.3,0.2-0.2,0.8-0.7,0.7c-0.1,0.2-0.3,0.2-0.5,0.1c0-0.1-0.1-0.1-0.1-0.1c0.4-0.2,1-0.1,1-0.6
			c0.3-0.2,0.7-0.1,0.9-0.4c0.2-0.3,0.3-0.5,0.5-0.8c0-0.1,0.1-0.2,0.1-0.4c0.1,0.2,0.1,0.4,0.3,0.5c0.3,0.1,0.4-0.1,0.5-0.3
			c0-0.1,0.1-0.2,0.2-0.1c0.3,0.2,0.7,0,1,0.1c0.3-0.1,0.6-0.2,0.9-0.2c-0.3,1.3-0.9,2.5-1.7,3.6c-0.3,0.4-0.6,0.8-0.9,1.1
			c-0.1-0.3-0.1-0.6-0.3-0.9H56c-0.2,0.4-0.6,0.7-0.5,1.1c-0.3,0.4-1,0.1-1.4,0.3c-0.5,0.2-0.8-0.3-1.2-0.4c-0.4-0.2-1-0.2-1.4-0.4
			C51.6,50.7,51.6,50.6,51.7,50.6z M49.5,20.3c4.7,0.6,8.9,2.5,12.5,5.9l-0.4,0.2c-0.6,0.7-1.4,1.3-1.8,2.1c0-0.2-0.4-0.4-0.5-0.6
			c-0.1-0.6-0.7-1.3-1.2-1.6c-0.5-0.1-0.6-0.8-1.1-0.6c-0.5-0.4-1.1-0.1-1.5,0.1v0.1c-2.2-1.3-4.7-2.1-7.4-2.3
			c-0.1,0-0.2,0.1-0.3,0.1c0.1-0.1,0.1-0.4,0.1-0.5c-0.1-0.1-0.2-0.3-0.4-0.2c-0.1,0.1-0.1,0.2-0.1,0.3c0.1-1,0.1-2.3,0-3.2
			C47.9,20.2,48.8,20.1,49.5,20.3z M48.6,25c2.1,0.2,3.9,0.8,5.7,1.6c0.3,0.4,0.8,0.6,0.9,1.1c-0.3,0.7,1,0.7,0.4,1.4
			c0,0.2,0.2,0.4,0.2,0.5c0.1,0.2,0,0.5,0.2,0.6c0.4,0.1,0.6-0.5,1-0.3c0.6,0.4,0.7,1.1,0.7,1.7c0.1,0.4,0.4,0.6,0.7,0.8
			c0.7-0.2,0.4,0.6,0.8,0.8c0.5,0.1,0.8,0.8,1.4,0.7c0.5,0.4,0.8,1,1.3,1.4c0,0.1,0,0.2,0.1,0.2c0.3,0.1,0.5-0.1,0.7-0.1
			c0.9,1.9,1.4,3.9,1.5,6.1l0.1,0.2c-1.1,0-2.3,0-3.5,0.1c0-0.7,0-1.4-0.4-1.9c0.2-0.4,0.2-0.8,0.2-1.2c-0.1-0.2-0.2,0-0.3,0
			c-0.4,0.4-0.4,0.9-0.6,1.3c-0.3,0.5-0.4,1.2-0.2,1.7l0.1,0.1h-1.3c0.3-0.2-0.3-0.6,0-0.9l0.6-0.1c0.2-0.4,0.7-0.8,0.6-1.3
			c0.3-0.3,0.5-0.7,0.3-1.2c-0.3-0.6,0.5-1.3-0.1-1.9c0.1-0.2-0.1-0.4-0.3-0.4c-0.2-0.1-0.4,0-0.4-0.3c0.1-0.2,0.4-0.3,0.3-0.6
			c-0.1-0.2-0.4,0-0.5,0c0-0.3,0.5-0.6,0-0.8c-0.3-0.1-0.5,0.3-0.8,0.2c-0.1-0.1-0.2-0.3-0.1-0.5l-0.7-0.9c-0.1-0.1-0.3,0-0.3-0.1
			c0-0.7-0.8-1.1-0.8-1.8c-0.3-0.2,0-0.7-0.4-0.9c-0.2-0.1-0.4-0.3-0.7-0.2c-0.3-0.4-0.6-0.8-1-1.2c-0.1,0-0.2,0-0.3,0.1
			c0.1,0.3,0.4,0.5,0.4,0.9c-0.1,0-0.1,0-0.1,0c0,0.3,0.3,0.6,0.5,0.8c-1.8-1.4-4-2.2-6.3-2.5c-0.4,0-0.9-0.2-1.4,0
			c0.1-1,0-2.2,0.1-3.3l-0.1-0.2C47.6,25,48.1,24.9,48.6,25z M46.6,38.5l0.2,0.1c-0.2,0-0.5-0.1-0.7,0c-0.1,0.1,0,0.3,0,0.4
			c0.4,0.2,0.5,0.9,1.1,0.6c0.2,0,0.5,0.1,0.6,0.4c0.3,0.1,0.4,0.7,0.8,0.6c0,0.2-0.1,0.6,0.2,0.8c-0.1,0.2-0.3,0.3-0.3,0.5
			c-0.1,0.1-0.1,0.2,0,0.3c0.4,0,0.4,0.5,0.6,0.8c-0.1,0.3,0,0.7,0.3,0.9c0,0.4-0.2,0.7-0.4,1.1c-0.5,0.2-1.2-0.3-1.4,0.5
			c-0.3,0.3,0,0.9-0.5,0.9c-1,0.1-1.9-0.1-2.6-0.7c0.5-0.2,1.3,0.1,1.5-0.6c0.1-0.1,0.2-0.3,0.1-0.4c0.2-0.2,0.3-0.5,0.4-0.8
			c-0.2-0.2-0.1-0.3-0.1-0.5c-0.5-0.5-1.1-0.2-1.8-0.2c-0.4,0.2,0,0.6-0.3,0.9c-0.5,0.1-0.5,0.5-0.8,0.8c-0.2-0.1-0.3-0.3-0.3-0.5
			h0.1c0,0.1,0,0.2,0.1,0.2c0.4,0.1,0.3-0.4,0.4-0.7c0.1-0.3,0.7-0.7,0.2-0.9c0-0.1,0.1-0.3-0.1-0.3c-0.2,0.1-0.4,0.1-0.5,0.3
			c0.1,0.2,0,0.4-0.2,0.6h-0.1c0-0.1-0.1-0.2-0.2-0.3c-0.3,0-0.5,0.2-0.8,0.1c-0.4,0.1-0.8,0.2-1.2,0.2c0-0.2,0.3-0.2,0.4-0.4
			c-0.1-0.4,0.2-0.6,0.3-0.8c0.1-0.1,0.3-0.1,0.4,0c0.1,0.1,0.2,0.2,0.3,0.1l0.1-0.2c0.4,0.2,0.2,1.2,0.8,0.8c0.1-0.4,0-1,0.2-1.4
			c-0.2-0.4,0.2-0.5,0.4-0.8c0.4,0,0.3-0.4,0.5-0.6c0.6-0.2,1.1-0.3,1.5-0.9c-0.1-0.3,0-0.7-0.3-1C46,38.4,46.4,38.3,46.6,38.5z
			 M46.1,60.3l-0.3-0.2c-4.4-0.2-8.1-2-11.4-4.9c0.5-0.1,0.7,0.6,1.3,0.5s1.1-0.6,1.8-0.5c0.3,0,0.7,0,0.9-0.3
			c0.1-0.4-0.3-0.5-0.3-0.8c2.2,1.7,4.7,2.7,7.6,2.8l0.3-0.1v3.1L46.1,60.3z M33.7,43.4l-0.2-0.3c0.4,0.3,0.7,0.2,1.1,0.1
			c-0.6,0.2-0.4,0.9-0.6,1.3c0,0.2,0.3,0.3,0.2,0.5c-0.3,0.1-0.3,0.4-0.4,0.7C34.1,44.9,33.8,44.2,33.7,43.4z M30.2,47.4
			c-0.3,0-0.2,0.4-0.4,0.6c0-0.8-0.3-1.6-0.4-2.5l-0.3-2.2L29,43.2c1,0.2,2.2,0.1,3.3,0.1l0.3-0.1c-0.1,0.5-0.1,1.3,0.3,1.7
			c-0.1-0.1-0.3-0.6-0.6-0.5c-0.6,0-0.6,0.8-1.2,0.8c-0.5,0.4-0.6,1-0.7,1.6C30.4,47,30,47.2,30.2,47.4z M32.6,42l-0.3-0.1H29
			c0.3-3.6,1.3-6.9,3.4-9.8l1.3-1.6v-0.2c0.8,0.9,1.6,1.7,2.5,2.5c-2.3,2.5-3.5,5.5-3.8,8.8C32.5,41.8,32.4,41.9,32.6,42z M46,28.3
			c-0.6-0.1-1.2,0.1-1.9,0.1C41.5,29,39,30.1,37,32l-0.1-0.2c-0.8-0.7-1.5-1.6-2.4-2.2c0.8-0.4,1.4-1.1,2.2-1.6
			c2.7-1.8,5.8-2.9,9.2-3.1C45.8,26,45.9,27.2,46,28.3z M40.7,46c0,0.1,0.2,0.2,0.3,0.1c0.1-0.2-0.3-0.5,0-0.6
			c0.2,0.2,0.1,0.6,0.2,0.8c0.1,0.1,0.1,0.3,0.1,0.5c-0.3,0.4-0.8,0.7-1,1.2c-0.2-0.5-0.7-1-0.9-1.5c-0.3-0.6-0.5-1.3-0.8-1.9
			c0.3,0.4,1,0,1,0.6c0,0,0.1,0,0.2,0c0.1-0.1,0.1-0.1,0.2-0.1c0.1,0.1,0.3,0.2,0.1,0.3C40.2,45.7,40.4,46,40.7,46z M44.2,55.2
			l0.6,0.3c-2.1-0.5-4.3-1.2-6-2.7c-0.3-0.2-0.5-0.6-0.9-0.6c0.8-0.7,1.7-1.6,2.3-2.4c0.3,0.6,1,0.9,1.5,1.2c0.9,0.4,1.8,1.2,2.9,1
			c-0.3,0.1-0.6,0.3-0.9,0.6c-0.1,0.3-0.1,0.8-0.5,0.9C43.1,54.1,43.8,54.7,44.2,55.2z M36.7,51l-0.1-0.7c-0.7-0.6-0.5-1.6-0.6-2.4
			c-0.5-0.4-0.1-1-0.4-1.4c0-0.7-1.1-0.9-0.7-1.7c-0.1-0.2-0.3-0.4-0.1-0.7c0.2-0.2,0.7,0,0.8-0.3l0.1-0.6c0.2-0.1,0.6,0.2,0.7-0.2
			c0.2-0.6-0.9-1.3,0.1-1.6c0.3,0,0.8-0.1,0.9,0.3c0.1,0.4,0.2,0.9,0,1.4c0.3,0.1,0,0.4,0,0.6c-0.2,0.1-0.4,0.3-0.6,0.2
			c-0.1-0.2-0.3-0.4-0.5-0.4c-0.2,0.2,0.1,0.5,0,0.8c-0.1,0.2,0,0.4-0.1,0.5c-0.1-0.1-0.2-0.1-0.3-0.1c-0.2,0.1-0.1,0.3,0,0.4
			c0.2,0.1,0.4,0.3,0.6,0.3l0.1-0.1c0-0.4,0.2-0.7,0.2-1l0.3,0.2c0.3,1.5,1,2.8,1.8,4l0.4,0.4c-1.1,0.9-2.1,2-3,3.1l0,0
			c0,0,0-0.2-0.2-0.2C36.1,51.4,36.8,51.5,36.7,51z M38.3,37.1c-0.3,0.2-0.6,0.5-0.8,0.8c-0.3,0.2-0.6,0.2-0.9,0.5
			c0,0.1,0.2,0.3,0,0.4c-0.3,0.3-0.8-0.1-1,0.4c0,0.4-0.6,0.7-0.5,1.2c-0.3,0.2-0.2,0.6-0.2,0.8c0.2,0.2-0.1,0.5,0.2,0.7
			c-0.5-0.1-1.1-0.1-1.5,0.1c0.2-0.5,0.2-1.2,0.3-1.8c0.4-2.4,1.5-4.6,3.2-6.5c0.8,0.8,1.7,1.7,2.6,2.4C39,36.2,39,37.2,38.3,37.1z
			 M45.6,49.8c-0.2,0.3,0,0.7-0.1,1c-1.6-0.3-3-0.9-4.2-2c0.7-0.8,1.7-1.5,2.2-2.3c0.1,0.4,0.5,0.6,0.8,0.7c0.6,0.3,1.4,0.7,2.1,0.4
			c-0.1,0-0.1,0.1-0.2,0.1c0.2,0.2-0.2,0.4,0.1,0.6c0,0.2-0.2,0.1-0.2,0.2c0.1,0.2,0,0.6,0.3,0.7c0.1,0.1,0,0.3-0.1,0.3
			C46,49.6,45.7,49.6,45.6,49.8z M41.8,46.3c0.2-0.2,0.4-0.5,0.5-0.8l0.4,0.2C42.3,45.7,42.1,46.1,41.8,46.3L41.8,46.3z M45.1,36.7
			c-0.1-0.2,0.1-0.3-0.1-0.4c-0.5,0.2-0.3,0.8-0.7,1.2c-0.1,0.3-0.5,0.2-0.6,0.3c-0.1-0.2-0.4-0.2-0.6-0.1c-0.3,0-0.3-0.6-0.6-0.3
			c-0.1,0.1,0,0.3-0.3,0.2c0-0.1-0.1-0.1-0.2-0.1c0-0.2,0.3-0.2,0.2-0.4c-0.2-0.4-0.7-0.3-1-0.6h-0.3c1.4-1.5,3.1-2.1,5-2.4
			c0,0.8-0.1,1.8,0.2,2.6C45.8,36.4,45.4,36.9,45.1,36.7z M46,32.9c-0.6-0.1-1.2,0.1-1.8,0.2c-1.3,0.3-2.5,1.1-3.6,1.9
			c-0.1,0.1-0.1,0.2-0.2,0.3c-0.8-0.7-1.6-1.7-2.5-2.3c2.3-1.9,4.9-3.1,7.9-3.3l0.2-0.1C45.9,30.6,45.9,31.8,46,32.9z M33.2,24.6
			c3.7-2.7,7.9-4.3,12.7-4.5l-0.1,0.3v2.8l0.1,0.3c-4.6,0.2-8.6,1.9-12,5.1l-0.1,0.2C33,28,32.1,27,31.2,26.3h-0.1
			C31.9,25.8,32.5,25.1,33.2,24.6z M24.5,39.8c0.6-4.9,2.7-9.1,6-12.8l0.1,0.3c0.8,0.8,1.6,1.6,2.4,2.3c-0.7,0.4-1,1.2-1.6,1.8
			c-2.1,3-3.3,6.3-3.5,10.1L28,42c-1.2-0.1-2.5-0.1-3.6,0C24.4,41.2,24.3,40.5,24.5,39.8z M27.2,53.6c-1.7-3.1-2.7-6.6-2.9-10.3h3.3
			l0.3-0.1c0,0.2,0,0.4,0,0.7l0,0C27.8,44,28,44,28,44.1c0.1,1.2,0.3,2.4,0.6,3.6l0.2,0.3c-0.2-0.2-0.3-0.5-0.5-0.7
			c-0.3,0-0.6,0.1-0.8,0.3c0.1,0.3-0.2,0.2-0.4,0.3c0-0.1-0.1-0.2-0.2-0.2c-0.2,0-0.5,0-0.6,0.3c0,0.2-0.2,0.3-0.2,0.4
			c-0.1,0.5-0.2,1.2,0.1,1.7c0,0.4,0.2,0.7,0.5,1c0.1,0,0.2-0.1,0.3-0.1c0.3,0.2,0.5,0.8,1,0.7c0.1-0.1,0.1-0.2,0.1-0.3
			c0.2,0.2,0.4,0.8,0.8,0.7c0.1,0.1,0.2,0.3,0.4,0.3c0.5-0.1,0.3,0.6,0.7,0.8c0.3,0.2,0.4,0.6,0.8,0.4l0.1-0.2
			c0.1,0.1,0,0.3,0.1,0.5c0.2,0.4,0.6,0.6,1,0.8c0.3,0.4,0.7,0.8,1.1,1.1l-0.3,0.1L30.3,58C29.2,56.5,28,55.1,27.2,53.6z M43.8,64.7
			c-4.7-0.6-8.9-2.7-12.6-5.9l2.4-2.4v-0.1c3.4,3.2,7.4,4.9,12,5.2l0.4-0.1v0.1v3.2l0.2,0.3C45.4,64.8,44.5,64.8,43.8,64.7z
			 M46.6,51.4c-0.3,0-0.5,0-0.7-0.1c-0.1,0-0.1-0.1-0.1-0.2c0.3,0,0.5-0.4,0.9-0.3c0.2-0.2,0.2-0.5,0.5-0.6
			c-0.1-0.3,0.3-0.1,0.4-0.3c0.1-0.1,0.2-0.2,0.4-0.1c0.2,0.3,0.7,0.2,1,0.6c0.1,0,0.2-0.1,0.1-0.2V50c0.4,0,0.6,0.5,1,0.1
			c0.1-0.1,0.1-0.3,0-0.3c0,0-0.1,0-0.1-0.1c0.3-0.1,0.4,0.4,0.8,0.2c0.3-0.2,0.5-0.5,0.8-0.5l0.1,0.1c0.1,0.7-0.5,1.1-1.1,1.4
			c-0.3,0.1-1,0.1-0.9,0.6c-0.4,0.4-0.8-0.2-1.2-0.1c-0.2-0.1,0-0.4-0.3-0.5C47.6,51.3,47,50.8,46.6,51.4z M47.5,57.3
			c0.4,0.2,1.2-0.2,1.4,0.3c-0.1,0.3-0.3,0.5-0.3,0.8c0.2,0.4,0.4,1,1,1c0.1,0.2,0.3,0.2,0.5,0.3c-0.9,0.2-2,0.1-2.8,0.4
			c0.1-1,0-1.9,0-2.9l-0.2-0.3C47.3,57.1,47.4,57.3,47.5,57.3z M47.5,64.9L47.3,65c0.1-1.2,0.1-2.5,0-3.7c0.6,0.2,1.2,0,1.8,0L51,61
			c0.9,0.2,1.5,1.6,2.5,0.7c0.3-0.4,0.9-0.4,1.2-0.9c0.6-0.2,0.7-0.8,1.1-1.2c0.4-1.1,1.6-1.3,2.4-2c0.6-0.5,1.3-0.9,1.6-1.6
			l0.1,0.3l2.5,2.4C58.1,62.5,53.2,64.6,47.5,64.9z M69.2,43.3c-0.2,5.5-2.3,10.3-5.9,14.4l-0.1,0.2c-0.7-0.8-1.7-1.9-2.6-2.6
			c0.5-0.4,1-1,1.4-1.5c2.2-3.1,3.5-6.5,3.7-10.4L65.6,43l0.2,0.1h3.4l0.2-0.1L69.2,43.3z"/>
		<path class="st0" d="M57.2,24.9c0,0.1,0,0.2,0.1,0.3c0.5,0.2,0.6,0.9,1.2,0.7c0.2-0.2-0.1-0.4-0.1-0.7c-0.1-0.2-0.3-0.4-0.5-0.4
			C57.6,25,57.4,24.6,57.2,24.9z"/>
		<path class="st0" d="M47.8,22.9c0.6,0.8,1.7,0.4,2.5,0.2c0.6,0.2,1.1,0,1.5-0.4v-0.1C51.4,22,50.6,22,50,21.9l-1.7,0.7
			c-0.1-0.1-0.4-0.1-0.5,0.1C47.7,22.7,47.7,22.8,47.8,22.9z"/>
	</g>
</g>
</svg>
