<?xml version="1.0" encoding="utf-8"?>
<!-- Generator: Adobe Illustrator 22.1.0, SVG Export Plug-In . SVG Version: 6.00 Build 0)  -->
<svg version="1.1" id="English" xmlns="http://www.w3.org/2000/svg" xmlns:xlink="http://www.w3.org/1999/xlink" x="0px" y="0px"
	 viewBox="0 0 202 104.7" style="enable-background:new 0 0 202 104.7;" xml:space="preserve">
<style type="text/css">
	.st0{fill:#FFFFFF;}
</style>
<g>
	<g>
		<g>
			<g>
				<g>
					<g>
						<g>
							<path class="st0" d="M159.4,50.9c-8-2.4-13.8-9.8-13.8-18.6c0-1.6,0.2-3.1,0.5-4.6l12.6,1.6c0,0,4.8,0.2,4.7,8.8
								C163.2,46.5,159.4,50.9,159.4,50.9z"/>
							<path class="st0" d="M170.7,50.9c8-2.4,13.8-9.8,13.8-18.6c0-1.6-0.2-3.1-0.5-4.6l-12.6,1.6c0,0-4.8,0.2-4.7,8.8
								C166.8,46.5,170.7,50.9,170.7,50.9z"/>
							<path class="st0" d="M165,18.4c1.6,0,2.9,1.3,2.9,2.9c0,1.3-0.9,2.2-1.9,2.8c-0.1,0.1-0.2,0.1-0.2,0.3c0,0.2,0.6,0.3,0.9,0.4
								l17,2c-2.4-8-9.8-13.9-18.6-13.9h0c-8.8,0-16.3,5.9-18.6,13.9l17-2c0.3-0.1,0.9-0.2,0.9-0.4c0-0.2-0.1-0.3-0.2-0.3
								c-1.1-0.6-1.9-1.5-1.9-2.8C162.1,19.7,163.4,18.4,165,18.4L165,18.4z"/>
						</g>
						<g>
							<path class="st0" d="M172.8,64.7l1.1-0.7c0,0-5.5-7.4-17.7-7.4c-6.2,0-9.5,2.5-13.8,2.5c0,0-1.8,0.2-3.5-0.9c0,0,2.1,3,9.6,3
								c5.5,0,9.5-3.2,13.3-3.2C167.2,58,171.1,62.8,172.8,64.7z"/>
						</g>
						<g>
							<path class="st0" d="M155.8,64.7l-1.1-0.7c0,0,5.5-7.4,17.7-7.4c6.2,0,9.5,2.5,13.8,2.5c0,0,1.8,0.2,3.5-0.9c0,0-2.1,3-9.6,3
								c-5.5,0-9.5-3.2-13.3-3.2C161.4,58,157.5,62.8,155.8,64.7z"/>
						</g>
						<path class="st0" d="M150,55.9c-0.2,0.6-2.5-0.1-4.1,0.4c-1.8,0.5-11.1,1.7-15.2-8c0,0,3.9,4.2,6.9,4.4c3,0.3,6.3,1,9.1,2.6
							l0.6,0.1c0,0-0.1-0.3-0.4-0.4c-0.4-0.2-3.3-1.1-4.7-5.7c-0.7-2.4-0.6-4.1-0.9-5.3c0,0,3.2,3.5,4.4,5.7
							C147.2,51.9,147.4,54.4,150,55.9z"/>
						<path class="st0" d="M140.5,51.1c-0.2,0.2-0.8-0.1-1-0.3c-0.2-0.1-1.8-0.8-4.4-1.8c-2.6-0.9-7.5-5.1-7-12.1
							c0,0,0.7,2.7,2.7,4.4c2,1.8,2.7,2,3.9,3.4c1.2,1.4,4,4.7,4.1,4.7c0.1,0,0.1-0.2-0.1-0.4c-0.2-0.2-0.9-2-1.4-2.6
							c-0.5-0.6-1.9-4.8,0.2-10c0,0,2.2,3.8,2,7.6c-0.1,3.8-0.3,2.9,0.6,6.1C140.1,50.1,140.6,51,140.5,51.1z"/>
						<path class="st0" d="M134.4,41.8c-0.1,0.1-0.7-0.7-1.1-1.4c-0.4-0.8-3.4-4-3.8-4.6c-0.4-0.6-3.8-4.7-1.2-10.8
							c0,0,0.3-0.1,0.3,1.4s1.3,4.6,2.4,6c1.1,1.4,2,3.6,2.3,5.9c0,0,0.1,0.4,0.3,0.5s0.2-0.4,0.2-0.4s-0.1-2.2-0.1-3.6
							c0-1.5,0.6-4,2-5.4c0,0,0.6-0.7,1-1.6c0,0,0.3-0.6,0.6-0.9c0,0,0.3,4.1-1.1,8c-1.4,3.8-1.9,4.5-1.7,6.6
							C134.5,41.3,134.5,41.8,134.4,41.8z"/>
						<path class="st0" d="M132.1,30.5c-0.1,0-0.3-0.5-0.3-0.9c-0.1-0.4-0.5-2.7-0.8-3.2c-0.3-0.5-1.4-2.8-1.4-5.5s1.2-6.4,3.9-9.3
							c0,0-0.1,0.9-0.8,2.8c-0.7,1.9-0.3,3.7-0.2,4c0.1,0.3,0.3,2.5,0.3,3.6c0,0.8-0.2,3.7-0.4,4.2c0,0-0.1,0.4,0.1,0.4
							s0.3-0.3,0.3-0.3s0.1-2.2,1.8-4.2c1.7-2,4.6-3.2,5.1-4.1c0,0-0.2,3.2-3.7,6.9c-3.1,3.3-2.2,1.6-3.2,4.3c0,0-0.4,1-0.4,1.2
							C132.3,30.6,132.1,30.5,132.1,30.5z"/>
						<path class="st0" d="M134,19.9c0,0-0.1-0.4,0.5-1.4c0.5-1,0-2.7,0.7-5.2c0.7-2.5,2-6.8,7.1-9.4c0,0-0.5,0.5-0.8,0.8
							c-0.3,0.4-1.6,2.9-2,4.7s-2.1,4.8-2.8,5.5c-0.6,0.7-0.4,0.8-0.4,0.8s0.3-0.1,0.6-0.6c0.3-0.5,2-2.4,3.8-2.8
							c1.8-0.4,4.7-1.3,4.9-1.5c0,0-3.2,3.2-6.1,4.9s-3.2,1.1-5,3.4C134.7,19.1,134.1,19.9,134,19.9z"/>
						<path class="st0" d="M140.9,10.3c0,0,0-0.3,0.5-0.8c0.5-0.5,1.1-2,2-3.4c0.9-1.4,3-5.1,8.5-5.9c0,0-1.7,1.2-1.9,1.6
							c-0.3,0.4-1.9,2.5-2.6,3.2c-0.7,0.7-2.8,2.2-3.4,2.5c0,0-0.4,0.3-0.3,0.4c0.1,0.1,0.4-0.1,0.4-0.1s1.9-1.5,4.2-1.5
							c2.3-0.1,4.7,0,5.1,0.1c0,0-2.2,1.5-7.3,2.4c-5.1,0.9-4.2,1-5,1.5C141.2,10.3,141.1,10.4,140.9,10.3z"/>
						<path class="st0" d="M150.1,4.4c0,0,0.1-0.3,0.9-0.5c0.8-0.3,0.8-1,3.3-2.4c2.5-1.3,5.1-1.9,7.8-0.8c0,0-1.1,0.1-1.3,0.2
							c-0.2,0.1-2.1,0.6-2.6,0.9c-0.5,0.3-3.3,1.5-4.4,1.7c-1.1,0.2-0.6,0.3-0.6,0.3s0.3,0.1,0.5,0.1c0.2,0,2.7-0.3,4.3,0.3
							c1.6,0.6,1.6,0.8,2.2,1c0.6,0.2,1.4,0.4,1.5,0.6c0,0-1.6,0.1-2.6,0.1c-1,0-3.5-0.3-4.7-0.8c-1.2-0.6-2.6-0.8-3.1-0.7
							C150.8,4.5,150.2,4.5,150.1,4.4z"/>
						<path class="st0" d="M160.3,3.1c0,0,0.1-0.1,0.8-0.3c0.7-0.1,0.9-0.6,2.6-0.9c1.7-0.4,4.3-0.7,6.7,1c0,0-1.5,0-1.8,0
							s-3.1,0.5-3.8,0.5c-0.6,0-1.9-0.3-2.1-0.1c-0.2,0.2,1.2,0.5,1.4,0.6c0.2,0.1,1.2,0.1,2.4,1.3c1.2,1.2,2.1,1.8,2.2,1.9
							c0,0-3.6-0.8-4.5-1.3s-2.4-2-2.7-2.2C161.3,3.5,160.3,3.1,160.3,3.1z"/>
						<path class="st0" d="M168.5,4.6c0,0,2.3-0.1,3.9,1c1.7,1,3,2.4,3.1,3.2c0,0-0.9-0.8-1.5-1c-0.6-0.2-2.3-1.1-2.7-1.4
							C171,6.2,168.9,4.9,168.5,4.6z"/>
						<path class="st0" d="M179.2,56.3c0,0,0.3-0.3,1.4-1.3c1.1-0.9,1.4-2.3,2.5-4.4c1.2-2.1,2.2-3.6,4.6-5.7c0,0-0.4,1.6-0.5,2.1
							c0,0.5-0.4,3.3-1.8,4.9c-1.4,1.6-1.4,2-3,2.9c0,0-0.6,0.4-0.6,0.6c0,0.1,1.1,0,1.1,0s1.1-0.4,1.5-0.6s2-1,2.6-1.3
							c0.6-0.3,1.2-0.5,2.6-0.9c1.4-0.4,6.6-1.8,8.7-5.1c0,0-0.6,1.9-1.4,2.8c-0.8,0.9-5,6.5-10.9,6.4c0,0-2.3-0.2-3.6-0.4
							c-1.2-0.2-1.7-0.2-1.8-0.2C180.5,56.2,179.3,56.4,179.2,56.3z"/>
						<path class="st0" d="M192.4,36.2c0,0-2.2,3.5-2.7,8.5s0.4,3.5-0.5,5.7c0,0-0.3,0.6-0.2,0.6c0.1,0,0.5-0.2,2.1-1.2
							c1.6-1,3.1-0.7,6.5-3.9s4.1-9.7,4.1-10.2c0,0-0.5,0.5-0.8,1.4c-0.3,0.9-0.8,1.5-0.9,1.7c-0.1,0.1-3.8,4.1-4.2,4.5
							c-0.4,0.4-2.6,3-3,3.7c-0.5,0.8-1.8,2.1-2.1,2c0,0,0-0.3,0.1-0.6c0.1-0.3,1.1-1.6,1.5-3.2c0.4-1.6,0.5-2.5,0.6-3.6
							C193.1,40.7,192.4,37,192.4,36.2z"/>
						<path class="st0" d="M195.4,41.1c0,0-0.2-0.5,0-0.9c0.1-0.2,0.2-1.9-0.4-3.3c-0.6-1.4-2-5.3-1.9-7.9c0.1-2.6,0.4-2.9,0.4-2.9
							s0.7,2.1,0.9,2.5c0.2,0.4,2.4,4.2,2.2,6.2c-0.2,2.1-0.3,2.7-0.2,2.8c0.1,0,0.4-0.3,0.4-0.5c0-0.3,0.4-1.7,1.1-3.4
							c0.7-1.7,3.4-5.4,4.1-7.9c0,0,0.9,4.3-1.5,8.3c-2.4,4-2.7,3.1-3.7,5C195.7,40.8,195.6,41.1,195.4,41.1z"/>
						<path class="st0" d="M197.6,29.7c-0.2,0-0.1-1.7-0.5-2.2c-0.4-0.5-4.1-4.9-4.9-9.3c0,0,2.3,2.4,2.7,2.6c0.4,0.3,2,1.8,2.4,3.2
							c0.5,1.4,0.4,2.5,0.5,2.5c0.2,0,0.2-1.5,0.2-1.5s0-3,0.3-4.4c0.3-1.4,0.9-3.8,0.6-5.1c0,0,1.4,2.2,1.3,5.4
							c-0.1,3.2-1.4,5.7-1.6,6c-0.2,0.4-0.7,1.9-0.7,2.2S197.6,29.7,197.6,29.7z"/>
						<path class="st0" d="M193.2,7.2c0,0,4.8,2.9,4.1,12.5c0,0,0,0.4-0.3,0c-0.3-0.5-1.3-1.8-1.8-2.1c-0.5-0.3-4.8-2.9-6.6-6.9
							c0,0,0.3-0.1,0.7,0.3c0.4,0.4,1.8,1.1,2,1.2c0.2,0.1,1.7,0.5,2.8,1.7c1.1,1.2,1.5,2.1,1.8,2.8c0,0,0.3,0.3,0.1-0.5
							c-0.2-0.7-0.3-1.2-0.8-2.1c-0.6-0.9-1.1-2.5-1.1-3.6C194.1,9.4,193.7,7.8,193.2,7.2z"/>
						<path class="st0" d="M192.4,10.6c0,0,0.1-0.6-0.4-1.5c-0.5-0.9-0.1-1.9-1.6-4.3c-0.8-1.3-3.7-2.4-3.7-2.4s0.8,1.1,1.4,1.8
							c0.5,0.6,0.7,1.1,0.9,1.4c0.2,0.3,1.2,1.3,1.5,1.8c0.1,0.1,0.2,0.4,0.2,0.6s-0.4-0.1-0.5-0.2c-0.1-0.1-1.9-1.4-3-1.7
							c-1.1-0.2-3.2-0.4-3.8-0.7c0,0,2.5,2.3,5.2,2.9C191.5,9.1,192.4,10.6,192.4,10.6z"/>
						<path class="st0" d="M186.7,4.7c0,0-2.5-3.4-7-3.3c0,0,0.3,0.3,0.8,0.4c0.5,0.1,1.4,1,1.9,1.3C182.8,3.3,183.8,4,186.7,4.7z"
							/>
					</g>
				</g>
			</g>
		</g>
	</g>
	<g>
		<path class="st0" d="M49,0v42.2c0,3.7-0.6,6.9-1.8,9.8c-1.2,2.8-2.9,5.2-5.1,7.1c-2.2,1.9-4.7,3.3-7.7,4.3s-6.3,1.4-9.8,1.4
			c-3.6,0-6.8-0.5-9.8-1.4S9.1,60.9,7,59c-2.2-1.9-3.9-4.3-5.1-7.1c-1.2-2.8-1.8-6.1-1.8-9.8V0h13.2v42.2c0,4.2,1,7.2,3,9.1
			c2,1.9,4.8,2.9,8.3,2.9c3.6,0,6.3-1,8.3-2.9c2-1.9,3-5,3-9.1V0H49z"/>
		<path class="st0" d="M111.8,63.9H98.6L73,21.8v42H59.8V0H73l25.7,42.1V0h13.1V63.9z"/>
	</g>
	<g>
		<g>
			<path class="st0" d="M9.5,105.1c-1.5,0-2.8-0.2-4-0.7c-1.2-0.5-2.2-1.1-3-2c-0.8-0.8-1.4-1.8-1.9-2.9c-0.4-1.1-0.6-2.3-0.6-3.6
				v-0.7c0-1.4,0.2-2.8,0.6-4c0.4-1.2,1-2.2,1.8-3.1c0.8-0.9,1.7-1.5,2.8-2c1.1-0.5,2.3-0.7,3.7-0.7c1.4,0,2.6,0.2,3.6,0.7
				c1,0.5,1.9,1.1,2.6,1.9c0.7,0.8,1.2,1.8,1.6,3c0.4,1.2,0.5,2.4,0.5,3.8v2.2H5.2c0.1,0.6,0.3,1.2,0.5,1.7c0.3,0.5,0.6,0.9,1,1.3
				c0.4,0.4,0.9,0.6,1.4,0.8c0.5,0.2,1.1,0.3,1.8,0.3c0.9,0,1.8-0.2,2.6-0.5c0.8-0.3,1.5-0.9,2-1.6l2.5,2.8
				c-0.3,0.4-0.7,0.9-1.1,1.3c-0.5,0.4-1,0.8-1.6,1.1c-0.6,0.3-1.3,0.6-2.1,0.8C11.3,105,10.5,105.1,9.5,105.1z M9,89.4
				c-0.6,0-1,0.1-1.5,0.3c-0.4,0.2-0.8,0.5-1.1,0.8c-0.3,0.3-0.5,0.8-0.7,1.2c-0.2,0.5-0.3,1-0.4,1.6h7.1V93c0-0.5-0.1-1-0.2-1.4
				c-0.1-0.4-0.3-0.8-0.6-1.1c-0.3-0.3-0.6-0.6-1.1-0.7C10.1,89.5,9.5,89.4,9,89.4z"/>
			<path class="st0" d="M25,85.7l0.2,2.2c0.7-0.8,1.5-1.5,2.4-1.9c0.9-0.4,2-0.7,3.1-0.7c0.9,0,1.7,0.1,2.5,0.4
				c0.7,0.3,1.4,0.7,1.9,1.2c0.5,0.6,0.9,1.3,1.2,2.3c0.3,0.9,0.4,2.1,0.4,3.4v12.1h-5.1V92.6c0-0.6-0.1-1.1-0.2-1.5
				c-0.1-0.4-0.3-0.7-0.6-1c-0.3-0.2-0.6-0.4-1-0.5c-0.4-0.1-0.8-0.1-1.3-0.1c-0.8,0-1.4,0.2-1.9,0.5c-0.5,0.3-1,0.8-1.3,1.3v13.4
				h-5.1V85.7H25z"/>
			<path class="st0" d="M47.6,98.5l3.5-12.8h5.3l-6.4,19.1h-4.9l-6.4-19.1h5.3L47.6,98.5z"/>
			<path class="st0" d="M58.7,80.7c0-0.8,0.3-1.4,0.8-1.9c0.5-0.5,1.2-0.7,2.1-0.7c0.4,0,0.8,0.1,1.2,0.2c0.4,0.1,0.7,0.3,0.9,0.5
				c0.2,0.2,0.4,0.5,0.6,0.8s0.2,0.7,0.2,1c0,0.4-0.1,0.7-0.2,1.1c-0.1,0.3-0.3,0.6-0.6,0.8c-0.2,0.2-0.5,0.4-0.9,0.5
				c-0.4,0.1-0.7,0.2-1.2,0.2c-0.4,0-0.8-0.1-1.2-0.2c-0.4-0.1-0.7-0.3-0.9-0.5c-0.2-0.2-0.4-0.5-0.6-0.8
				C58.8,81.5,58.7,81.1,58.7,80.7z M64.1,104.7H59V85.7h5.1V104.7z"/>
			<path class="st0" d="M79,90.4c-0.3,0-0.6-0.1-0.9-0.1c-0.3,0-0.7,0-0.9,0c-1,0-1.8,0.2-2.4,0.5c-0.6,0.3-1.1,0.8-1.4,1.5v12.5
				h-5.1V85.7h4.8l0.1,2.3c0.5-0.8,1.1-1.5,1.8-1.9s1.5-0.7,2.5-0.7c0.3,0,0.6,0,0.9,0.1c0.3,0,0.5,0.1,0.7,0.2L79,90.4z"/>
			<path class="st0" d="M80,95c0-1.4,0.2-2.7,0.6-3.9c0.4-1.2,1-2.2,1.7-3.1c0.8-0.9,1.7-1.5,2.8-2c1.1-0.5,2.4-0.7,3.8-0.7
				c1.4,0,2.7,0.2,3.9,0.7c1.1,0.5,2.1,1.2,2.8,2c0.8,0.9,1.4,1.9,1.8,3.1c0.4,1.2,0.6,2.5,0.6,3.9v0.4c0,1.4-0.2,2.7-0.6,3.9
				c-0.4,1.2-1,2.2-1.8,3.1c-0.8,0.9-1.7,1.5-2.8,2c-1.1,0.5-2.4,0.7-3.8,0.7c-1.4,0-2.7-0.2-3.9-0.7c-1.1-0.5-2.1-1.2-2.8-2
				c-0.8-0.9-1.4-1.9-1.8-3.1c-0.4-1.2-0.6-2.5-0.6-3.9V95z M85.1,95.4c0,0.8,0.1,1.5,0.2,2.2c0.1,0.7,0.4,1.3,0.7,1.8
				c0.3,0.5,0.7,0.9,1.2,1.2c0.5,0.3,1.1,0.4,1.8,0.4c0.7,0,1.3-0.1,1.8-0.4c0.5-0.3,0.9-0.7,1.2-1.2c0.3-0.5,0.5-1.1,0.7-1.8
				c0.1-0.7,0.2-1.4,0.2-2.2V95c0-0.8-0.1-1.5-0.2-2.1c-0.1-0.7-0.4-1.3-0.7-1.8c-0.3-0.5-0.7-0.9-1.2-1.2c-0.5-0.3-1.1-0.4-1.8-0.4
				c-0.7,0-1.3,0.1-1.8,0.4c-0.5,0.3-0.9,0.7-1.2,1.2c-0.3,0.5-0.5,1.1-0.7,1.8c-0.1,0.7-0.2,1.4-0.2,2.1V95.4z"/>
			<path class="st0" d="M105.9,85.7l0.2,2.2c0.7-0.8,1.5-1.5,2.4-1.9s2-0.7,3.1-0.7c0.9,0,1.7,0.1,2.5,0.4c0.7,0.3,1.4,0.7,1.9,1.2
				c0.5,0.6,0.9,1.3,1.2,2.3c0.3,0.9,0.4,2.1,0.4,3.4v12.1h-5.1V92.6c0-0.6-0.1-1.1-0.2-1.5c-0.1-0.4-0.3-0.7-0.6-1
				c-0.3-0.2-0.6-0.4-1-0.5c-0.4-0.1-0.8-0.1-1.3-0.1c-0.8,0-1.4,0.2-1.9,0.5s-1,0.8-1.3,1.3v13.4h-5.1V85.7H105.9z"/>
			<path class="st0" d="M126.2,85.7l0.2,2.1c0.6-0.8,1.4-1.4,2.3-1.8c0.9-0.4,2-0.7,3.2-0.7c1.1,0,2.1,0.2,3,0.7
				c0.9,0.5,1.6,1.2,2,2.2c0.6-0.9,1.4-1.6,2.4-2.1c0.9-0.5,2.1-0.8,3.4-0.8c0.9,0,1.8,0.1,2.5,0.4c0.8,0.3,1.4,0.7,1.9,1.3
				c0.5,0.6,0.9,1.3,1.2,2.2c0.3,0.9,0.4,2.1,0.4,3.4v12.1h-5.1V92.6c0-0.6-0.1-1.2-0.2-1.6c-0.1-0.4-0.3-0.7-0.6-1
				c-0.2-0.2-0.5-0.4-0.9-0.5c-0.4-0.1-0.8-0.1-1.2-0.1c-0.8,0-1.4,0.2-2,0.6c-0.5,0.4-0.9,0.9-1.2,1.6c0,0.1,0,0.1,0,0.2
				s0,0.1,0,0.2v12.7h-5.1V92.6c0-0.6-0.1-1.2-0.2-1.6s-0.3-0.7-0.6-1c-0.2-0.2-0.5-0.4-0.9-0.5c-0.4-0.1-0.8-0.1-1.2-0.1
				c-0.8,0-1.4,0.2-1.9,0.5c-0.5,0.3-0.9,0.8-1.2,1.3v13.5h-5.1V85.7H126.2z"/>
			<path class="st0" d="M161.5,105.1c-1.5,0-2.8-0.2-4-0.7c-1.2-0.5-2.2-1.1-3-2c-0.8-0.8-1.4-1.8-1.9-2.9c-0.4-1.1-0.6-2.3-0.6-3.6
				v-0.7c0-1.4,0.2-2.8,0.6-4c0.4-1.2,1-2.2,1.8-3.1c0.8-0.9,1.7-1.5,2.8-2c1.1-0.5,2.3-0.7,3.7-0.7c1.4,0,2.6,0.2,3.6,0.7
				c1,0.5,1.9,1.1,2.6,1.9c0.7,0.8,1.2,1.8,1.6,3c0.4,1.2,0.5,2.4,0.5,3.8v2.2h-12.1c0.1,0.6,0.3,1.2,0.5,1.7c0.3,0.5,0.6,0.9,1,1.3
				c0.4,0.4,0.9,0.6,1.4,0.8c0.5,0.2,1.1,0.3,1.8,0.3c0.9,0,1.8-0.2,2.6-0.5c0.8-0.3,1.5-0.9,2-1.6l2.5,2.8
				c-0.3,0.4-0.7,0.9-1.1,1.3c-0.5,0.4-1,0.8-1.6,1.1c-0.6,0.3-1.3,0.6-2.1,0.8C163.2,105,162.4,105.1,161.5,105.1z M160.9,89.4
				c-0.6,0-1,0.1-1.5,0.3c-0.4,0.2-0.8,0.5-1.1,0.8c-0.3,0.3-0.5,0.8-0.7,1.2c-0.2,0.5-0.3,1-0.4,1.6h7.1V93c0-0.5-0.1-1-0.2-1.4
				c-0.1-0.4-0.3-0.8-0.6-1.1c-0.3-0.3-0.6-0.6-1.1-0.7C162,89.5,161.5,89.4,160.9,89.4z"/>
			<path class="st0" d="M176.9,85.7l0.2,2.2c0.7-0.8,1.5-1.5,2.4-1.9s2-0.7,3.1-0.7c0.9,0,1.7,0.1,2.5,0.4c0.7,0.3,1.4,0.7,1.9,1.2
				c0.5,0.6,0.9,1.3,1.2,2.3c0.3,0.9,0.4,2.1,0.4,3.4v12.1h-5.1V92.6c0-0.6-0.1-1.1-0.2-1.5c-0.1-0.4-0.3-0.7-0.6-1
				c-0.3-0.2-0.6-0.4-1-0.5c-0.4-0.1-0.8-0.1-1.3-0.1c-0.8,0-1.4,0.2-1.9,0.5c-0.5,0.3-1,0.8-1.3,1.3v13.4h-5.1V85.7H176.9z"/>
			<path class="st0" d="M198.5,81v4.7h3.3v3.7h-3.3v9.5c0,0.4,0,0.7,0.1,1c0.1,0.3,0.2,0.5,0.4,0.6c0.2,0.1,0.4,0.2,0.6,0.3
				c0.2,0.1,0.5,0.1,0.9,0.1c0.3,0,0.6,0,0.8,0c0.3,0,0.5-0.1,0.7-0.1v3.9c-0.4,0.1-0.9,0.2-1.4,0.3c-0.5,0.1-1.1,0.1-1.7,0.1
				c-0.8,0-1.6-0.1-2.3-0.3c-0.7-0.2-1.2-0.5-1.7-1s-0.8-1-1.1-1.7c-0.3-0.7-0.4-1.6-0.4-2.6V89.4h-2.8v-3.7h2.8V81H198.5z"/>
		</g>
	</g>
</g>
</svg>
