<svg id="Layer_1" xmlns="http://www.w3.org/2000/svg" viewBox="0 0 223.5 84.9"><style>.st1{fill:#fff}</style><path d="M46.7 32.4l7.1-.4c12.4-.7 12.7-10.1 12.7-10.2V.1l-1-.1c0 .1-1.9 9.7-10.9 10.1l-8.2.4c-6.9.3-10.4 4.6-12.1 8.6-1.7 4-1.7 8-1.7 8v15.2c-.2-.7-.4-1.3-.7-1.9-1.7-4.1-5.2-8.3-12.1-8.6l-8.2-.4c-5.4-.3-8.8-3.9-10.4-8.6-.2-.8-.3-1.4-.3-1.4l-1 .1v21.6s0 .6.2 1.5c1.4 5.8 6.7 8.4 12.5 8.7l7.1.4c10.5.6 12.8 12.2 13 14.1v17.1h1.1c0-1.2 2.1-13.7 13-14.3l7.1-.4c12.3-.6 12.6-10.1 12.6-10.2V38.4l-1-.1S63.6 48 54.6 48.4l-8.2.4c-6.9.3-10.4 4.6-12.1 8.6-.3.6-.5 1.2-.7 1.8V46.5c-.1-.8 2.9-14.1 13.1-14.1zM31.6 59.1c-2.4-3.9-4.9-6.9-12.3-7.3l-6.7-.3c-5-.3-9.7-2.3-10.9-7.1-.2-.7-.2-1.2-.2-1.2V27.4c1.9 4 5 5.5 10.2 6.2l7.7.3c12 .6 12.1 14 12.1 14.1v11.1zm2.8 5.9c0-.1.1-13.5 12.1-14.1l7.7-.3c5.3-.7 8.3-2.2 10.2-6.2v15.8s0 .5-.2 1.2c-1.2 4.9-5.9 6.9-10.9 7.1l-6.7.3c-7.4.4-9.9 3.4-12.3 7.3V65zm0-27.3v-11c0-.1.1-13.5 12.1-14.1l7.7-.3c5.3-.7 8.3-2.2 10.2-6.2v15.8s0 .5-.2 1.2c-1.2 4.9-5.9 6.8-10.9 7.1l-6.7.3c-7.3.3-9.8 3.3-12.2 7.2z" fill-rule="evenodd" clip-rule="evenodd" fill="#fff"/><path class="st1" d="M97.4 39.8v-.3c0-1.5-.5-2.3-1.6-2.3-.5 0-1 .2-1.2.7-.3.4-.3.8-.3 1.9v4.4c0 1 .1 1.5.2 2 .2.5.7.9 1.3.9 1.1 0 1.6-.9 1.6-2.6v-.3h2.1v.5c0 2.9-1.3 4.4-3.6 4.4-1.3 0-2.4-.5-3-1.5-.5-.8-.6-1.6-.6-3.6v-3.7c0-2.1.2-2.8.8-3.7.6-.8 1.6-1.2 2.8-1.2 2.3 0 3.6 1.5 3.6 4.1v.4h-2.1zM107.6 45.4c0 1.6-.2 2.2-.8 2.8-.5.5-1.3.8-2.3.8-1 0-1.7-.3-2.3-.8-.6-.6-.8-1.3-.8-2.8v-3c0-1.6.2-2.2.8-2.8.5-.5 1.3-.8 2.3-.8.9 0 1.7.3 2.3.8.6.6.8 1.3.8 2.8v3zm-4.2.1c0 1.3.4 1.8 1.2 1.8.8 0 1.2-.6 1.2-1.8v-3.3c0-1.3-.4-1.8-1.2-1.8-.8 0-1.2.6-1.2 1.8v3.3zM111.9 40.2c.9-1 1.6-1.4 2.5-1.4 1.1 0 1.6.7 1.6 2.3v7.7h-1.9v-7.2c0-.9-.2-1.2-.7-1.2-.5 0-1.1.4-1.5 1v7.4H110v-9.9h1.9v1.3zM120.5 48.8l-2.4-9.9h2l1.4 6.3 1.3-6.3h2l-2.2 9.9h-2.1zM128.3 44.1v.9c0 1 .1 1.4.2 1.7.2.3.6.5 1 .5.8 0 1.2-.5 1.2-1.7v-.3h1.9c0 1.4-.1 1.8-.4 2.3-.5.9-1.4 1.3-2.7 1.3-1.1 0-2-.4-2.5-1-.4-.6-.6-1.4-.6-2.7v-2.9c0-1.6.2-2.2.8-2.8.5-.5 1.3-.8 2.3-.8 1 0 1.8.3 2.3.9.6.6.8 1.4.8 2.9V44h-4.3zm2.4-2.1c0-1.2-.4-1.7-1.2-1.7-.9 0-1.2.5-1.2 1.7v.5h2.4V42zM136.6 40.2c.9-1 1.6-1.4 2.5-1.4 1.1 0 1.6.7 1.6 2.3v7.7h-1.9v-7.2c0-.9-.2-1.2-.7-1.2-.5 0-1.1.4-1.5 1v7.4h-1.9v-9.9h1.9v1.3zM147.5 40.5h-1.7v5.3c0 1 .3 1.4 1.2 1.4.2 0 .4 0 .7-.1v1.7c-.5.1-.8.1-1.3.1-.9 0-1.6-.2-2-.7-.4-.4-.5-.9-.5-2.2v-5.5h-1.4v-1.7h1.4v-2.7h1.9v2.7h1.7v1.7zM151.4 37.4h-1.9v-1.9h1.9v1.9zm0 11.4h-1.9v-9.9h1.9v9.9zM159.7 45.4c0 1.6-.2 2.2-.8 2.8-.5.5-1.3.8-2.3.8-1 0-1.7-.3-2.3-.8-.6-.6-.8-1.3-.8-2.8v-3c0-1.6.2-2.2.8-2.8.5-.5 1.3-.8 2.3-.8.9 0 1.7.3 2.3.8.6.6.8 1.3.8 2.8v3zm-4.2.1c0 1.3.4 1.8 1.2 1.8.8 0 1.2-.6 1.2-1.8v-3.3c0-1.3-.4-1.8-1.2-1.8-.8 0-1.2.6-1.2 1.8v3.3zM163.9 40.2c.9-1 1.6-1.4 2.5-1.4 1.1 0 1.6.7 1.6 2.3v7.7h-1.9v-7.2c0-.9-.2-1.2-.7-1.2-.5 0-1.1.4-1.5 1v7.4H162v-9.9h1.9v1.3zM180.7 45.4c0 1.6-.2 2.2-.8 2.8-.5.5-1.3.8-2.2.8-1 0-1.7-.3-2.3-.8-.6-.6-.8-1.3-.8-2.8v-3c0-1.6.2-2.2.8-2.8.5-.5 1.3-.8 2.3-.8.9 0 1.7.3 2.2.8.6.6.8 1.3.8 2.8v3zm-4.2.1c0 1.3.4 1.8 1.2 1.8.8 0 1.2-.6 1.2-1.8v-3.3c0-1.3-.4-1.8-1.2-1.8-.8 0-1.2.6-1.2 1.8v3.3zM184.6 40.2c.9-1 1.6-1.4 2.5-1.4 1.1 0 1.6.7 1.6 2.3v7.7h-1.9v-7.2c0-.9-.2-1.2-.7-1.2-.5 0-1.1.4-1.5 1v7.4h-1.9v-9.9h1.9v1.3zM92.4 55.9h3.1c2.5 0 3.9 1.2 3.9 3.4 0 1.6-.7 2.5-2.2 3 1.8.5 2.5 1.4 2.5 3.2 0 2.3-1.5 3.8-3.9 3.8h-3.3V55.9zm2.8 5.5c1.3 0 2.1-.7 2.1-1.9 0-.5-.2-.9-.5-1.2-.3-.3-.8-.4-1.5-.4h-.8v3.5h.7zm.3 5.9c1.3 0 2.1-.7 2.1-1.9 0-1.3-.9-2.2-2.3-2.2h-.7v4.1h.9zM103.8 57.9h-1.9V56h1.9v1.9zm0 11.3h-1.9v-9.9h1.9v9.9zM112.1 65.8c0 1.6-.2 2.2-.8 2.8-.5.5-1.3.8-2.3.8-1 0-1.7-.3-2.3-.8-.6-.6-.8-1.3-.8-2.8v-3c0-1.6.2-2.2.8-2.8.5-.5 1.3-.8 2.3-.8.9 0 1.7.3 2.3.8.6.6.8 1.3.8 2.8v3zm-4.2.1c0 1.3.4 1.8 1.2 1.8.8 0 1.2-.6 1.2-1.8v-3.3c0-1.3-.4-1.8-1.2-1.8-.8 0-1.2.6-1.2 1.8v3.3zM116.2 69.2h-1.9V55.9h1.9v13.3zM124.6 65.8c0 1.6-.2 2.2-.8 2.8-.5.5-1.3.8-2.2.8-1 0-1.7-.3-2.3-.8-.6-.6-.8-1.3-.8-2.8v-3c0-1.6.2-2.2.8-2.8.5-.5 1.3-.8 2.3-.8.9 0 1.7.3 2.2.8.6.6.8 1.3.8 2.8v3zm-4.3.1c0 1.3.4 1.8 1.2 1.8.8 0 1.2-.6 1.2-1.8v-3.3c0-1.3-.4-1.8-1.2-1.8-.8 0-1.2.6-1.2 1.8v3.3zM133.8 61.2c-.2-.2-.4-.3-.6-.3-.3 0-.5.1-.7.4.1.5.2 1 .2 1.7 0 2.5-1.1 3.8-3 3.8-.2 0-.4 0-.7-.1-.3.1-.4.3-.4.6 0 .2.1.4.4.4.2 0 .4.1 1.5.1 1.3.1 1.8.2 2.3.5.6.4.9 1.1.9 1.9 0 1.7-1.2 2.5-3.9 2.5-2.3 0-3.4-.6-3.4-1.8 0-.8.5-1.3 1.6-1.6-.8-.3-1.2-.7-1.2-1.3 0-.8.4-1.2 1.5-1.5-1.2-.6-1.7-1.7-1.7-3.5 0-2.5 1.1-3.8 3-3.8 1.1 0 1.8.4 2.4 1.3.3-.9.8-1.3 1.7-1.2v1.9zm-5.1 8.3c-.2.2-.4.6-.4.8 0 .6.5.8 1.8.8s1.9-.3 1.9-.9c0-.4-.2-.6-.8-.7-.3-.1-.5-.1-1.5-.1-.2.2-.5.1-1 .1zm-.2-6c0 1.1.4 1.6 1.1 1.6.8 0 1.1-.5 1.1-1.6v-1.1c0-1.1-.4-1.6-1.1-1.6-.8 0-1.1.5-1.1 1.6v1.1zM137.3 57.9h-1.9V56h1.9v1.9zm0 11.3h-1.9v-9.9h1.9v9.9zM143.8 62.8v-.3c0-1.1-.4-1.7-1.2-1.7-.5 0-.8.2-1 .5-.2.3-.2.8-.2 1.7v2.4c0 .9.1 1.4.2 1.7.2.3.6.5 1 .5.8 0 1.2-.5 1.2-1.7v-.3h1.9v.4c0 1.2-.2 1.9-.7 2.4-.5.6-1.4.9-2.3.9-1.1 0-2-.4-2.5-1s-.6-1.3-.6-2.7v-2.9c0-1.4.2-2.1.6-2.7.5-.7 1.4-1 2.5-1 1 0 1.8.3 2.3.9.5.5.7 1.2.7 2.4v.4h-1.9zM151.7 69.2c-.1-.3-.2-.7-.2-1.2-.9 1-1.4 1.3-2.2 1.3-1.3 0-2-1-2-2.6 0-1.2.5-2 1.6-2.7.5-.3 1-.5 2.6-1.3v-.5c0-1-.3-1.4-1-1.4s-1 .4-1.1 1.4h-2c.2-2 1.3-3 3.3-3 .9 0 1.6.3 2 .8.4.5.5 1 .5 2.2v4.4c0 1.5 0 2 .2 2.7h-1.7zm-.1-5.1c-1.6.9-2.3 1.6-2.3 2.5 0 .7.4 1.1.9 1.1s1-.3 1.4-.9v-2.7zM157.7 69.2h-1.9V55.9h1.9v13.3zM164.3 55.9h3.2c2.6 0 3.8 1.3 3.8 4.2v5c0 2.8-1.2 4.2-3.8 4.2h-3.2V55.9zm3 11.4c1.5 0 2-.8 2-2.8v-3.8c0-2.1-.5-2.8-2-2.8h-1v9.5h1zM175.5 57.9h-1.9V56h1.9v1.9zm0 11.3h-1.9v-9.9h1.9v9.9zM179.7 69.2l-2.4-9.9h2l1.4 6.3 1.3-6.3h2l-2.2 9.9h-2.1zM187.3 64.6v.9c0 1 .1 1.4.2 1.7.2.3.6.5 1 .5.8 0 1.2-.5 1.2-1.7v-.3h1.9c0 1.4-.1 1.8-.4 2.3-.5.9-1.4 1.3-2.7 1.3-1.1 0-2-.4-2.5-1-.4-.6-.6-1.4-.6-2.7v-2.9c0-1.6.2-2.2.8-2.8.5-.5 1.3-.8 2.2-.8 1 0 1.8.3 2.3.9.6.6.8 1.4.8 2.9v1.6h-4.2zm2.4-2.2c0-1.2-.4-1.7-1.2-1.7s-1.2.5-1.2 1.7v.6h2.4v-.6zM195.7 59.3V61c.5-1.3 1.2-1.9 2.4-1.9v2.2c-.4-.1-.6-.2-.9-.2-.5 0-.9.2-1.2.5-.3.3-.3.7-.3 1.6v6h-1.9v-9.9h1.9zM203.4 62.3c-.4-1-.8-1.4-1.5-1.4-.6 0-1 .4-1 .9s.3.8 1.7 1.6c1.1.6 1.6 1 2 1.4.4.5.7 1.1.7 1.9 0 1.8-1.2 2.9-3 2.9-1.7 0-2.7-.9-3.4-2.8l1.7-.6c.4 1.2.9 1.7 1.7 1.7.6 0 1.1-.4 1.1-1s-.3-.9-1.4-1.5c-1.4-.8-1.7-1-2.2-1.5-.5-.5-.7-1.2-.7-1.9 0-1.6 1.2-2.8 2.9-2.8 1.6 0 2.6.8 3.2 2.4l-1.8.7zM208.9 57.9H207V56h1.9v1.9zm0 11.3H207v-9.9h1.9v9.9zM215.5 61h-1.7v5.3c0 1 .3 1.4 1.2 1.4.2 0 .4 0 .7-.1v1.7c-.5.1-.8.1-1.3.1-.9 0-1.6-.2-2-.7-.4-.4-.5-.9-.5-2.2V61h-1.4v-1.7h1.4v-2.7h1.9v2.7h1.7V61zM223.3 59.3l-2.2 9.5c-.7 3.2-1.4 3.9-4.2 3.9v-1.9h.3c1 0 1.7-.7 1.7-1.6 0-.2 0-.5-.1-.9l-2.2-9h2l1.5 6.8 1.3-6.8h1.9z"/></svg>