<svg xmlns="http://www.w3.org/2000/svg" xmlns:xlink="http://www.w3.org/1999/xlink" viewBox="0 0 466.7 183"><style>.st0{fill-rule:evenodd;clip-rule:evenodd}.st0,.st1{fill:#fff}</style><path class="st0" d="M162.3 6.8h3.4v169.5h-3.4z" id="Tagline"/><g id="Logoname"><path class="st1" d="M198.1 96.8V39.4h8.7v8.1c1.8-2.8 4.2-5.1 7.2-6.8 3-1.7 6.4-2.6 10.2-2.6 4.3 0 7.7.9 10.5 2.6 2.7 1.8 4.6 4.2 5.8 7.4C245 41.4 250.9 38 258.2 38c5.7 0 10.1 1.6 13.1 4.7 3.1 3.2 4.6 8 4.6 14.6v39.4h-9.7V60.6c0-3.9-.3-6.7-.9-8.4-.6-1.7-1.8-3.1-3.4-4.1-1.7-1-3.6-1.6-5.8-1.6-4 0-7.4 1.3-10.1 4-2.7 2.7-4 7-4 12.9v33.3h-9.7V59.5c0-4.3-.8-7.6-2.4-9.7-1.6-2.2-4.2-3.2-7.8-3.2-2.7 0-5.3.7-7.6 2.2-2.3 1.4-4 3.5-5.1 6.3-1 2.8-1.6 6.8-1.6 12v29.8h-9.7zM327.8 89.7c-3.6 3.1-7.1 5.2-10.4 6.5-3.3 1.3-6.9 1.9-10.7 1.9-6.3 0-11.2-1.5-14.5-4.6-3.4-3.1-5.1-7-5.1-11.8 0-2.8.6-5.4 1.9-7.7 1.3-2.3 3-4.2 5-5.6 2.1-1.4 4.4-2.5 7-3.2 1.9-.5 4.8-1 8.6-1.5 7.9-.9 13.6-2.1 17.3-3.4 0-1.3.1-2.2.1-2.5 0-4-.9-6.8-2.8-8.4-2.5-2.2-6.2-3.3-11.1-3.3-4.6 0-8 .8-10.1 2.4-2.2 1.6-3.8 4.4-4.8 8.5l-9.5-1.3c.9-4.1 2.3-7.4 4.3-9.9s4.8-4.4 8.6-5.8c3.7-1.4 8.1-2 13-2s8.9.6 11.9 1.7c3.1 1.2 5.3 2.6 6.8 4.4 1.4 1.7 2.4 4 3 6.6.3 1.7.5 4.6.5 9v13c0 9 .2 14.8.6 17.2.4 2.4 1.2 4.7 2.5 6.9h-10.2c-1-2-1.6-4.4-1.9-7.1zM327 68c-3.5 1.4-8.8 2.7-15.9 3.7-4 .6-6.8 1.2-8.5 1.9-1.7.7-2.9 1.8-3.8 3.2-.9 1.4-1.4 2.9-1.4 4.6 0 2.6 1 4.8 2.9 6.5 2 1.7 4.8 2.6 8.6 2.6 3.7 0 7.1-.8 10-2.5 2.9-1.6 5.1-3.9 6.4-6.7 1-2.2 1.6-5.4 1.6-9.7V68zM351.9 118.8V39.4h8.9v7.5c2.1-2.9 4.4-5.1 7.1-6.6 2.6-1.5 5.8-2.2 9.6-2.2 4.9 0 9.2 1.3 13 3.8 3.7 2.5 6.6 6.1 8.5 10.7 1.9 4.6 2.9 9.6 2.9 15.1 0 5.9-1.1 11.2-3.2 15.9-2.1 4.7-5.2 8.3-9.2 10.8-4 2.5-8.2 3.8-12.7 3.8-3.2 0-6.2-.7-8.7-2.1-2.6-1.4-4.7-3.1-6.3-5.2v27.9h-9.9zm8.8-50.4c0 7.4 1.5 12.8 4.5 16.4 3 3.5 6.6 5.3 10.9 5.3 4.3 0 8-1.8 11.1-5.5 3.1-3.7 4.6-9.3 4.6-17 0-7.3-1.5-12.8-4.5-16.4-3-3.6-6.6-5.5-10.8-5.5-4.1 0-7.8 1.9-11 5.8s-4.8 9.5-4.8 16.9z"/><g><path class="st1" d="M406.8 96.8l20.7-29.6-19.8-27.8h18.5l10.2 15.8L447 39.4h17.8l-19.5 27.2 21.2 30.2H448L436.3 79l-11.8 17.8h-17.7z"/></g></g><g id="Icon"><g opacity=".2"><defs><path id="SVGID_1_" d="M14.6 174.4h92.9v8.7H14.6z"/></defs><clipPath id="SVGID_2_"><use xlink:href="#SVGID_1_" overflow="visible"/></clipPath><path d="M61.1 174.4c25.7 0 46.5 1.9 46.5 4.3S86.8 183 61.1 183s-46.5-1.9-46.5-4.3 20.8-4.3 46.5-4.3" clip-path="url(#SVGID_2_)" fill-rule="evenodd" clip-rule="evenodd"/></g><path class="st1" d="M81.4 31.4c-5.8-4-12.8-6.3-20.4-6.3-7.5 0-14.5 2.3-20.3 6.3L61 51.8l20.4-20.4zM31.4 40.8c-4 5.8-6.3 12.8-6.3 20.4 0 7.5 2.3 14.5 6.3 20.4l20.4-20.4-20.4-20.4zM90.8 40.8L70.4 61.1l20.4 20.4c4-5.8 6.3-12.8 6.3-20.4 0-7.6-2.3-14.6-6.3-20.3zM40.7 90.8c5.8 4 12.8 6.3 20.3 6.3 7.6 0 14.6-2.3 20.4-6.3L61.1 70.5 40.7 90.8z"/><path class="st0" d="M10 94.7C3.5 84.7 0 73.1 0 61.1 0 27.4 27.4 0 61.1 0s61.1 27.4 61.1 61.1c0 12-3.5 23.6-10 33.6-3.4 5.5-7.2 10.8-10.7 16.2l-40.3 58.4-40.3-58.4c-3.7-5.5-7.5-10.7-10.9-16.2zm51.1-82.9c27.2 0 49.3 22.1 49.3 49.3 0 27.2-22.1 49.3-49.3 49.3-27.2 0-49.3-22.1-49.3-49.3 0-27.2 22.1-49.3 49.3-49.3z"/></g></svg>