<svg id="Layer_1" data-name="Layer 1" xmlns="http://www.w3.org/2000/svg" viewBox="0 0 617.68 510.19"><defs><style>.cls-2{fill:#fff}.cls-3{fill:#e73137}</style></defs><ellipse cx="286.3" cy="255.09" rx="255.35" ry="255.1" fill="#0058a2"/><path class="cls-2" d="M343.89 389.35C453 434.23 434.05 320.83 375.9 234 343 184.79 300 143.81 272.86 124 183 58.42 127.47 98.22 191 227.6c20.52 41.84 46.88 70.07 67.47 96.69 15.72 20.31 46.35 30.48 35.56 40.13-12.16 10.87-41.6-37.08-41.6-37.08-21.75-26.22-42.47-54.2-63.83-92.59-48.8-87.7-41.76-177.21 46.56-138.21 74.95 33.1 146.54 126 175.33 191.88 13.3 30.45 49.55 150.91-65.9 102.21"/><path class="cls-3" d="M4.66 330.71c48-32 93.49-52.6 170.93-78.18 108.8-35.93 190.71-60.09 291.18-110.6 45-22.6 123-73.29 150.91-117.36-8.35 17.06-34.22 50.25-45.95 64.93C435.41 260.21 145 250.54 6.57 332.5"/><path class="cls-2" d="M74.28 206c43.92.34 39.61-.09 40.13.43.76 0 35.07 59.07 35.07 59.58 0 .26-.26-21-.26-47.56 0-3.07-8.44-12-8.19-12 12.54 0 28.93.25 28.93.25-6.15 7.16-7.37 6.57-7.42 11-.18 14.23-.34 40.53 0 70.07 0 4.43 3.32 6.14 8.7 13.81h-40.19c-13.06-21.74-37-62.52-36.86-62.4s-.52 25.58.25 46c.26 6.76 3.33 8.95 9 15.09 0 0 6.49-.17-31.49.25 11.52-6.13 10-13.8 10-14.06-.42-28.26-.09-52.42-.09-68 0-2.56-.17-2.31-8.1-12M211.62 249.59c3.69-12.8 6.84-24.25 8.34-31.7.25-1.28-2.82-5.89-7.68-10.49l-.35-.71c23.46.07 48 .2 48 .2 6.4 15.6 21 59.33 32 86.18 2.91 7.1 7.93 8.44 7.93 8.44-20-.25-57-.08-56.83-.25 10-9 8.71-9 4.35-22h-31.26c-6.4 14.83 2 21.79 3.07 21.74-7.11.36-31.23 0-31.23 0 13-9.21 12.28-12 12.28-12 3.59-12.76 7.75-26.74 11.38-39.39h12.82c-2.76 8.82-5.51 17.64-5.51 17.64h24.84L229.94 232l-5.5 17.65zM426.14 250.87c3.69-12.8 6.84-24.25 8.33-31.71.25-1.27-2.82-5.88-7.68-10.48l-.35-.71c23.46.07 48 .2 48 .2 6.39 15.6 21 59.33 32 86.18 2.91 7.1 7.93 8.44 7.93 8.44-20-.26-57-.08-56.82-.26 10-8.95 8.71-8.95 4.35-22h-31.27c-6.4 14.83 2 21.79 3.07 21.74-7.11.36-31.23 0-31.23 0 13.06-9.21 12.29-12 12.29-12 3.59-12.76 7.74-26.74 11.38-39.39H439c-2.76 8.83-5.5 17.65-5.5 17.65h24.83l-13.83-35.29s-2.74 8.82-5.5 17.64zM385.76 229.91c-.52-18.16 0-24 0-24-7.95 6.4-3.94 5.59-23.81 2.31-57.27-9.45-61.63 44-30.47 56 26.16 10.07 35.43 12 31.49 21.48-1.28 3.07-25.09 14.33-49.66-8.43l.51 31.71c3.07-3.17 11.53-8.95 11.53-8.95.25 0 26.63 11.62 50.42-.52 36.61-18.66 18.34-48.88-20.73-60.86-32.52-10-1.8-33.25 30.45-8.44M289.9 23.17a2.08 2.08 0 1 1-2.08-2.07 2.08 2.08 0 0 1 2.08 2.07zM304.31 54.66a2.57 2.57 0 1 1-2.56-2.55 2.58 2.58 0 0 1 2.56 2.55zM341.74 106.13a2.56 2.56 0 0 1-5.12 0 2.5 2.5 0 0 1 2.48-2.56 2.64 2.64 0 0 1 2.64 2.56zM281.58 72.4a2.08 2.08 0 1 1-2.08-2.07 2.08 2.08 0 0 1 2.08 2.07zM304 84.23a2.08 2.08 0 1 1-2.08-2.07 2.09 2.09 0 0 1 2.08 2.07zM274.86 51.15a2.56 2.56 0 1 1-2.56-2.56 2.56 2.56 0 0 1 2.56 2.56zM241 71.76a2.09 2.09 0 1 1-2.08-2.07 2.09 2.09 0 0 1 2.08 2.07zM247 75.92a2.09 2.09 0 1 1-2-2.08 2.09 2.09 0 0 1 2 2.08zM253.1 80.07A2.08 2.08 0 1 1 251 78a2.08 2.08 0 0 1 2.1 2.07zM243.83 88.07a2.09 2.09 0 1 1-2.08-2.07 2.09 2.09 0 0 1 2.08 2.07zM195.51 122a2.08 2.08 0 1 1-2.08-2.07 2.08 2.08 0 0 1 2.08 2.07zM204.47 132.82a2.08 2.08 0 1 1-2.08-2.08 2.09 2.09 0 0 1 2.08 2.08zM197.35 308.32a2.08 2.08 0 1 1-2.08-2.08 2.09 2.09 0 0 1 2.08 2.08zM198.63 356.75a2.56 2.56 0 1 1-2.56-2.56 2.57 2.57 0 0 1 2.56 2.56zM171.11 381.52a2.08 2.08 0 1 1-2.08-2.07 2.09 2.09 0 0 1 2.08 2.07zM138.15 391.59a2.56 2.56 0 1 1-2.56-2.56 2.57 2.57 0 0 1 2.56 2.56zM131.43 369.22a2.56 2.56 0 1 1-2.56-2.56 2.57 2.57 0 0 1 2.56 2.56zM127.59 383.44a2.08 2.08 0 1 1-2.08-2.08 2.09 2.09 0 0 1 2.08 2.08zM103 371.61a2.08 2.08 0 1 1-2.08-2.08 2.09 2.09 0 0 1 2.08 2.08zM189 411.57a2 2 0 0 1-2 2.08 2.16 2.16 0 0 1-2.16-2.08 2.08 2.08 0 0 1 4.16 0zM215 392.55a2.5 2.5 0 0 1-2.48 2.56 2.63 2.63 0 0 1-2.64-2.56 2.56 2.56 0 0 1 5.12 0zM217.91 417a2.16 2.16 0 0 1-2.16 2.08 2.08 2.08 0 1 1 0-4.15 2.15 2.15 0 0 1 2.16 2.07zM324.46 393.67a2.08 2.08 0 1 1-2.08-2.08 2.09 2.09 0 0 1 2.08 2.08zM274.86 411.25a2.08 2.08 0 1 1-2.08-2.08 2.08 2.08 0 0 1 2.08 2.08zM408.3 436.51a2.09 2.09 0 1 1-2.08-2.08 2.1 2.1 0 0 1 2.08 2.08zM419.18 338.21a2.56 2.56 0 1 1-2.56-2.56 2.58 2.58 0 0 1 2.56 2.56zM398.7 352.11a2.09 2.09 0 1 1-2.09-2.07 2.09 2.09 0 0 1 2.09 2.07zM418.86 356.11a2.56 2.56 0 1 1-2.56-2.56 2.57 2.57 0 0 1 2.56 2.56zM398.7 380.88a2.09 2.09 0 1 1-2.09-2.07 2.09 2.09 0 0 1 2.09 2.07zM450.85 324.3a2.08 2.08 0 1 1-2.08-2.08 2.09 2.09 0 0 1 2.08 2.08zM455.89 336.93a2.5 2.5 0 0 1-2.47 2.56 2.64 2.64 0 0 1-2.64-2.56 2.56 2.56 0 1 1 5.11 0zM491.81 352a2.56 2.56 0 1 1-2.56-2.57 2.56 2.56 0 0 1 2.56 2.57zM455.34 378.65a2.09 2.09 0 1 1-2.09-2.08 2.09 2.09 0 0 1 2.09 2.08zM478.37 356.91a2.08 2.08 0 1 1-2.08-2.08 2.09 2.09 0 0 1 2.08 2.08zM474.13 390.47a2.08 2.08 0 1 1-2.07-2.08 2.09 2.09 0 0 1 2.07 2.08zM483.89 334.69a3.2 3.2 0 1 1-3.2-3.19 3.22 3.22 0 0 1 3.2 3.19z"/><path class="cls-2" d="M480.69 324.94l-.95 8.79-8.73.96 8.8.96.96 9.11.97-9.11 8.63-1.12-8.71-.8-.97-8.79z"/><ellipse class="cls-2" cx="458.29" cy="390.31" rx="3.2" ry="3.2"/><path class="cls-2" d="M458.29 380.56l-.96 8.79-8.71.96 8.79.96.96 9.11.96-9.11 8.64-1.11-8.72-.81-.96-8.79zM222.79 126.27a3.2 3.2 0 1 1-3.2-3.2 3.21 3.21 0 0 1 3.2 3.2z"/><path class="cls-2" d="M219.59 116.52l-.96 8.79-8.72.96 8.8.95.96 9.12.96-9.12 8.64-1.11-8.73-.8-.95-8.79zM341.82 48.91a3.2 3.2 0 1 1-3.2-3.2 3.22 3.22 0 0 1 3.2 3.2z"/><path class="cls-2" d="M338.62 39.16l-.96 8.79-8.72.96 8.8.96.96 9.11.96-9.11 8.64-1.12-8.73-.8-.95-8.79zM197.11 441.46a3.2 3.2 0 1 1-3.2-3.2 3.22 3.22 0 0 1 3.2 3.2z"/><path class="cls-2" d="M193.99 431.71l-.96 8.79-8.72.96 8.8.96.96 9.11.96-9.11 8.64-1.12-8.72-.8-.96-8.79z"/><path class="cls-3" d="M617.68 24.57C578.77 140 422.87 229.15 291.64 314.26 212.48 365.61 133.88 424.73 79.77 475c-14.26 13.26 2.91-5-2.56.64 75.52-87 162.38-138.73 210.37-171.34 81.19-55.15 127.35-69 267.4-198M37.11 310.58c-14 6.84-26.49 13.59-37.11 20.19l6.46 2.35a283.87 283.87 0 0 1 32.19-16.95"/><path class="cls-3" d="M110.9 439.76c-12.78 11.15-26 23.05-39.23 35.53l-.58 8.81a576.21 576.21 0 0 1 44.21-40.29"/><path class="cls-2" d="M343.89 389.35C453 434.23 434.05 320.83 375.9 234c-32.95-49.21-73.6-88.23-103-110-34.38-25.39-37.75-27.49-37.75-27.49 76.79 36.44 146.54 126 175.33 191.88 13.3 30.45 49.55 150.91-65.9 102.21"/></svg>