<svg xmlns="http://www.w3.org/2000/svg" viewBox="0 0 258.36 95"><defs><style>.cls-1{fill:#231f20}</style></defs><g id="NAU"><path class="cls-1" d="M25.91 25.2L9.31 9.25v16H3.77V0h4.32l16.59 16V0h5.55v25.2zM59.17 25.2H43.51c-2.66 0-5.87-3.17-5.87-5.87V5.87c0-2.7 3.21-5.87 5.87-5.87h15.66C61.83 0 65 3.17 65 5.87v13.46c0 2.67-3.17 5.87-5.83 5.87zm-.32-19.87h-15v14.54h15zM92.15 25.2l-10.08-9.33H78v9.33h-5.72V0h19.29a5.68 5.68 0 0 1 5.33 5.33v5.22a5.67 5.67 0 0 1-5.33 5.32h-2l10.4 9.33zm-.9-18.47a1.64 1.64 0 0 0-1.59-1.83H78V11h11.66a1.5 1.5 0 0 0 1.59-1.66zM118 5.18v20h-6v-20h-10.42V0h26.78v5.18zM154 25.2V14.72h-14.4V25.2h-6.05V0h6.05v9.54H154V0h6v25.2zM168.21 25.2V0h23.08v5.18h-17v4.68h10.41v5.19h-10.44v5h17.28v5.15zM218.5 25.2l-10.07-9.33h-4.07v9.33h-5.73V0h19.3a5.68 5.68 0 0 1 5.33 5.33v5.22a5.67 5.67 0 0 1-5.33 5.32h-2.05l10.4 9.33zm-.9-18.47A1.63 1.63 0 0 0 216 4.9h-11.64V11H216a1.49 1.49 0 0 0 1.58-1.66zM254 25.2L237.44 9.25v16h-5.54V0h4.32l16.59 16V0h5.55v25.2zM23.72 61.45L21.59 57H8.17L6 61.45H0l12.64-25.2h5l12.44 25.2zm-8.84-18.4L10.58 52h8.59zM53.64 61.45l-9.78-9.33h-3.94v9.33h-5.56v-25.2h18.72a5.59 5.59 0 0 1 5.17 5.33v5.22a5.58 5.58 0 0 1-5.17 5.32h-2l10.1 9.33zM52.77 43a1.63 1.63 0 0 0-1.54-1.84H39.92v6.09h11.31a1.48 1.48 0 0 0 1.54-1.66zM66.1 61.45v-25.2H72v25.2zM77.49 61.45v-2.67L92.4 41.29H78.92v-5h22.88v2.52l-15.09 17.6h15.23v5zM128.23 61.45H113c-2.59 0-5.7-3.17-5.7-5.87V42.12c0-2.7 3.11-5.87 5.7-5.87h15.19c2.58 0 5.69 3.17 5.69 5.87v13.46c.04 2.7-3.07 5.87-5.65 5.87zm-.31-19.87h-14.57v14.54h14.57zM162.07 61.45L146 45.5v16h-5.38V36.25h4.19l16.1 16v-16h5.38v25.2zM193.74 61.45L191.61 57H178.2l-2.13 4.43h-6l12.65-25.2h5l12.43 25.2zm-8.84-18.4L180.61 52h8.59zM19.06 92H5.87a2.36 2.36 0 0 1-2.36-2.36V72.52H6v17.13h13V72.52h2.47v17.07A2.36 2.36 0 0 1 19.06 92zM44.86 92L30.35 76.49V92H28V72.52h2L44.5 88V72.52h2.39V92zM53.82 92V72.52h2.45V92zM71.22 92h-1.41l-9.44-19.48H63l7.55 15.85 7.55-15.85h2.58zM84.79 92V72.52H101v2.25H87.24v5.94h8.84V83h-8.84v6.7h13.9V92zM121.29 92l-7.91-8H109v8h-2.44V72.52h14.54a2.36 2.36 0 0 1 2.36 2.36v6.75a2.36 2.36 0 0 1-2.34 2.37h-4.52l7.93 8zM121 76.24c0-.77-.36-1.41-1.14-1.41H109v6.85h10.9c.78 0 1.14-.64 1.14-1.41zM144.85 92H132a2.36 2.36 0 0 1-2.36-2.36v-2l2.36-.74v2.8h12.71v-6.55h-12.49a2.35 2.35 0 0 1-2.36-2.35v-5.92a2.36 2.36 0 0 1 2.36-2.36h12.29a2.36 2.36 0 0 1 2.36 2.36v2.06l-2.33.64v-2.81h-12.18v6.08h12.49a2.36 2.36 0 0 1 2.36 2.36v6.38a2.36 2.36 0 0 1-2.36 2.41zM153.47 92V72.52h2.45V92zM170.51 74.77V92h-2.44V74.77h-8v-2.25h18.43v2.25zM191.41 83v9H189v-8.9l-8.69-10.58h3l6.89 8.61 7.16-8.61h2.72z"/></g><g id="shield"><g id="Logo_Mark" data-name="Logo Mark"><path id="TOP_FIELD" data-name="TOP FIELD" class="cls-1" d="M211.61 38.35v17l10.82 10.82 4.07-4.07-11.17-11.21 3.78-3.77 11.63 11.62V51L223 43.24l3.77-3.78 4 4v-7.97a96.74 96.74 0 0 0-10.09 1 83.37 83.37 0 0 0-9.07 1.86zm42 37c1.41-3.16 1.58-6.09 1.58-9.53v-3l-7 7zm-7.46-38.9a96.59 96.59 0 0 0-10.08-1v7.95l4-4 3.78 3.78-7.77 7.82v7.76l11.62-11.64 3.78 3.77-11.16 11.17 4.07 4.07 10.81-10.82v-17a82.83 82.83 0 0 0-9.04-1.85zm-34.54 29.38c0 3.44.17 6.38 1.58 9.53l5.46-5.46-7-7z"/><path id="BOTTOM_FIELD" data-name="BOTTOM FIELD" class="cls-1" d="M236.08 65.37v9.06l4.53-4.53zm-5.34 9.06v-9.06l-4.53 4.53zM216.1 80a40.67 40.67 0 0 0 2.9 3.16 35.65 35.65 0 0 0 11.78 7.63V82l-8.31-8.31zm28.29-6.32L236.08 82v8.8a35.75 35.75 0 0 0 11.78-7.63 38.49 38.49 0 0 0 2.85-3.17z"/><path id="WHITE_LINES" data-name="WHITE LINES" d="M223 43.24l7.74 7.76v7.75l-11.63-11.63-1.53 1.53L232.91 64V50.09l-8.39-8.39zm24.71 3.88l-11.63 11.63V51l7.75-7.75-1.54-1.54-8.38 8.39V64l15.33-15.33zm-1.21-12.84a101.74 101.74 0 0 0-12.58-1.07v15.46l7.66-7.67-1.53-1.54-4 4v-7.97a96.59 96.59 0 0 1 10.08 1 82.83 82.83 0 0 1 9 1.89v17l-10.74 10.75-4.07-4.07 11.16-11.17-1.48-1.53-16 16v14.31l21.2-21.29v1.41l-21.29 21.3v12.8a38.62 38.62 0 0 0 15.5-9.17c7.42-7.42 8-12.51 8-18.89V36.7a76.39 76.39 0 0 0-10.92-2.42zm-10.42 40.16v-9.07l4.53 4.53zm11.78 8.72a35.75 35.75 0 0 1-11.78 7.63V82l8.31-8.31 6.32 6.31a36.92 36.92 0 0 1-2.85 3.16zm7.34-17.33c0 3.44-.17 6.38-1.58 9.53l-5.46-5.46 7-7zM209.41 36.7v29.13c0 6.38.57 11.47 8 18.89a38.63 38.63 0 0 0 15.51 9.17v-12.8l-21.3-21.3v-1.41l21.3 21.29V65.4l-16-16-1.54 1.53 11.12 11.13-4.07 4.07-10.82-10.82v-17a83.37 83.37 0 0 1 9-1.89 96.74 96.74 0 0 1 10.09-1v7.95l-4-4-1.47 1.63 7.68 7.67V33.21a101.86 101.86 0 0 0-12.59 1.07 76.48 76.48 0 0 0-10.91 2.42zM230.74 82v8.8A35.65 35.65 0 0 1 219 83.16a38.92 38.92 0 0 1-2.9-3.16l6.33-6.32zm-12.09-12.1l-5.46 5.46c-1.41-3.15-1.58-6.09-1.58-9.53v-3zm12.09-4.53v9.07l-4.53-4.54z" fill="#fff"/><path id="DARK_LINES" data-name="DARK LINES" class="cls-1" d="M258 35.91a76.22 76.22 0 0 0-11.39-2.55 100.35 100.35 0 0 0-13.22-1.09 100.44 100.44 0 0 0-13.23 1.09 76.22 76.22 0 0 0-11.39 2.55l-.32.11v29.81c0 6.39.61 11.89 8.27 19.55A39.37 39.37 0 0 0 233.3 95h.22a39.37 39.37 0 0 0 16.55-9.59c7.66-7.66 8.27-13.16 8.27-19.55V36zm-40.6 48.81c-7.42-7.42-8-12.51-8-18.89V36.7a76.48 76.48 0 0 1 10.91-2.42 101.86 101.86 0 0 1 12.59-1.07v15.46L225.23 41l-.71.7 8.39 8.39V64l-15.33-15.35-.71.71 16 16v14.31l-21.3-21.29v1.41l21.3 21.3v12.8a38.63 38.63 0 0 1-15.47-9.17zm40-18.89c0 6.38-.58 11.47-8 18.89a38.62 38.62 0 0 1-15.5 9.17v-12.8l21.29-21.3v-1.41l-21.28 21.29V65.4l16-16-.71-.71L233.91 64V50.09l8.38-8.39-.71-.7-7.67 7.67V33.21a101.74 101.74 0 0 1 12.58 1.07 76.39 76.39 0 0 1 10.92 2.42z"/></g></g></svg>