<svg id="Layer_1" data-name="Layer 1" xmlns="http://www.w3.org/2000/svg" viewBox="0 0 434.89 74.97"><defs><style>.cls-1,.cls-2{fill:#005239}.cls-2{fill-rule:evenodd}</style></defs><path class="cls-1" d="M42.27 16.05L30.33 74.97h10.38l7.99-38.64 5.88 21.69h9.93L76.28 0h-9.99l-7.32 36.59-6.71-20.54h-9.99zM81 42.13l1-4.9h4.47c2.78 0 4.83 1.4 4.61 5-.29 4.82-4 6.59-5.61 6.57h-5.86L81 42.13l-9.71-3L67.38 58h19c5.93 0 14.27-5.41 14.88-14.89.5-7.7-1.78-9.82-5.13-12.28 2.39-2.28 3-3.89 3-7.49-.1-4.26-3.05-7.24-6.32-7.31H76l-1.67 8.07 9.9 2 .66-3.2h2.36a2.38 2.38 0 0 1 2.24 2.77c-.24 2.68-2.15 4.14-3.81 4.16h-2.21l.76-3.73-9.9-2-3.07 15z"/><path class="cls-2" d="M16.65 49.09c-2.48 0-5.86-.62-5.41-3.2l6.36-29.95H7.07L.16 48.47c-1.15 5.37 4 10.64 14.26 10.64s16.88-5.06 18.1-10.85l6.87-32.32H28.76l-6.35 29.85c-.58 2.27-3.28 3.3-5.76 3.3M134.3 15.38c-9-1.16-27.16 2.85-31.14 21.6s12.91 23.5 22 22.13l2.65-12.43c-8.86 2-15.21-.85-13.3-9.8s10-12.22 17.3-10.54l2.44-11"/><path class="cls-1" d="M155.52 19.79l-1.9 8.94a6.45 6.45 0 0 1-6.62 5.21c-3.71 0-4.8-2.38-4.25-5l1.95-9.19h1.87l-1.85 8.67c-.63 3 1 3.82 2.68 3.82a4.3 4.3 0 0 0 4.44-3.78l1.85-8.71zM167.62 19.79h1.8l-2.93 13.78h-2.09l-4.64-11.14-2.37 11.14h-1.8l2.93-13.78h2.21l4.52 11.13zM171.56 33.57h-1.86l2.93-13.78h1.86zM186.55 19.79h2.09l-8 13.78h-2l-2.1-13.78h2.08l1.44 11.75zM197.92 33.57h-10.17l2.93-13.78h10l-.35 1.65h-8.18l-.9 4.22h7.55l-.35 1.65h-7.55l-1 4.61h8.31zM205.05 21.38h4.64c.92 0 2.44.17 2 2.3s-2 2.38-3.31 2.38h-4.32zm-1.34 6.28h4.51c2.23 0 2.18 1.32 1.94 2.46a16.91 16.91 0 0 0-.41 3.45H212l.07-.31c-.51-.32-.54-.61-.4-1.38l.42-2.49c.33-1.92-.38-2.27-1.1-2.6a4.43 4.43 0 0 0 2.62-3.3c.62-2.92-1.48-3.7-3.74-3.7h-6.38l-2.93 13.78h1.86zM224.61 23.82c.36-2.13-1.27-2.8-2.82-2.8-1.17 0-3.22.32-3.67 2.41-.24 1.17.5 1.56 1.27 1.75l3.74.9c1.7.43 2.81 1.5 2.35 3.69-.7 3.26-3.92 4.17-6.28 4.17-2.56 0-3.39-.77-3.89-1.33a3.62 3.62 0 0 1-.66-3.49h1.75c-.53 2.49 1.35 3.22 3.11 3.22 1.35 0 3.69-.34 4.11-2.32.3-1.44-.27-1.9-2.42-2.44l-2.68-.65a2.59 2.59 0 0 1-2.25-3.25 5.43 5.43 0 0 1 5.65-4.26c4.82 0 4.68 2.88 4.44 4.4zM229.18 33.57h-1.86l2.93-13.78h1.86zM234.11 19.79h11.19l-.3 1.65h-4.67l-2.63 12.13h-1.86l2.58-12.13h-4.66zM250 33.57h-1.86l1.15-5.57-3.45-8.23H248l2.54 6.62 5.37-6.62h2.19l-7 8.23zM274.52 26.68c-.69 3.24-3 5.6-6 5.6s-4.3-2.36-3.61-5.6 3-5.61 6-5.61 4.3 2.36 3.61 5.61zm1.92 0c.63-3 0-7.26-5.18-7.26s-7.63 4.28-8.26 7.26 0 7.26 5.17 7.26 7.63-4.29 8.27-7.26zM279.23 33.57h-1.86l2.93-13.78h9.54l-.35 1.65h-7.68l-.9 4.22h6.76l-.35 1.65h-6.76zM153.76 43h1.8l-2.93 13.78h-2.09l-4.64-11.14-2.37 11.13h-1.8L144.62 43h2.21l4.52 11.13zM167.82 49.88c-.69 3.24-3 5.6-6 5.6s-4.3-2.36-3.61-5.6 3-5.61 6-5.61 4.3 2.36 3.61 5.61zm1.92 0c.64-3 0-7.26-5.17-7.26s-7.63 4.28-8.27 7.26 0 7.26 5.18 7.26 7.63-4.29 8.26-7.26zM175.17 44.58h4.65c.92 0 2.44.17 2 2.3s-1.94 2.38-3.3 2.38h-4.33zm-1.33 6.28h4.51c2.23 0 2.17 1.32 1.93 2.45a17.85 17.85 0 0 0-.41 3.46h2.29l.07-.31c-.51-.32-.55-.61-.4-1.38l.41-2.49c.33-1.92-.38-2.27-1.1-2.6a4.44 4.44 0 0 0 2.63-3.3c.62-2.92-1.48-3.7-3.75-3.7h-6.37l-2.93 13.78h1.86zM185.52 43h11.19l-.35 1.65h-4.67l-2.58 12.13h-1.86l2.58-12.13h-4.66zM207.52 43h1.86l-2.93 13.78h-1.86l1.41-6.44h-7.2l-1.37 6.43h-1.86L198.46 43h1.86l-1.21 5.7h7.2zM219.74 56.77h-10.18L212.49 43h10l-.35 1.65H214l-.89 4.22h7.54l-.35 1.65h-7.55l-1 4.61h8.31zM226.86 44.58h4.65c.92 0 2.44.17 2 2.3s-1.94 2.38-3.31 2.38h-4.32zm-1.33 6.28H230c2.22 0 2.17 1.32 1.93 2.45a17.85 17.85 0 0 0-.41 3.46h2.29l.06-.31c-.5-.32-.54-.61-.39-1.38l.41-2.49c.33-1.92-.38-2.27-1.1-2.6a4.44 4.44 0 0 0 2.63-3.3c.62-2.92-1.48-3.7-3.75-3.7h-6.37l-2.93 13.78h1.86zM248.11 43h1.8L247 56.77h-2.09l-4.64-11.13-2.37 11.13H236L239 43h2.21l4.52 11.13zM259.65 44.58H263c2.08 0 2.71.73 2.43 2-.35 1.68-1.56 2.22-3.35 2.22h-3.36zm-4.45 12.19h5.93a5.37 5.37 0 0 0 5.55-4.07 2.6 2.6 0 0 0-1.78-3.36 4 4 0 0 0 2.46-2.88c.4-1.88-.59-3.47-3.16-3.47h-6.07zm3.23-6.43h3.67c1.51 0 3.14.38 2.73 2.32a3.19 3.19 0 0 1-3.46 2.52h-4zM272.73 44.58h4.64c.93 0 2.44.17 2 2.3s-1.94 2.38-3.31 2.38h-4.32zm-1.34 6.28h4.52c2.22 0 2.17 1.32 1.93 2.45a17.1 17.1 0 0 0-.41 3.46h2.29l.06-.31c-.5-.32-.54-.61-.39-1.38l.41-2.49c.33-1.92-.38-2.27-1.1-2.6a4.43 4.43 0 0 0 2.62-3.3c.62-2.92-1.48-3.7-3.74-3.7h-6.37l-2.94 13.78h1.87zM284.06 56.77h-1.87L285.12 43H287zM289 43h11.2l-.35 1.65h-4.67l-2.58 12.13h-1.86l2.58-12.13h-4.67zM301.12 56.77h-1.86L302.19 43h1.87zM314.7 47c.36-2.13-1.27-2.81-2.82-2.81-1.17 0-3.22.33-3.67 2.42-.24 1.18.5 1.56 1.27 1.75l3.74.9c1.69.43 2.81 1.5 2.35 3.69-.7 3.26-3.92 4.17-6.29 4.17-2.55 0-3.38-.77-3.88-1.33a3.62 3.62 0 0 1-.66-3.49h1.75c-.53 2.49 1.35 3.22 3.11 3.22 1.35 0 3.69-.34 4.11-2.32.3-1.44-.27-1.9-2.42-2.44l-2.69-.65a2.59 2.59 0 0 1-2.24-3.25 5.42 5.42 0 0 1 5.64-4.24c4.82 0 4.69 2.88 4.45 4.4zM329.13 43H331l-2.93 13.78h-1.87l1.37-6.43h-7.2L319 56.77h-1.86L320.07 43h1.86l-1.21 5.7h7.2zM348 47.13c0-2.42-1.92-2.86-3.25-2.86-2.49 0-4.9 1.85-5.67 5.47-.69 3.25-.07 5.74 3.35 5.74 1.21 0 3.42-.57 4.74-3.78H349c-1.87 5.21-6.14 5.44-7.18 5.44-3.13 0-5.77-2-4.64-7.34.9-4.24 3.94-7.18 7.95-7.18 3.56 0 4.93 2.21 4.71 4.51zM362.45 49.88c-.68 3.24-3 5.6-6 5.6s-4.29-2.36-3.6-5.6 3-5.61 6-5.61 4.29 2.36 3.6 5.61zm1.92 0c.64-3 0-7.26-5.17-7.26s-7.63 4.28-8.26 7.26 0 7.26 5.17 7.26 7.63-4.29 8.26-7.26zM367.33 55.12h7l-.33 1.65h-8.85l2.9-13.77h1.86zM389.63 43l-1.9 8.94a6.46 6.46 0 0 1-6.66 5.21c-3.7 0-4.79-2.38-4.24-5l1.95-9.15h1.86l-1.84 8.67c-.64 3 1 3.82 2.68 3.82a4.29 4.29 0 0 0 4.43-3.78l1.86-8.71zM401 56.77l1.73-8.14c.09-.4.5-2.15.77-3.44l-6.34 11.58h-1.84l-1.42-11.56c-.27 1.27-.6 3-.69 3.42l-1.73 8.14h-1.8L392.53 43h2.67l1.46 11.65L403.09 43h2.65l-2.93 13.78zM410.06 44.58h3.38c2.08 0 2.71.73 2.44 2-.36 1.68-1.57 2.22-3.36 2.22h-3.36zm-4.45 12.19h5.93a5.36 5.36 0 0 0 5.55-4.07 2.6 2.6 0 0 0-1.78-3.36 4 4 0 0 0 2.46-2.88c.4-1.88-.59-3.47-3.16-3.47h-6.07zm3.23-6.43h3.67c1.51 0 3.14.38 2.73 2.32a3.18 3.18 0 0 1-3.45 2.52h-4zM420.61 56.77h-1.87L421.67 43h1.87zM427.74 51.11l3.5-6.07.74 6.07zm4.6 1.65l.52 4h2L432.83 43h-2.11l-8.12 13.77h1.92l2.3-4z"/></svg>