<svg id="Layer_1" xmlns="http://www.w3.org/2000/svg" viewBox="0 0 93 182.6"><style>.st0{fill:#fff}</style><path class="st0" d="M93 0H.2v182.7H93V0zm-2 135.6H47.7V92.4H91v43.2zm-45.4 0H2.3V92.4h43.3v43.2zm-43.3 1.9h43.3v43.2H2.3v-43.2zm45.4 0H91v43.2H47.7v-43.2zM91 2v88.4H2.3V2H91z"/><path class="st0" d="M17 99.3v17.1c0 6.4 2.9 9.2 6.7 9.2 4.2 0 7-2.8 7-9.2V99.3h3.8v16.9c0 8.9-4.7 12.4-10.9 12.4-5.9 0-10.4-3.3-10.4-12.3v-17H17zM58.5 128.1V99.2h4.1l9.2 14.6c2.1 3.4 3.8 6.4 5.1 9.4h.1c-.3-3.9-.4-7.4-.4-11.8V99.2h3.5V128h-3.8l-9.2-14.6c-2-3.2-3.9-6.5-5.4-9.6h-.1c.2 3.6.3 7.1.3 11.9V128h-3.4v.1zM16.9 147.7c1-.2 2.4-.4 4.4-.4 7.9 0 11.8 4.2 11.7 11.1 0 7.8-4.3 12.3-12.3 12.2-1.5 0-2.8 0-3.8-.2v-22.7zm-3.8 25.6c1.9.3 4.1.3 6.8.3 5.6 0 10.1-1.5 12.8-4.2 2.7-2.6 4.2-6.5 4.2-11.2s-1.5-8-4.1-10.4c-2.5-2.4-6.4-3.6-11.7-3.6-3 0-5.7.3-8 .6v28.5zM65.1 147.6c.6-.1 1.9-.3 3.5-.3 4.1 0 6.8 1.8 6.8 5.7s-2.7 6.1-7.3 6.1c-1.2 0-2.3-.1-3.1-.3l.1-11.2zm-3.7 25.8h3.7v-11.6c.9.2 1.9.3 3 .3 3.6 0 6.9-1.1 8.8-3.2 1.5-1.5 2.3-3.6 2.3-6.2s-1-4.7-2.6-6c-1.7-1.5-4.4-2.4-8.1-2.4-3 0-5.4.3-7.2.6l.1 28.5zM69.3 64.7c-2 .5-4.2.7-6.2 1.4 3.3-2.9 3.1-7.3 5.4-10.6.7-1 1.3-2 2.1-2.9-1.4 2.7-.8 6.2-2.3 8.9-.6 1-1.5 2.1-2.4 2.9.3 0 .6-.3.8-.5 2.5-2.5 5.8-3.2 8.6-5.3 1.1-.9 2.1-2 2.6-3.2-.5 4.1-4.7 8.1-8.6 9.3zM78.4 47.8c-1.2 1.8-2.7 3.4-3.9 5.2.1-1.4.3-3.2-.3-4.5-1-2.9-1.8-5.8-2.1-9v-1.2c.7 3.2 3.9 5.5 3.7 9.1.1.9-.2 1.6-.4 2.4l.1.1.1-.2c.5-1.8.7-3.6 1.4-5.3 1-2.4 2.3-4.8 1.8-7.7 1.8 3.4 1.3 7.9-.4 11.1z"/><path class="st0" d="M76.4 29.5c2.1 2.8 2.5 7.3 1 10.5-.6 1.4-1 2.8-1.2 4.4-.1-.3-.1-.6-.2-.9-.8-3.2-3.8-5.4-5.1-8.4-.4-1-.7-2-.9-3 1.3 2.4 4.6 3.7 5.5 6.4.4.7.3 1.5.6 2.3 0 0 .1 0 .1-.1-.4-2.8-.3-5.7.1-8.4 0-1.5-.2-2.9-1-4.1.5.2.8.8 1.1 1.3z"/><path class="st0" d="M75 28.9c.6 2.5-.2 4.9.3 7.4-1.3-2.6-4.2-3.9-6.2-6-1.1-1.3-1.6-2.8-1.9-4.4 1.1 2.7 4.2 3.3 5.9 5.6.6.5.8 1.3 1.2 1.9l.1-.1c-1-2.1-1.3-4.6-2-6.8-.4-1-1-2-2-2.6 2.1.5 4.1 2.9 4.6 5z"/><path class="st0" d="M68.8 23.3c1.7 1.5 2.5 3.5 3 5.6l.3.7c-2.5-1.8-4.8-4.2-6.4-6.8l-2-2c1.8.7 3.7 1.2 5.1 2.5zM29.2 21.1c-1.7 1.5-2.9 3.4-4.2 5.2-1.2 1.4-2.6 2.4-3.9 3.6.7-1.5.7-3.2 1.7-4.5 1.4-2.5 4.1-3.4 6.4-4.3z"/><path class="st0" d="M19.7 26.4c.8-1 1.9-1.8 3.1-2.1-2.3 1.6-2.2 4.5-2.9 6.9-.2.9-.6 1.7-.8 2.6h.1c.4-1 1.1-2 1.9-2.8 1.7-1.5 4.1-2.5 4.9-4.7 0 3.1-2.7 5.6-5.2 7.4-1 .9-2 1.9-2.6 3.1-.1-.8.1-1.6.1-2.4-.3-2.8-.5-6 1.4-8z"/><path class="st0" d="M15 35.8c-.1-2.8 1.1-5 2.7-7.1l.1-.1c-1.8 2.7-.3 6.1-.4 9.2l-.2 3.2s0 .1.1.1c.1-.4.1-.7.2-1.1.4-2.6 2.6-4.4 4.6-6.1.4-.5.8-.9 1-1.5-.2 1.3-.6 2.6-1.1 3.7-1.5 2.9-4.3 5.4-4.8 8.7-.2-3.2-2.4-5.6-2.2-9z"/><path class="st0" d="M13.7 39.7c.2-.9.4-1.8.7-2.6-.7 3.7 1.8 6.3 2.6 9.5.3 1.2.4 2.5.9 3.6 0 0 .1 0 .1-.1-1.2-3.4.5-6.5 2.3-9.2.4-.7.7-1.5.9-2.3.2 1.5-.2 3.3-.4 4.9-.4 2-1.1 3.9-1.6 5.9-.4 1.2-.3 2.6-.1 3.9l-.2-.1c-1.3-2.4-3.8-4.2-4.6-6.8-.7-2-1.1-4.4-.6-6.7z"/><path class="st0" d="M13.5 46.9c.3 3.9 4.5 5.9 6.4 9.2.5.7.9 1.4 1.5 1.9-.1-.4-.5-.8-.6-1.2-.7-1.4-.9-3-.8-4.6.2-2 1-3.8.7-5.9 1.7 3.7 1.2 8.3 2.1 12.3.2.9.8 1.6 1.1 2.5-3.5-2.4-8.3-4.7-9.9-9-.5-1.6-.6-3.5-.5-5.2z"/><path class="st0" d="M15.6 55.8c2 4.4 6.9 4.8 10.2 7.5.6.5 1.2 1 1.9 1.3-.8-.7-1.6-1.5-2.2-2.3-1.9-2.7-1.2-6.4-2.7-9.3 1.3 1.6 2.5 3.2 3.3 5 1.2 2.9 1.6 6.2 4.3 8.4-2.9-1-6.4-.7-9-2.5-2.7-1.9-5.2-4.8-5.8-8.1z"/><path class="st0" d="M20.7 64.1c3.1 3.6 8.3 2.4 12.4 3.3.6.1 1.1.3 1.8.2-.5-.3-1.2-.3-1.7-.6-3.3-1.2-3.8-4.7-5.5-7.1 2.3 1.5 4.2 3.5 6.3 5.5 1.5 1.3 3.3 1.9 5.2 2.3-.5.2-1.1.1-1.6.2-3.4.8-7.3 2.2-10.9 1-2.4-.6-4.8-2.5-6-4.8z"/><path class="st0" d="M63.3 72.4c-3.5 1.3-7.2-.1-10-2.2-1.1-.7-2.1-1.7-3.6-1.6-.5 0-1 0-1.5.1 2.7 1.2 5.2 3 7.5 5.2-.4.4-.9.8-1.4 1.2-2.2-2.4-4.6-4.6-7.4-6-.5.1-1 .4-1.5.6-2.2 1.4-4.4 3.2-6.1 5.4L38 74c2.3-2.3 4.8-4.1 7.5-5.3-2.7-.8-4.4 1.4-6.5 2.5-2.4 1.7-5.8 2.4-8.7 1.3-1.5-.6-3-1.4-4.2-2.8 2.3 1.6 5.6 1.7 8.2.7 3.5-1.5 7-3.4 11.2-2.5.6 0 1.3.7 1.9.1 3.1-.8 6.6-.2 9.3 1.2l2.7 1.1c2.5.9 5.8.7 8-.9-1 1.4-2.5 2.4-4.1 3z"/><path class="st0" d="M67.1 68.7c-4 1.5-8-.3-11.8-1l-.7-.1c1.8-.4 3.6-1 5-2.3 2.1-2 4-4.2 6.4-5.8-1.8 2.2-1.9 5.4-4.8 6.9-.7.5-1.6.6-2.4.9 1.1 0 2-.4 3.1-.5 3.9-.6 8.3 0 11.1-3.3-1.1 2.5-3.6 4.4-5.9 5.2zM74.3 57.6c-1.6 1-3.2 2-4.7 3.1v-.1c2.3-3.8 1.2-9.1 2.6-13.3l.5-1.4c-.3 2.6.8 4.8.8 7.5-.1 1.6-.6 3-1.4 4.3h.1c1.1-1.5 2-3.1 3.3-4.5 2.1-2 4.1-4 4.4-6.7.8 4.5-1.8 8.5-5.6 11.1zM68 32.3C64.1 24 55.6 18.8 46.8 18.8c-3.9.1-7.5.9-10.7 2.5C30.3 24.1 25.5 30.1 24 36c-2.6 10 .9 20.2 9.5 26.1 6.2 4.4 16.1 5.3 23 1.9 6.2-2.6 11.5-8.9 13.1-15.2 1.5-5.3.9-11.8-1.6-16.5zm1.1 8.3c.1.4 0 .9.2 1.2l-3.4.1c-.1.1-.2.1-.3.1l.1-.1c-.1-2.7-.8-5-1.8-7.3 0-1-1-1.7-1.4-2.6-.8-.5-1-1.4-1.8-1.9-.2-.2-.2-.5-.5-.5l.4-.1c.8-.8 1.7-1.6 2.3-2.5 3.5 3.8 5.8 8.3 6.2 13.6zm-9.6 12.7c-.3-.3-.3-.8-.8-.8-.2 0-.2.1-.2.3v.2l-1.2-1c.5-.3.9-.9 1.3-1.4 1-1.4 1.6-2.9 2.1-4.5.2.1.4.1.5 0 .2-.1.2-.4.1-.5l-.4-.4c0-.7.2-1.4.2-2.1l.3.1c1.1 0 2.2.1 3.3 0l-.2.2c-.3 4.2-1.8 8.1-4.7 11.2 0-.5-.3-.9-.3-1.3zm-2.8 3.4c-.6-.6.4-1 .6-1.6-.1-.6-.7-.9-1.2-1-.2-.1-.1-.4-.1-.6.2-.2.4-.4.5-.7l.1.2 1.4 1.5c0 .3.1.6.4.8.2.1.3-.1.5 0h-.1c-.6.7-1.4 1.2-2.1 1.8l-.2.2c0-.2.4-.4.2-.6zm-6.5-18.3c-.2.1-.4.2-.6.1-.2-.2-.5-.5-.8-.5-.2.1-.4.3-.6.2.4-.5 1.2-.5 1.5-1.2.1-.3.2-.6.1-.9-.1-.1-.3-.3-.4-.1-.2.4-.8.5-1 .9l-.8-.3c-.1-.8.1-1.8-.2-2.4.4.2.9.2 1.4.3 1.2.3 2.3.9 3.4 1.5-.2.1-.5.4-.7.6 0 .2.2.2.3.3l.2-.1c-.5.8-1.7.7-1.8 1.6zm.9 9.8c0 .4-.6.4-.9.7-.2-.1 0-.2 0-.3.3-.3.5-.5.9-.4zm6.7-11.3c.4.1.6.5 1 .6.4.5.5 1.2.7 1.8-.3.4-.3 1.1-1 1-.2-.4.3-.6.2-1 .1-.1.3-.1.3-.3 0-.4-.5-.3-.5-.6-.1-.2-.4-.2-.6-.2-.5-.2-.9.9-1 0 .1-.1.2-.3.1-.4-.4-.2-.4-.8-.8-1-.6 0-1.1-.2-1.7-.1-.4-.1-.8-.3-1.1.1 0 .3-.2.5-.2.8l-.3-.3c1-1.2 2.2-2.3 3.3-3.4l.1-.1c.5.7 1.2 1.3 1.6 2.1 0 .2-.8.7-.1 1zm2.1 6.2c-.2.6-.2 1.4-.3 2 0 .1 0 .2-.1.3-.2-.4-.4-.9-.8-1.2-.4-.2-.1-.7-.5-1l-.5-.2c.7.2 1.5.2 2.2.1zM55 33.2c-.6.7-1.4 1.3-2 2.1l-.1-.3c-1.5-1.3-3.3-1.9-5.3-2.2l-.3.1v-3.2l-.1-.3c1.3.2 2.6.4 3.8.8 1.5.5 2.9 1.4 4.2 2.4l.3.1-.5.5zm-3.3 17.4c1 .1 2 .3 2.9.7.2 0 .5 0 .6-.2-.1-.4.4-.6.4-1 .2-.3.1-.8.3-1.1 0-.4 0-.9-.3-1.2-.3-.2-.5 0-.7.1-.3.2-.2.8-.7.7-.1.2-.3.2-.5.1 0-.1-.1-.1-.1-.1.4-.2 1-.1 1-.6.3-.2.7-.1.9-.4.2-.3.3-.5.5-.8 0-.1.1-.2.1-.4.1.2.1.4.3.5.3.1.4-.1.5-.3 0-.1.1-.2.2-.1.3.2.7 0 1 .1.3-.1.6-.2.9-.2-.3 1.3-.9 2.5-1.7 3.6-.3.4-.6.8-.9 1.1-.1-.3-.1-.6-.3-.9H56c-.2.4-.6.7-.5 1.1-.3.4-1 .1-1.4.3-.5.2-.8-.3-1.2-.4-.4-.2-1-.2-1.4-.4.1-.1.1-.2.2-.2zm-2.2-30.3c4.7.6 8.9 2.5 12.5 5.9l-.4.2c-.6.7-1.4 1.3-1.8 2.1 0-.2-.4-.4-.5-.6-.1-.6-.7-1.3-1.2-1.6-.5-.1-.6-.8-1.1-.6-.5-.4-1.1-.1-1.5.1v.1c-2.2-1.3-4.7-2.1-7.4-2.3-.1 0-.2.1-.3.1.1-.1.1-.4.1-.5-.1-.1-.2-.3-.4-.2-.1.1-.1.2-.1.3.1-1 .1-2.3 0-3.2.5.1 1.4 0 2.1.2zm-.9 4.7c2.1.2 3.9.8 5.7 1.6.3.4.8.6.9 1.1-.3.7 1 .7.4 1.4 0 .2.2.4.2.5.1.2 0 .5.2.6.4.1.6-.5 1-.3.6.4.7 1.1.7 1.7.1.4.4.6.7.8.7-.2.4.6.8.8.5.1.8.8 1.4.7.5.4.8 1 1.3 1.4 0 .1 0 .2.1.2.3.1.5-.1.7-.1.9 1.9 1.4 3.9 1.5 6.1l.1.2c-1.1 0-2.3 0-3.5.1 0-.7 0-1.4-.4-1.9.2-.4.2-.8.2-1.2-.1-.2-.2 0-.3 0-.4.4-.4.9-.6 1.3-.3.5-.4 1.2-.2 1.7l.1.1h-1.3c.3-.2-.3-.6 0-.9l.6-.1c.2-.4.7-.8.6-1.3.3-.3.5-.7.3-1.2-.3-.6.5-1.3-.1-1.9.1-.2-.1-.4-.3-.4-.2-.1-.4 0-.4-.3.1-.2.4-.3.3-.6-.1-.2-.4 0-.5 0 0-.3.5-.6 0-.8-.3-.1-.5.3-.8.2-.1-.1-.2-.3-.1-.5l-.7-.9c-.1-.1-.3 0-.3-.1 0-.7-.8-1.1-.8-1.8-.3-.2 0-.7-.4-.9-.2-.1-.4-.3-.7-.2-.3-.4-.6-.8-1-1.2-.1 0-.2 0-.3.1.1.3.4.5.4.9H54c0 .3.3.6.5.8-1.8-1.4-4-2.2-6.3-2.5-.4 0-.9-.2-1.4 0 .1-1 0-2.2.1-3.3l-.1-.2c.8.3 1.3.2 1.8.3zm-2 13.5l.2.1c-.2 0-.5-.1-.7 0-.1.1 0 .3 0 .4.4.2.5.9 1.1.6.2 0 .5.1.6.4.3.1.4.7.8.6 0 .2-.1.6.2.8-.1.2-.3.3-.3.5-.1.1-.1.2 0 .3.4 0 .4.5.6.8-.1.3 0 .7.3.9 0 .4-.2.7-.4 1.1-.5.2-1.2-.3-1.4.5-.3.3 0 .9-.5.9-1 .1-1.9-.1-2.6-.7.5-.2 1.3.1 1.5-.6.1-.1.2-.3.1-.4.2-.2.3-.5.4-.8-.2-.2-.1-.3-.1-.5-.5-.5-1.1-.2-1.8-.2-.4.2 0 .6-.3.9-.5.1-.5.5-.8.8-.2-.1-.3-.3-.3-.5h.1c0 .1 0 .2.1.2.4.1.3-.4.4-.7.1-.3.7-.7.2-.9 0-.1.1-.3-.1-.3-.2.1-.4.1-.5.3.1.2 0 .4-.2.6h-.1c0-.1-.1-.2-.2-.3-.3 0-.5.2-.8.1-.4.1-.8.2-1.2.2 0-.2.3-.2.4-.4-.1-.4.2-.6.3-.8.1-.1.3-.1.4 0 .1.1.2.2.3.1l.1-.2c.4.2.2 1.2.8.8.1-.4 0-1 .2-1.4-.2-.4.2-.5.4-.8.4 0 .3-.4.5-.6.6-.2 1.1-.3 1.5-.9-.1-.3 0-.7-.3-1 .5 0 .9-.1 1.1.1zm-.5 21.8l-.3-.2c-4.4-.2-8.1-2-11.4-4.9.5-.1.7.6 1.3.5s1.1-.6 1.8-.5c.3 0 .7 0 .9-.3.1-.4-.3-.5-.3-.8 2.2 1.7 4.7 2.7 7.6 2.8l.3-.1v3.1l.1.4zM33.7 43.4l-.2-.3c.4.3.7.2 1.1.1-.6.2-.4.9-.6 1.3 0 .2.3.3.2.5-.3.1-.3.4-.4.7.3-.8 0-1.5-.1-2.3zm-3.5 4c-.3 0-.2.4-.4.6 0-.8-.3-1.6-.4-2.5l-.3-2.2-.1-.1c1 .2 2.2.1 3.3.1l.3-.1c-.1.5-.1 1.3.3 1.7-.1-.1-.3-.6-.6-.5-.6 0-.6.8-1.2.8-.5.4-.6 1-.7 1.6 0 .2-.4.4-.2.6zm2.4-5.4l-.3-.1H29c.3-3.6 1.3-6.9 3.4-9.8l1.3-1.6v-.2c.8.9 1.6 1.7 2.5 2.5-2.3 2.5-3.5 5.5-3.8 8.8.1.2 0 .3.2.4zM46 28.3c-.6-.1-1.2.1-1.9.1-2.6.6-5.1 1.7-7.1 3.6l-.1-.2c-.8-.7-1.5-1.6-2.4-2.2.8-.4 1.4-1.1 2.2-1.6 2.7-1.8 5.8-2.9 9.2-3.1-.1 1.1 0 2.3.1 3.4zM40.7 46c0 .1.2.2.3.1.1-.2-.3-.5 0-.6.2.2.1.6.2.8.1.1.1.3.1.5-.3.4-.8.7-1 1.2-.2-.5-.7-1-.9-1.5-.3-.6-.5-1.3-.8-1.9.3.4 1 0 1 .6h.2c.1-.1.1-.1.2-.1.1.1.3.2.1.3.1.3.3.6.6.6zm3.5 9.2l.6.3c-2.1-.5-4.3-1.2-6-2.7-.3-.2-.5-.6-.9-.6.8-.7 1.7-1.6 2.3-2.4.3.6 1 .9 1.5 1.2.9.4 1.8 1.2 2.9 1-.3.1-.6.3-.9.6-.1.3-.1.8-.5.9-.1.6.6 1.2 1 1.7zM36.7 51l-.1-.7c-.7-.6-.5-1.6-.6-2.4-.5-.4-.1-1-.4-1.4 0-.7-1.1-.9-.7-1.7-.1-.2-.3-.4-.1-.7.2-.2.7 0 .8-.3l.1-.6c.2-.1.6.2.7-.2.2-.6-.9-1.3.1-1.6.3 0 .8-.1.9.3.1.4.2.9 0 1.4.3.1 0 .4 0 .6-.2.1-.4.3-.6.2-.1-.2-.3-.4-.5-.4-.2.2.1.5 0 .8-.1.2 0 .4-.1.5-.1-.1-.2-.1-.3-.1-.2.1-.1.3 0 .4.2.1.4.3.6.3l.1-.1c0-.4.2-.7.2-1l.3.2c.3 1.5 1 2.8 1.8 4l.4.4c-1.1.9-2.1 2-3 3.1 0 0 0-.2-.2-.2 0-.4.7-.3.6-.8zm1.6-13.9c-.3.2-.6.5-.8.8-.3.2-.6.2-.9.5 0 .1.2.3 0 .4-.3.3-.8-.1-1 .4 0 .4-.6.7-.5 1.2-.3.2-.2.6-.2.8.2.2-.1.5.2.7-.5-.1-1.1-.1-1.5.1.2-.5.2-1.2.3-1.8.4-2.4 1.5-4.6 3.2-6.5.8.8 1.7 1.7 2.6 2.4-.7.1-.7 1.1-1.4 1zm7.3 12.7c-.2.3 0 .7-.1 1-1.6-.3-3-.9-4.2-2 .7-.8 1.7-1.5 2.2-2.3.1.4.5.6.8.7.6.3 1.4.7 2.1.4-.1 0-.1.1-.2.1.2.2-.2.4.1.6 0 .2-.2.1-.2.2.1.2 0 .6.3.7.1.1 0 .3-.1.3-.3.1-.6.1-.7.3zm-3.8-3.5c.2-.2.4-.5.5-.8l.4.2c-.4 0-.6.4-.9.6zm3.3-9.6c-.1-.2.1-.3-.1-.4-.5.2-.3.8-.7 1.2-.1.3-.5.2-.6.3-.1-.2-.4-.2-.6-.1-.3 0-.3-.6-.6-.3-.1.1 0 .3-.3.2 0-.1-.1-.1-.2-.1 0-.2.3-.2.2-.4-.2-.4-.7-.3-1-.6h-.3c1.4-1.5 3.1-2.1 5-2.4 0 .8-.1 1.8.2 2.6-.3-.3-.7.2-1 0zm.9-3.8c-.6-.1-1.2.1-1.8.2-1.3.3-2.5 1.1-3.6 1.9-.1.1-.1.2-.2.3-.8-.7-1.6-1.7-2.5-2.3 2.3-1.9 4.9-3.1 7.9-3.3l.2-.1c-.1 1-.1 2.2 0 3.3zm-12.8-8.3c3.7-2.7 7.9-4.3 12.7-4.5l-.1.3v2.8l.1.3c-4.6.2-8.6 1.9-12 5.1l-.1.2c-.8-.8-1.7-1.8-2.6-2.5h-.1c.8-.5 1.4-1.2 2.1-1.7zm-8.7 15.2c.6-4.9 2.7-9.1 6-12.8l.1.3c.8.8 1.6 1.6 2.4 2.3-.7.4-1 1.2-1.6 1.8-2.1 3-3.3 6.3-3.5 10.1l.1.5c-1.2-.1-2.5-.1-3.6 0 0-.8-.1-1.5.1-2.2zm2.7 13.8c-1.7-3.1-2.7-6.6-2.9-10.3h3.3l.3-.1v.7c-.1.1.1.1.1.2.1 1.2.3 2.4.6 3.6l.2.3c-.2-.2-.3-.5-.5-.7-.3 0-.6.1-.8.3.1.3-.2.2-.4.3 0-.1-.1-.2-.2-.2-.2 0-.5 0-.6.3 0 .2-.2.3-.2.4-.1.5-.2 1.2.1 1.7 0 .4.2.7.5 1 .1 0 .2-.1.3-.1.3.2.5.8 1 .7.1-.1.1-.2.1-.3.2.2.4.8.8.7.1.1.2.3.4.3.5-.1.3.6.7.8.3.2.4.6.8.4l.1-.2c.1.1 0 .3.1.5.2.4.6.6 1 .8.3.4.7.8 1.1 1.1l-.3.1-2.5 2.1c-1.1-1.5-2.3-2.9-3.1-4.4zm16.6 11.1c-4.7-.6-8.9-2.7-12.6-5.9l2.4-2.4v-.1c3.4 3.2 7.4 4.9 12 5.2l.4-.1V64.7l.2.3c-.8-.2-1.7-.2-2.4-.3zm2.8-13.3c-.3 0-.5 0-.7-.1-.1 0-.1-.1-.1-.2.3 0 .5-.4.9-.3.2-.2.2-.5.5-.6-.1-.3.3-.1.4-.3.1-.1.2-.2.4-.1.2.3.7.2 1 .6.1 0 .2-.1.1-.2V50c.4 0 .6.5 1 .1.1-.1.1-.3 0-.3 0 0-.1 0-.1-.1.3-.1.4.4.8.2.3-.2.5-.5.8-.5l.1.1c.1.7-.5 1.1-1.1 1.4-.3.1-1 .1-.9.6-.4.4-.8-.2-1.2-.1-.2-.1 0-.4-.3-.5-.6.4-1.2-.1-1.6.5zm.9 5.9c.4.2 1.2-.2 1.4.3-.1.3-.3.5-.3.8.2.4.4 1 1 1 .1.2.3.2.5.3-.9.2-2 .1-2.8.4.1-1 0-1.9 0-2.9l-.2-.3c.2.2.3.4.4.4zm0 7.6l-.2.1c.1-1.2.1-2.5 0-3.7.6.2 1.2 0 1.8 0L51 61c.9.2 1.5 1.6 2.5.7.3-.4.9-.4 1.2-.9.6-.2.7-.8 1.1-1.2.4-1.1 1.6-1.3 2.4-2 .6-.5 1.3-.9 1.6-1.6l.1.3 2.5 2.4c-4.3 3.8-9.2 5.9-14.9 6.2zm21.7-21.6c-.2 5.5-2.3 10.3-5.9 14.4l-.1.2c-.7-.8-1.7-1.9-2.6-2.6.5-.4 1-1 1.4-1.5 2.2-3.1 3.5-6.5 3.7-10.4l-.1-.4.2.1h3.4l.2-.1-.2.3z"/><path class="st0" d="M57.2 24.9c0 .1 0 .2.1.3.5.2.6.9 1.2.7.2-.2-.1-.4-.1-.7-.1-.2-.3-.4-.5-.4-.3.2-.5-.2-.7.1zM47.8 22.9c.6.8 1.7.4 2.5.2.6.2 1.1 0 1.5-.4v-.1c-.4-.6-1.2-.6-1.8-.7l-1.7.7c-.1-.1-.4-.1-.5.1-.1 0-.1.1 0 .2z"/></svg>