<svg id="English" xmlns="http://www.w3.org/2000/svg" viewBox="0 0 202 104.7"><style>.st0{fill:#fff}</style><path class="st0" d="M159.4 50.9c-8-2.4-13.8-9.8-13.8-18.6 0-1.6.2-3.1.5-4.6l12.6 1.6s4.8.2 4.7 8.8c-.2 8.4-4 12.8-4 12.8zM170.7 50.9c8-2.4 13.8-9.8 13.8-18.6 0-1.6-.2-3.1-.5-4.6l-12.6 1.6s-4.8.2-4.7 8.8c.1 8.4 4 12.8 4 12.8zM165 18.4c1.6 0 2.9 1.3 2.9 2.9 0 1.3-.9 2.2-1.9 2.8-.1.1-.2.1-.2.3 0 .2.6.3.9.4l17 2c-2.4-8-9.8-13.9-18.6-13.9s-16.3 5.9-18.6 13.9l17-2c.3-.1.9-.2.9-.4s-.1-.3-.2-.3c-1.1-.6-1.9-1.5-1.9-2.8-.2-1.6 1.1-2.9 2.7-2.9zM172.8 64.7l1.1-.7s-5.5-7.4-17.7-7.4c-6.2 0-9.5 2.5-13.8 2.5 0 0-1.8.2-3.5-.9 0 0 2.1 3 9.6 3 5.5 0 9.5-3.2 13.3-3.2 5.4 0 9.3 4.8 11 6.7z"/><path class="st0" d="M155.8 64.7l-1.1-.7s5.5-7.4 17.7-7.4c6.2 0 9.5 2.5 13.8 2.5 0 0 1.8.2 3.5-.9 0 0-2.1 3-9.6 3-5.5 0-9.5-3.2-13.3-3.2-5.4 0-9.3 4.8-11 6.7zM150 55.9c-.2.6-2.5-.1-4.1.4-1.8.5-11.1 1.7-15.2-8 0 0 3.9 4.2 6.9 4.4 3 .3 6.3 1 9.1 2.6l.6.1s-.1-.3-.4-.4c-.4-.2-3.3-1.1-4.7-5.7-.7-2.4-.6-4.1-.9-5.3 0 0 3.2 3.5 4.4 5.7 1.5 2.2 1.7 4.7 4.3 6.2z"/><path class="st0" d="M140.5 51.1c-.2.2-.8-.1-1-.3-.2-.1-1.8-.8-4.4-1.8-2.6-.9-7.5-5.1-7-12.1 0 0 .7 2.7 2.7 4.4 2 1.8 2.7 2 3.9 3.4 1.2 1.4 4 4.7 4.1 4.7.1 0 .1-.2-.1-.4s-.9-2-1.4-2.6c-.5-.6-1.9-4.8.2-10 0 0 2.2 3.8 2 7.6-.1 3.8-.3 2.9.6 6.1 0 0 .5.9.4 1z"/><path class="st0" d="M134.4 41.8c-.1.1-.7-.7-1.1-1.4-.4-.8-3.4-4-3.8-4.6-.4-.6-3.8-4.7-1.2-10.8 0 0 .3-.1.3 1.4s1.3 4.6 2.4 6c1.1 1.4 2 3.6 2.3 5.9 0 0 .1.4.3.5s.2-.4.2-.4-.1-2.2-.1-3.6c0-1.5.6-4 2-5.4 0 0 .6-.7 1-1.6 0 0 .3-.6.6-.9 0 0 .3 4.1-1.1 8-1.4 3.8-1.9 4.5-1.7 6.6 0-.2 0 .3-.1.3z"/><path class="st0" d="M132.1 30.5c-.1 0-.3-.5-.3-.9-.1-.4-.5-2.7-.8-3.2-.3-.5-1.4-2.8-1.4-5.5s1.2-6.4 3.9-9.3c0 0-.1.9-.8 2.8-.7 1.9-.3 3.7-.2 4 .1.3.3 2.5.3 3.6 0 .8-.2 3.7-.4 4.2 0 0-.1.4.1.4s.3-.3.3-.3.1-2.2 1.8-4.2 4.6-3.2 5.1-4.1c0 0-.2 3.2-3.7 6.9-3.1 3.3-2.2 1.6-3.2 4.3 0 0-.4 1-.4 1.2-.1.2-.3.1-.3.1z"/><path class="st0" d="M134 19.9s-.1-.4.5-1.4c.5-1 0-2.7.7-5.2s2-6.8 7.1-9.4l-.8.8c-.3.4-1.6 2.9-2 4.7s-2.1 4.8-2.8 5.5c-.6.7-.4.8-.4.8s.3-.1.6-.6 2-2.4 3.8-2.8c1.8-.4 4.7-1.3 4.9-1.5 0 0-3.2 3.2-6.1 4.9s-3.2 1.1-5 3.4c.2 0-.4.8-.5.8z"/><path class="st0" d="M140.9 10.3s0-.3.5-.8 1.1-2 2-3.4c.9-1.4 3-5.1 8.5-5.9 0 0-1.7 1.2-1.9 1.6-.3.4-1.9 2.5-2.6 3.2-.7.7-2.8 2.2-3.4 2.5 0 0-.4.3-.3.4.1.1.4-.1.4-.1s1.9-1.5 4.2-1.5c2.3-.1 4.7 0 5.1.1 0 0-2.2 1.5-7.3 2.4-5.1.9-4.2 1-5 1.5.1 0 0 .1-.2 0z"/><path class="st0" d="M150.1 4.4s.1-.3.9-.5c.8-.3.8-1 3.3-2.4 2.5-1.3 5.1-1.9 7.8-.8 0 0-1.1.1-1.3.2-.2.1-2.1.6-2.6.9-.5.3-3.3 1.5-4.4 1.7-1.1.2-.6.3-.6.3s.3.1.5.1 2.7-.3 4.3.3c1.6.6 1.6.8 2.2 1 .6.2 1.4.4 1.5.6 0 0-1.6.1-2.6.1s-3.5-.3-4.7-.8c-1.2-.6-2.6-.8-3.1-.7-.5.1-1.1.1-1.2 0z"/><path class="st0" d="M160.3 3.1s.1-.1.8-.3c.7-.1.9-.6 2.6-.9 1.7-.4 4.3-.7 6.7 1h-1.8c-.3 0-3.1.5-3.8.5-.6 0-1.9-.3-2.1-.1-.2.2 1.2.5 1.4.6.2.1 1.2.1 2.4 1.3s2.1 1.8 2.2 1.9c0 0-3.6-.8-4.5-1.3s-2.4-2-2.7-2.2c-.2-.1-1.2-.5-1.2-.5z"/><path class="st0" d="M168.5 4.6s2.3-.1 3.9 1c1.7 1 3 2.4 3.1 3.2 0 0-.9-.8-1.5-1-.6-.2-2.3-1.1-2.7-1.4-.3-.2-2.4-1.5-2.8-1.8zM179.2 56.3s.3-.3 1.4-1.3c1.1-.9 1.4-2.3 2.5-4.4 1.2-2.1 2.2-3.6 4.6-5.7 0 0-.4 1.6-.5 2.1 0 .5-.4 3.3-1.8 4.9-1.4 1.6-1.4 2-3 2.9 0 0-.6.4-.6.6 0 .1 1.1 0 1.1 0s1.1-.4 1.5-.6l2.6-1.3c.6-.3 1.2-.5 2.6-.9 1.4-.4 6.6-1.8 8.7-5.1 0 0-.6 1.9-1.4 2.8-.8.9-5 6.5-10.9 6.4 0 0-2.3-.2-3.6-.4-1.2-.2-1.7-.2-1.8-.2-.1.1-1.3.3-1.4.2z"/><path class="st0" d="M192.4 36.2s-2.2 3.5-2.7 8.5.4 3.5-.5 5.7c0 0-.3.6-.2.6.1 0 .5-.2 2.1-1.2s3.1-.7 6.5-3.9 4.1-9.7 4.1-10.2c0 0-.5.5-.8 1.4-.3.9-.8 1.5-.9 1.7-.1.1-3.8 4.1-4.2 4.5-.4.4-2.6 3-3 3.7-.5.8-1.8 2.1-2.1 2 0 0 0-.3.1-.6s1.1-1.6 1.5-3.2c.4-1.6.5-2.5.6-3.6.2-.9-.5-4.6-.5-5.4z"/><path class="st0" d="M195.4 41.1s-.2-.5 0-.9c.1-.2.2-1.9-.4-3.3-.6-1.4-2-5.3-1.9-7.9.1-2.6.4-2.9.4-2.9s.7 2.1.9 2.5c.2.4 2.4 4.2 2.2 6.2-.2 2.1-.3 2.7-.2 2.8.1 0 .4-.3.4-.5 0-.3.4-1.7 1.1-3.4.7-1.7 3.4-5.4 4.1-7.9 0 0 .9 4.3-1.5 8.3-2.4 4-2.7 3.1-3.7 5-1.1 1.7-1.2 2-1.4 2z"/><path class="st0" d="M197.6 29.7c-.2 0-.1-1.7-.5-2.2-.4-.5-4.1-4.9-4.9-9.3 0 0 2.3 2.4 2.7 2.6.4.3 2 1.8 2.4 3.2.5 1.4.4 2.5.5 2.5.2 0 .2-1.5.2-1.5s0-3 .3-4.4c.3-1.4.9-3.8.6-5.1 0 0 1.4 2.2 1.3 5.4-.1 3.2-1.4 5.7-1.6 6-.2.4-.7 1.9-.7 2.2s-.3.6-.3.6z"/><path class="st0" d="M193.2 7.2s4.8 2.9 4.1 12.5c0 0 0 .4-.3 0-.3-.5-1.3-1.8-1.8-2.1-.5-.3-4.8-2.9-6.6-6.9 0 0 .3-.1.7.3.4.4 1.8 1.1 2 1.2.2.1 1.7.5 2.8 1.7 1.1 1.2 1.5 2.1 1.8 2.8 0 0 .3.3.1-.5-.2-.7-.3-1.2-.8-2.1-.6-.9-1.1-2.5-1.1-3.6s-.4-2.7-.9-3.3z"/><path class="st0" d="M192.4 10.6s.1-.6-.4-1.5-.1-1.9-1.6-4.3c-.8-1.3-3.7-2.4-3.7-2.4s.8 1.1 1.4 1.8c.5.6.7 1.1.9 1.4.2.3 1.2 1.3 1.5 1.8.1.1.2.4.2.6s-.4-.1-.5-.2c-.1-.1-1.9-1.4-3-1.7-1.1-.2-3.2-.4-3.8-.7 0 0 2.5 2.3 5.2 2.9 2.9.8 3.8 2.3 3.8 2.3z"/><path class="st0" d="M186.7 4.7s-2.5-3.4-7-3.3c0 0 .3.3.8.4.5.1 1.4 1 1.9 1.3.4.2 1.4.9 4.3 1.6z"/><g><path class="st0" d="M49 0v42.2c0 3.7-.6 6.9-1.8 9.8-1.2 2.8-2.9 5.2-5.1 7.1-2.2 1.9-4.7 3.3-7.7 4.3s-6.3 1.4-9.8 1.4c-3.6 0-6.8-.5-9.8-1.4S9.1 60.9 7 59c-2.2-1.9-3.9-4.3-5.1-7.1C.7 49.1.1 45.8.1 42.1V0h13.2v42.2c0 4.2 1 7.2 3 9.1 2 1.9 4.8 2.9 8.3 2.9 3.6 0 6.3-1 8.3-2.9 2-1.9 3-5 3-9.1V0H49zM111.8 63.9H98.6L73 21.8v42H59.8V0H73l25.7 42.1V0h13.1v63.9z"/></g><g><path class="st0" d="M9.5 105.1c-1.5 0-2.8-.2-4-.7-1.2-.5-2.2-1.1-3-2-.8-.8-1.4-1.8-1.9-2.9-.4-1.1-.6-2.3-.6-3.6v-.7c0-1.4.2-2.8.6-4 .4-1.2 1-2.2 1.8-3.1.8-.9 1.7-1.5 2.8-2 1.1-.5 2.3-.7 3.7-.7 1.4 0 2.6.2 3.6.7 1 .5 1.9 1.1 2.6 1.9.7.8 1.2 1.8 1.6 3 .4 1.2.5 2.4.5 3.8V97h-12c.1.6.3 1.2.5 1.7.3.5.6.9 1 1.3s.9.6 1.4.8c.5.2 1.1.3 1.8.3.9 0 1.8-.2 2.6-.5s1.5-.9 2-1.6l2.5 2.8c-.3.4-.7.9-1.1 1.3-.5.4-1 .8-1.6 1.1-.6.3-1.3.6-2.1.8-.9 0-1.7.1-2.7.1zM9 89.4c-.6 0-1 .1-1.5.3-.4.2-.8.5-1.1.8-.3.3-.5.8-.7 1.2-.2.5-.3 1-.4 1.6h7.1V93c0-.5-.1-1-.2-1.4-.1-.4-.3-.8-.6-1.1-.3-.3-.6-.6-1.1-.7-.4-.3-1-.4-1.5-.4zM25 85.7l.2 2.2c.7-.8 1.5-1.5 2.4-1.9.9-.4 2-.7 3.1-.7.9 0 1.7.1 2.5.4.7.3 1.4.7 1.9 1.2.5.6.9 1.3 1.2 2.3.3.9.4 2.1.4 3.4v12.1h-5.1V92.6c0-.6-.1-1.1-.2-1.5-.1-.4-.3-.7-.6-1-.3-.2-.6-.4-1-.5-.4-.1-.8-.1-1.3-.1-.8 0-1.4.2-1.9.5s-1 .8-1.3 1.3v13.4h-5.1v-19H25zM47.6 98.5l3.5-12.8h5.3L50 104.8h-4.9l-6.4-19.1H44l3.6 12.8zM58.7 80.7c0-.8.3-1.4.8-1.9s1.2-.7 2.1-.7c.4 0 .8.1 1.2.2.4.1.7.3.9.5.2.2.4.5.6.8s.2.7.2 1c0 .4-.1.7-.2 1.1-.1.3-.3.6-.6.8-.2.2-.5.4-.9.5-.4.1-.7.2-1.2.2-.4 0-.8-.1-1.2-.2-.4-.1-.7-.3-.9-.5-.2-.2-.4-.5-.6-.8-.1-.2-.2-.6-.2-1zm5.4 24H59v-19h5.1v19zM79 90.4c-.3 0-.6-.1-.9-.1h-.9c-1 0-1.8.2-2.4.5-.6.3-1.1.8-1.4 1.5v12.5h-5.1V85.7h4.8l.1 2.3c.5-.8 1.1-1.5 1.8-1.9s1.5-.7 2.5-.7c.3 0 .6 0 .9.1.3 0 .5.1.7.2l-.1 4.7zM80 95c0-1.4.2-2.7.6-3.9.4-1.2 1-2.2 1.7-3.1.8-.9 1.7-1.5 2.8-2 1.1-.5 2.4-.7 3.8-.7s2.7.2 3.9.7c1.1.5 2.1 1.2 2.8 2 .8.9 1.4 1.9 1.8 3.1.4 1.2.6 2.5.6 3.9v.4c0 1.4-.2 2.7-.6 3.9-.4 1.2-1 2.2-1.8 3.1-.8.9-1.7 1.5-2.8 2-1.1.5-2.4.7-3.8.7s-2.7-.2-3.9-.7c-1.1-.5-2.1-1.2-2.8-2-.8-.9-1.4-1.9-1.8-3.1-.4-1.2-.6-2.5-.6-3.9V95zm5.1.4c0 .8.1 1.5.2 2.2.1.7.4 1.3.7 1.8.3.5.7.9 1.2 1.2.5.3 1.1.4 1.8.4s1.3-.1 1.8-.4c.5-.3.9-.7 1.2-1.2.3-.5.5-1.1.7-1.8.1-.7.2-1.4.2-2.2V95c0-.8-.1-1.5-.2-2.1-.1-.7-.4-1.3-.7-1.8-.3-.5-.7-.9-1.2-1.2-.5-.3-1.1-.4-1.8-.4s-1.3.1-1.8.4c-.5.3-.9.7-1.2 1.2-.3.5-.5 1.1-.7 1.8-.1.7-.2 1.4-.2 2.1v.4zM105.9 85.7l.2 2.2c.7-.8 1.5-1.5 2.4-1.9s2-.7 3.1-.7c.9 0 1.7.1 2.5.4.7.3 1.4.7 1.9 1.2.5.6.9 1.3 1.2 2.3.3.9.4 2.1.4 3.4v12.1h-5.1V92.6c0-.6-.1-1.1-.2-1.5-.1-.4-.3-.7-.6-1-.3-.2-.6-.4-1-.5-.4-.1-.8-.1-1.3-.1-.8 0-1.4.2-1.9.5s-1 .8-1.3 1.3v13.4h-5.1v-19h4.8zM126.2 85.7l.2 2.1c.6-.8 1.4-1.4 2.3-1.8.9-.4 2-.7 3.2-.7 1.1 0 2.1.2 3 .7.9.5 1.6 1.2 2 2.2.6-.9 1.4-1.6 2.4-2.1.9-.5 2.1-.8 3.4-.8.9 0 1.8.1 2.5.4.8.3 1.4.7 1.9 1.3.5.6.9 1.3 1.2 2.2.3.9.4 2.1.4 3.4v12.1h-5.1V92.6c0-.6-.1-1.2-.2-1.6-.1-.4-.3-.7-.6-1-.2-.2-.5-.4-.9-.5-.4-.1-.8-.1-1.2-.1-.8 0-1.4.2-2 .6-.5.4-.9.9-1.2 1.6v13.1h-5.1V92.6c0-.6-.1-1.2-.2-1.6s-.3-.7-.6-1c-.2-.2-.5-.4-.9-.5-.4-.1-.8-.1-1.2-.1-.8 0-1.4.2-1.9.5s-.9.8-1.2 1.3v13.5h-5.1v-19h4.9zM161.5 105.1c-1.5 0-2.8-.2-4-.7-1.2-.5-2.2-1.1-3-2-.8-.8-1.4-1.8-1.9-2.9-.4-1.1-.6-2.3-.6-3.6v-.7c0-1.4.2-2.8.6-4 .4-1.2 1-2.2 1.8-3.1.8-.9 1.7-1.5 2.8-2 1.1-.5 2.3-.7 3.7-.7 1.4 0 2.6.2 3.6.7 1 .5 1.9 1.1 2.6 1.9.7.8 1.2 1.8 1.6 3 .4 1.2.5 2.4.5 3.8V97h-12.1c.1.6.3 1.2.5 1.7.3.5.6.9 1 1.3s.9.6 1.4.8c.5.2 1.1.3 1.8.3.9 0 1.8-.2 2.6-.5s1.5-.9 2-1.6l2.5 2.8c-.3.4-.7.9-1.1 1.3-.5.4-1 .8-1.6 1.1-.6.3-1.3.6-2.1.8-.9 0-1.7.1-2.6.1zm-.6-15.7c-.6 0-1 .1-1.5.3-.4.2-.8.5-1.1.8-.3.3-.5.8-.7 1.2-.2.5-.3 1-.4 1.6h7.1V93c0-.5-.1-1-.2-1.4-.1-.4-.3-.8-.6-1.1-.3-.3-.6-.6-1.1-.7-.4-.3-.9-.4-1.5-.4zM176.9 85.7l.2 2.2c.7-.8 1.5-1.5 2.4-1.9s2-.7 3.1-.7c.9 0 1.7.1 2.5.4.7.3 1.4.7 1.9 1.2.5.6.9 1.3 1.2 2.3.3.9.4 2.1.4 3.4v12.1h-5.1V92.6c0-.6-.1-1.1-.2-1.5-.1-.4-.3-.7-.6-1-.3-.2-.6-.4-1-.5-.4-.1-.8-.1-1.3-.1-.8 0-1.4.2-1.9.5s-1 .8-1.3 1.3v13.4h-5.1v-19h4.8zM198.5 81v4.7h3.3v3.7h-3.3v9.5c0 .4 0 .7.1 1 .1.3.2.5.4.6l.6.3c.2.1.5.1.9.1h.8c.3 0 .5-.1.7-.1v3.9c-.4.1-.9.2-1.4.3-.5.1-1.1.1-1.7.1-.8 0-1.6-.1-2.3-.3-.7-.2-1.2-.5-1.7-1s-.8-1-1.1-1.7c-.3-.7-.4-1.6-.4-2.6V89.4h-2.8v-3.7h2.8V81h5.1z"/></g></svg>